<svg
    xmlns="http://www.w3.org/2000/svg"
    width="2133"
    height="1547"
    fill="rgb(24,26,27)"
    
  >
    <g clip-path="url(#a)">
      <path fill="rgb(24,26,27)" d="M2133 0H0v1547h2133z" />
      <g clip-path="url(#b)">
        <path
          stroke="#0a0a0a"
          stroke-width="2.31"
          d="M-21.784-32h46.209v46.208h-46.209V-32Zm47.364 0h46.208v46.208H25.58V-32Zm47.363 0h46.209v46.208H72.943V-32Zm47.364 0h46.208v46.208h-46.208V-32Zm47.363 0h46.209v46.208H167.67V-32Zm47.364 0h46.208v46.208h-46.208V-32Zm47.364 0h46.208v46.208h-46.208V-32Zm47.363 0h46.208v46.208h-46.208V-32Zm47.364 0h46.208v46.208h-46.208V-32Zm47.363 0h46.209v46.208h-46.209V-32Zm47.364 0h46.208v46.208h-46.208V-32Zm47.363 0h46.209v46.208h-46.209V-32Zm47.364 0h46.208v46.208h-46.208V-32Zm47.363 0h46.209v46.208h-46.209V-32Zm47.364 0h46.208v46.208h-46.208V-32Zm47.363 0h46.209v46.208h-46.209V-32Zm47.364 0h46.208v46.208h-46.208V-32Zm47.364 0h46.208v46.208h-46.208V-32Zm47.363 0h46.208v46.208H830.76V-32Zm47.364 0h46.208v46.208h-46.208V-32Zm47.363 0h46.208v46.208h-46.208V-32Zm47.364 0h46.209v46.208h-46.209V-32Zm47.359 0h46.21v46.208h-46.21V-32Zm47.37 0h46.21v46.208h-46.21V-32Zm47.36 0h46.21v46.208h-46.21V-32Zm47.36 0h46.21v46.208h-46.21V-32Zm47.37 0h46.21v46.208h-46.21V-32Zm47.36 0h46.21v46.208h-46.21V-32Zm47.37 0h46.2v46.208h-46.2V-32Zm47.36 0h46.21v46.208h-46.21V-32Zm47.36 0h46.21v46.208h-46.21V-32Zm47.37 0h46.2v46.208h-46.2V-32Zm47.36 0h46.21v46.208h-46.21V-32Zm47.36 0h46.21v46.208h-46.21V-32Zm47.37 0h46.21v46.208h-46.21V-32Zm47.36 0h46.21v46.208h-46.21V-32Zm47.36 0h46.21v46.208h-46.21V-32Zm47.37 0h46.21v46.208h-46.21V-32Zm47.36 0h46.21v46.208h-46.21V-32Zm47.36 0h46.21v46.208h-46.21V-32Zm47.37 0h46.21v46.208h-46.21V-32Zm47.36 0h46.21v46.208h-46.21V-32Zm47.37 0h46.2v46.208h-46.2V-32Zm47.36 0h46.21v46.208h-46.21V-32Zm47.36 0h46.21v46.208h-46.21V-32Zm47.37 0h46.2v46.208h-46.2V-32ZM-21.784 15.364h46.209v46.208h-46.209V15.363Zm47.364 0h46.208v46.208H25.58V15.363Zm47.363 0h46.209v46.208H72.943V15.363Zm47.364 0h46.208v46.208h-46.208V15.363Zm47.363 0h46.209v46.208H167.67V15.363Zm47.364 0h46.208v46.208h-46.208V15.363Zm47.364 0h46.208v46.208h-46.208V15.363Zm47.363 0h46.208v46.208h-46.208V15.363Zm47.364 0h46.208v46.208h-46.208V15.363Zm47.363 0h46.209v46.208h-46.209V15.363Zm47.364 0h46.208v46.208h-46.208V15.363Zm47.363 0h46.209v46.208h-46.209V15.363Zm47.364 0h46.208v46.208h-46.208V15.363Zm47.363 0h46.209v46.208h-46.209V15.363Zm47.364 0h46.208v46.208h-46.208V15.363Zm47.363 0h46.209v46.208h-46.209V15.363Zm47.364 0h46.208v46.208h-46.208V15.363Zm47.364 0h46.208v46.208h-46.208V15.363Zm47.363 0h46.208v46.208H830.76V15.363Zm47.364 0h46.208v46.208h-46.208V15.363Zm47.363 0h46.208v46.208h-46.208V15.363Zm47.364 0h46.209v46.208h-46.209V15.363Zm47.359 0h46.21v46.208h-46.21V15.363Zm47.37 0h46.21v46.208h-46.21V15.363Z"
        />
        <path fill="#0b0b0b" d="M1114.94 15.364h46.21v46.208h-46.21V15.363Z" />
        <path
          stroke="#0a0a0a"
          stroke-width="1.155"
          d="M1162.88 15.941h45.06v45.053h-45.06V15.941Zm47.37 0h45.05v45.053h-45.05V15.941Zm47.36 0h45.05v45.053h-45.05V15.941Zm47.36 0h45.06v45.053h-45.06V15.941Zm47.37 0h45.05v45.053h-45.05V15.941Zm47.36 0h45.05v45.053h-45.05V15.941Zm47.36 0h45.06v45.053h-45.06V15.941Z"
        />
        <path fill="#0b0b0b" d="M1493.85 15.364h46.21v46.208h-46.21V15.363Z" />
        <path
          stroke="#0a0a0a"
          stroke-width="1.155"
          d="M1541.79 15.941h45.05v45.053h-45.05V15.941Zm47.36 0h45.06v45.053h-45.06V15.941Zm47.37 0h45.05v45.053h-45.05V15.941Zm47.36 0h45.05v45.053h-45.05V15.941Zm47.36 0h45.06v45.053h-45.06V15.941Zm47.37 0h45.05v45.053h-45.05V15.941Zm47.36 0h45.06v45.053h-45.06V15.941Zm47.37 0h45.05v45.053h-45.05V15.941Zm47.36 0h45.05v45.053h-45.05V15.941Zm47.36 0h45.06v45.053h-45.06V15.941Zm47.37 0h45.05v45.053h-45.05V15.941Zm47.36 0h45.05v45.053h-45.05V15.941Zm47.36 0h45.06v45.053h-45.06V15.941ZM-21.206 63.305h45.053v45.053h-45.053V63.305Z"
        />
        <path fill="#0b0b0b" d="M25.58 62.727h46.208v46.208H25.58V62.727Z" />

        <path
          stroke="#0a0a0a"
          stroke-width="2.31"
          d="M72.943 62.727h46.209v46.208H72.943V62.727Zm47.364 0h46.208v46.208h-46.208V62.727Zm47.363 0h46.209v46.208H167.67V62.727Zm47.364 0h46.208v46.208h-46.208V62.727Zm47.364 0h46.208v46.208h-46.208V62.727Zm47.363 0h46.208v46.208h-46.208V62.727Zm47.364 0h46.208v46.208h-46.208V62.727Zm47.363 0h46.209v46.208h-46.209V62.727Zm47.364 0h46.208v46.208h-46.208V62.727Zm47.363 0h46.209v46.208h-46.209V62.727Zm47.364 0h46.208v46.208h-46.208V62.727Zm47.363 0h46.209v46.208h-46.209V62.727Zm47.364 0h46.208v46.208h-46.208V62.727Zm47.363 0h46.209v46.208h-46.209V62.727Zm47.364 0h46.208v46.208h-46.208V62.727Zm47.363 0h46.209v46.208h-46.209V62.727Zm47.364 0h46.208v46.208H830.76V62.727Zm47.364 0h46.208v46.208h-46.208V62.727Zm47.363 0h46.208v46.208h-46.208V62.727Zm47.364 0h46.209v46.208h-46.209V62.727Zm47.359 0h46.21v46.208h-46.21V62.727Zm47.37 0h46.21v46.208h-46.21V62.727Zm47.36 0h46.21v46.208h-46.21V62.727Zm47.36 0h46.21v46.208h-46.21V62.727Zm47.37 0h46.21v46.208h-46.21V62.727Zm47.36 0h46.21v46.208h-46.21V62.727Zm47.37 0h46.2v46.208h-46.2V62.727Zm47.36 0h46.21v46.208h-46.21V62.727Zm47.36 0h46.21v46.208h-46.21V62.727Zm47.37 0h46.2v46.208h-46.2V62.727Zm47.36 0h46.21v46.208h-46.21V62.727Zm47.36 0h46.21v46.208h-46.21V62.727Zm47.37 0h46.21v46.208h-46.21V62.727Zm47.36 0h46.21v46.208h-46.21V62.727Zm47.36 0h46.21v46.208h-46.21V62.727Zm47.37 0h46.21v46.208h-46.21V62.727Zm47.36 0h46.21v46.208h-46.21V62.727Zm47.36 0h46.21v46.208h-46.21V62.727Zm47.37 0h46.21v46.208h-46.21V62.727Zm47.36 0h46.21v46.208h-46.21V62.727Zm47.37 0h46.2v46.208h-46.2V62.727Z"
        />
        <path fill="#0b0b0b" d="M2014.85 62.727h46.21v46.208h-46.21V62.727Z" />
        <path
          stroke="#0a0a0a"
          stroke-width="1.155"
          d="M2062.79 63.305h45.05v45.053h-45.05V63.305Zm47.36 0h45.06v45.053h-45.06V63.305ZM-21.206 110.668h45.053v45.053h-45.053v-45.053Zm47.364 0H71.21v45.053H26.158v-45.053Zm47.363 0h45.053v45.053H73.521v-45.053Zm47.364 0h45.053v45.053h-45.053v-45.053Zm47.363 0h45.053v45.053h-45.053v-45.053Zm47.364 0h45.053v45.053h-45.053v-45.053Zm47.363 0h45.053v45.053h-45.053v-45.053Zm47.364 0h45.053v45.053h-45.053v-45.053Zm47.363 0h45.053v45.053h-45.053v-45.053Zm47.364 0h45.053v45.053h-45.053v-45.053Z"
        />
        <path
          fill="#0b0b0b"
          d="M451.852 110.091h46.208v46.208h-46.208v-46.208Z"
        />
        <path
          stroke="#0a0a0a"
          stroke-width="1.155"
          d="M499.792 110.668h45.054v45.053h-45.054v-45.053Zm47.364 0h45.053v45.053h-45.053v-45.053Zm47.364 0h45.053v45.053H594.52v-45.053Zm47.363 0h45.053v45.053h-45.053v-45.053Zm47.364 0H734.3v45.053h-45.053v-45.053Zm47.363 0h45.053v45.053H736.61v-45.053Zm47.364 0h45.053v45.053h-45.053v-45.053Z"
        />
        <path
          fill="#0b0b0b"
          d="M830.76 110.091h46.208v46.208H830.76v-46.208Z"
        />

        <path
          stroke="#0a0a0a"
          stroke-width="2.31"
          d="M878.124 110.091h46.208v46.208h-46.208v-46.208Zm47.363 0h46.208v46.208h-46.208v-46.208Zm47.364 0h46.209v46.208h-46.209v-46.208Zm47.359 0h46.21v46.208h-46.21v-46.208Zm47.37 0h46.21v46.208h-46.21v-46.208Zm47.36 0h46.21v46.208h-46.21v-46.208Zm47.36 0h46.21v46.208h-46.21v-46.208Zm47.37 0h46.21v46.208h-46.21v-46.208Zm47.36 0h46.21v46.208h-46.21v-46.208Zm47.37 0h46.2v46.208h-46.2v-46.208Zm47.36 0h46.21v46.208h-46.21v-46.208Zm47.36 0h46.21v46.208h-46.21v-46.208Zm47.37 0h46.2v46.208h-46.2v-46.208Zm47.36 0h46.21v46.208h-46.21v-46.208Zm47.36 0h46.21v46.208h-46.21v-46.208Zm47.37 0h46.21v46.208h-46.21v-46.208Zm47.36 0h46.21v46.208h-46.21v-46.208Zm47.36 0h46.21v46.208h-46.21v-46.208Zm47.37 0h46.21v46.208h-46.21v-46.208Zm47.36 0h46.21v46.208h-46.21v-46.208Zm47.36 0h46.21v46.208h-46.21v-46.208Zm47.37 0h46.21v46.208h-46.21v-46.208Zm47.36 0h46.21v46.208h-46.21v-46.208Zm47.37 0h46.2v46.208h-46.2v-46.208Zm47.36 0h46.21v46.208h-46.21v-46.208Zm47.36 0h46.21v46.208h-46.21v-46.208Zm47.37 0h46.2v46.208h-46.2v-46.208ZM-21.784 157.454h46.209v46.208h-46.209v-46.208Zm47.364 0h46.208v46.208H25.58v-46.208Zm47.363 0h46.209v46.208H72.943v-46.208Zm47.364 0h46.208v46.208h-46.208v-46.208Zm47.363 0h46.209v46.208H167.67v-46.208Z"
        />
        <path
          fill="#0b0b0b"
          d="M215.034 157.454h46.208v46.208h-46.208v-46.208Z"
        />

        <path
          stroke="#0a0a0a"
          stroke-width="2.31"
          d="M262.397 157.454h46.209v46.208h-46.209v-46.208Zm47.364 0h46.208v46.208h-46.208v-46.208Zm47.364 0h46.208v46.208h-46.208v-46.208Zm47.363 0h46.208v46.208h-46.208v-46.208Zm47.364 0h46.208v46.208h-46.208v-46.208Zm47.363 0h46.208v46.208h-46.208v-46.208Zm47.364 0h46.208v46.208h-46.208v-46.208Zm47.363 0h46.209v46.208h-46.209v-46.208Zm47.364 0h46.208v46.208h-46.208v-46.208Zm47.363 0h46.209v46.208h-46.209v-46.208Zm47.364 0h46.208v46.208h-46.208v-46.208Zm47.363 0h46.209v46.208h-46.209v-46.208Zm47.364 0h46.208v46.208H830.76v-46.208Zm47.364 0h46.208v46.208h-46.208v-46.208Zm47.363 0h46.208v46.208h-46.208v-46.208Zm47.364 0h46.209v46.208h-46.209v-46.208Zm47.359 0h46.21v46.208h-46.21v-46.208Zm47.37 0h46.21v46.208h-46.21v-46.208Zm47.36 0h46.21v46.208h-46.21v-46.208Zm47.36 0h46.21v46.208h-46.21v-46.208Zm47.37 0h46.21v46.208h-46.21v-46.208Zm47.36 0h46.21v46.208h-46.21v-46.208Zm47.37 0h46.2v46.208h-46.2v-46.208Zm47.36 0h46.21v46.208h-46.21v-46.208Zm47.36 0h46.21v46.208h-46.21v-46.208Zm47.37 0h46.2v46.208h-46.2v-46.208Zm47.36 0h46.21v46.208h-46.21v-46.208Zm47.36 0h46.21v46.208h-46.21v-46.208Zm47.37 0h46.21v46.208h-46.21v-46.208Z"
        />
        <path
          fill="#0b0b0b"
          d="M1635.94 157.454h46.21v46.208h-46.21v-46.208Z"
        />

        <path
          stroke="#0a0a0a"
          stroke-width="2.31"
          d="M1683.3 157.454h46.21v46.208h-46.21v-46.208Zm47.37 0h46.21v46.208h-46.21v-46.208Zm47.36 0h46.21v46.208h-46.21v-46.208Zm47.36 0h46.21v46.208h-46.21v-46.208Zm47.37 0h46.21v46.208h-46.21v-46.208Zm47.36 0h46.21v46.208h-46.21v-46.208Zm47.37 0h46.2v46.208h-46.2v-46.208Zm47.36 0h46.21v46.208h-46.21v-46.208Zm47.36 0h46.21v46.208h-46.21v-46.208Zm47.37 0h46.2v46.208h-46.2v-46.208ZM-21.784 204.818h46.209v46.208h-46.209v-46.208Zm47.364 0h46.208v46.208H25.58v-46.208Zm47.363 0h46.209v46.208H72.943v-46.208Zm47.364 0h46.208v46.208h-46.208v-46.208Zm47.363 0h46.209v46.208H167.67v-46.208Zm47.364 0h46.208v46.208h-46.208v-46.208Zm47.364 0h46.208v46.208h-46.208v-46.208Zm47.363 0h46.208v46.208h-46.208v-46.208Zm47.364 0h46.208v46.208h-46.208v-46.208Zm47.363 0h46.209v46.208h-46.209v-46.208Zm47.364 0h46.208v46.208h-46.208v-46.208Zm47.363 0h46.209v46.208h-46.209v-46.208Zm47.364 0h46.208v46.208h-46.208v-46.208Zm47.363 0h46.209v46.208h-46.209v-46.208Zm47.364 0h46.208v46.208h-46.208v-46.208Zm47.363 0h46.209v46.208h-46.209v-46.208Zm47.364 0h46.208v46.208h-46.208v-46.208Zm47.364 0h46.208v46.208h-46.208v-46.208Zm47.363 0h46.208v46.208H830.76v-46.208Zm47.364 0h46.208v46.208h-46.208v-46.208Zm47.363 0h46.208v46.208h-46.208v-46.208Zm47.364 0h46.209v46.208h-46.209v-46.208Zm47.359 0h46.21v46.208h-46.21v-46.208Zm47.37 0h46.21v46.208h-46.21v-46.208Zm47.36 0h46.21v46.208h-46.21v-46.208Zm47.36 0h46.21v46.208h-46.21v-46.208Zm47.37 0h46.21v46.208h-46.21v-46.208Zm47.36 0h46.21v46.208h-46.21v-46.208Z"
        />
        <path fill="#0b0b0b" d="M1304.4 204.818h46.2v46.208h-46.2v-46.208Z" />

        <path
          stroke="#0a0a0a"
          stroke-width="2.31"
          d="M1351.76 204.818h46.21v46.208h-46.21v-46.208Zm47.36 0h46.21v46.208h-46.21v-46.208Zm47.37 0h46.2v46.208h-46.2v-46.208Zm47.36 0h46.21v46.208h-46.21v-46.208Zm47.36 0h46.21v46.208h-46.21v-46.208Zm47.37 0h46.21v46.208h-46.21v-46.208Zm47.36 0h46.21v46.208h-46.21v-46.208Zm47.36 0h46.21v46.208h-46.21v-46.208Zm47.37 0h46.21v46.208h-46.21v-46.208Zm47.36 0h46.21v46.208h-46.21v-46.208Zm47.36 0h46.21v46.208h-46.21v-46.208Zm47.37 0h46.21v46.208h-46.21v-46.208Zm47.36 0h46.21v46.208h-46.21v-46.208Zm47.37 0h46.2v46.208h-46.2v-46.208Zm47.36 0h46.21v46.208h-46.21v-46.208Zm47.36 0h46.21v46.208h-46.21v-46.208Zm47.37 0h46.2v46.208h-46.2v-46.208ZM-21.784 252.181h46.209v46.209h-46.209v-46.209Zm47.364 0h46.208v46.209H25.58v-46.209Zm47.363 0h46.209v46.209H72.943v-46.209Zm47.364 0h46.208v46.209h-46.208v-46.209Zm47.363 0h46.209v46.209H167.67v-46.209Zm47.364 0h46.208v46.209h-46.208v-46.209Zm47.364 0h46.208v46.209h-46.208v-46.209Zm47.363 0h46.208v46.209h-46.208v-46.209Zm47.364 0h46.208v46.209h-46.208v-46.209Zm47.363 0h46.209v46.209h-46.209v-46.209Zm47.364 0h46.208v46.209h-46.208v-46.209Zm47.363 0h46.209v46.209h-46.209v-46.209Zm47.364 0h46.208v46.209h-46.208v-46.209Zm47.363 0h46.209v46.209h-46.209v-46.209Zm47.364 0h46.208v46.209h-46.208v-46.209Zm47.363 0h46.209v46.209h-46.209v-46.209Zm47.364 0h46.208v46.209h-46.208v-46.209Zm47.364 0h46.208v46.209h-46.208v-46.209Zm47.363 0h46.208v46.209H830.76v-46.209Zm47.364 0h46.208v46.209h-46.208v-46.209Zm47.363 0h46.208v46.209h-46.208v-46.209Zm47.364 0h46.209v46.209h-46.209v-46.209Zm47.359 0h46.21v46.209h-46.21v-46.209Z"
        />
        <path
          fill="#0b0b0b"
          d="M1067.58 252.181h46.21v46.208h-46.21v-46.208Z"
        />
        <path
          stroke="#0a0a0a"
          stroke-width="1.155"
          d="M1115.52 252.759h45.05v45.053h-45.05v-45.053Zm47.36 0h45.06v45.053h-45.06v-45.053Zm47.37 0h45.05v45.053h-45.05v-45.053Zm47.36 0h45.05v45.053h-45.05v-45.053Zm47.36 0h45.06v45.053h-45.06v-45.053Zm47.37 0h45.05v45.053h-45.05v-45.053Zm47.36 0h45.05v45.053h-45.05v-45.053Zm47.36 0h45.06v45.053h-45.06v-45.053Zm47.37 0h45.05v45.053h-45.05v-45.053Zm47.36 0h45.05v45.053h-45.05v-45.053Zm47.36 0h45.06v45.053h-45.06v-45.053Zm47.37 0h45.05v45.053h-45.05v-45.053Zm47.36 0h45.05v45.053h-45.05v-45.053Zm47.37 0h45.05v45.053h-45.05v-45.053Zm47.36 0h45.05v45.053h-45.05v-45.053Z"
        />
        <path
          fill="#0b0b0b"
          d="M1825.39 252.181h46.21v46.208h-46.21v-46.208Z"
        />
        <path
          stroke="#0a0a0a"
          stroke-width="1.155"
          d="M1873.34 252.759h45.05v45.053h-45.05v-45.053Zm47.36 0h45.05v45.053h-45.05v-45.053Zm47.36 0h45.06v45.053h-45.06v-45.053Zm47.37 0h45.05v45.053h-45.05v-45.053Zm47.36 0h45.05v45.053h-45.05v-45.053Zm47.36 0h45.06v45.053h-45.06v-45.053ZM-21.206 300.122h45.053v45.053h-45.053v-45.053Zm47.364 0H71.21v45.053H26.158v-45.053Zm47.363 0h45.053v45.053H73.521v-45.053Zm47.364 0h45.053v45.053h-45.053v-45.053Zm47.363 0h45.053v45.053h-45.053v-45.053Zm47.364 0h45.053v45.053h-45.053v-45.053Zm47.363 0h45.053v45.053h-45.053v-45.053Zm47.364 0h45.053v45.053h-45.053v-45.053Zm47.363 0h45.053v45.053h-45.053v-45.053Zm47.364 0h45.053v45.053h-45.053v-45.053Zm47.363 0h45.053v45.053h-45.053v-45.053Zm47.364 0h45.053v45.053h-45.053v-45.053Zm47.363 0h45.054v45.053h-45.054v-45.053Zm47.364 0h45.053v45.053H594.52v-45.053Z"
        />
        <path
          fill="#0b0b0b"
          d="M641.306 299.545h46.208v46.208h-46.208v-46.208Z"
        />

        <path
          stroke="#0a0a0a"
          stroke-width="2.31"
          d="M688.669 299.545h46.209v46.208h-46.209v-46.208Zm47.364 0h46.208v46.208h-46.208v-46.208Zm47.364 0h46.208v46.208h-46.208v-46.208Zm47.363 0h46.208v46.208H830.76v-46.208Zm47.364 0h46.208v46.208h-46.208v-46.208Zm47.363 0h46.208v46.208h-46.208v-46.208Zm47.364 0h46.209v46.208h-46.209v-46.208Zm47.359 0h46.21v46.208h-46.21v-46.208Zm47.37 0h46.21v46.208h-46.21v-46.208Zm47.36 0h46.21v46.208h-46.21v-46.208Zm47.36 0h46.21v46.208h-46.21v-46.208Zm47.37 0h46.21v46.208h-46.21v-46.208Zm47.36 0h46.21v46.208h-46.21v-46.208Zm47.37 0h46.2v46.208h-46.2v-46.208Zm47.36 0h46.21v46.208h-46.21v-46.208Zm47.36 0h46.21v46.208h-46.21v-46.208Zm47.37 0h46.2v46.208h-46.2v-46.208Zm47.36 0h46.21v46.208h-46.21v-46.208Zm47.36 0h46.21v46.208h-46.21v-46.208Zm47.37 0h46.21v46.208h-46.21v-46.208Zm47.36 0h46.21v46.208h-46.21v-46.208Zm47.36 0h46.21v46.208h-46.21v-46.208Zm47.37 0h46.21v46.208h-46.21v-46.208Zm47.36 0h46.21v46.208h-46.21v-46.208Zm47.36 0h46.21v46.208h-46.21v-46.208Zm47.37 0h46.21v46.208h-46.21v-46.208Zm47.36 0h46.21v46.208h-46.21v-46.208Zm47.37 0h46.2v46.208h-46.2v-46.208Zm47.36 0h46.21v46.208h-46.21v-46.208Zm47.36 0h46.21v46.208h-46.21v-46.208Zm47.37 0h46.2v46.208h-46.2v-46.208ZM-21.784 346.908h46.209v46.209h-46.209v-46.209Zm47.364 0h46.208v46.209H25.58v-46.209Zm47.363 0h46.209v46.209H72.943v-46.209Zm47.364 0h46.208v46.209h-46.208v-46.209Zm47.363 0h46.209v46.209H167.67v-46.209Zm47.364 0h46.208v46.209h-46.208v-46.209Zm47.364 0h46.208v46.209h-46.208v-46.209Zm47.363 0h46.208v46.209h-46.208v-46.209Zm47.364 0h46.208v46.209h-46.208v-46.209Zm47.363 0h46.209v46.209h-46.209v-46.209Zm47.364 0h46.208v46.209h-46.208v-46.209Zm47.363 0h46.209v46.209h-46.209v-46.209Zm47.364 0h46.208v46.209h-46.208v-46.209Zm47.363 0h46.209v46.209h-46.209v-46.209Zm47.364 0h46.208v46.209h-46.208v-46.209Zm47.363 0h46.209v46.209h-46.209v-46.209Zm47.364 0h46.208v46.209h-46.208v-46.209Zm47.364 0h46.208v46.209h-46.208v-46.209Zm47.363 0h46.208v46.209H830.76v-46.209Zm47.364 0h46.208v46.209h-46.208v-46.209Zm47.363 0h46.208v46.209h-46.208v-46.209Zm47.364 0h46.209v46.209h-46.209v-46.209Zm47.359 0h46.21v46.209h-46.21v-46.209Zm47.37 0h46.21v46.209h-46.21v-46.209Zm47.36 0h46.21v46.209h-46.21v-46.209Zm47.36 0h46.21v46.209h-46.21v-46.209Zm47.37 0h46.21v46.209h-46.21v-46.209Zm47.36 0h46.21v46.209h-46.21v-46.209Zm47.37 0h46.2v46.209h-46.2v-46.209Zm47.36 0h46.21v46.209h-46.21v-46.209Zm47.36 0h46.21v46.209h-46.21v-46.209Zm47.37 0h46.2v46.209h-46.2v-46.209Zm47.36 0h46.21v46.209h-46.21v-46.209Zm47.36 0h46.21v46.209h-46.21v-46.209Zm47.37 0h46.21v46.209h-46.21v-46.209Zm47.36 0h46.21v46.209h-46.21v-46.209Zm47.36 0h46.21v46.209h-46.21v-46.209Zm47.37 0h46.21v46.209h-46.21v-46.209Zm47.36 0h46.21v46.209h-46.21v-46.209Zm47.36 0h46.21v46.209h-46.21v-46.209Zm47.37 0h46.21v46.209h-46.21v-46.209Zm47.36 0h46.21v46.209h-46.21v-46.209Zm47.37 0h46.2v46.209h-46.2v-46.209Zm47.36 0h46.21v46.209h-46.21v-46.209Zm47.36 0h46.21v46.209h-46.21v-46.209Zm47.37 0h46.2v46.209h-46.2v-46.209ZM-21.784 394.272h46.209v46.208h-46.209v-46.208Zm47.364 0h46.208v46.208H25.58v-46.208Zm47.363 0h46.209v46.208H72.943v-46.208Zm47.364 0h46.208v46.208h-46.208v-46.208Zm47.363 0h46.209v46.208H167.67v-46.208Zm47.364 0h46.208v46.208h-46.208v-46.208Z"
        />
        <path
          fill="#0b0b0b"
          d="M262.397 394.272h46.209v46.208h-46.209v-46.208Z"
        />
        <path
          stroke="#0a0a0a"
          stroke-width="1.155"
          d="M310.338 394.849h45.053v45.053h-45.053v-45.053Zm47.364 0h45.053v45.053h-45.053v-45.053Zm47.363 0h45.054v45.053h-45.054v-45.053Zm47.364 0h45.053v45.053h-45.053v-45.053Zm47.364 0h45.053v45.053h-45.053v-45.053Zm47.363 0h45.053v45.053h-45.053v-45.053Zm47.364 0h45.053v45.053H594.52v-45.053Zm47.363 0h45.053v45.053h-45.053v-45.053Zm47.364 0H734.3v45.053h-45.053v-45.053Zm47.363 0h45.053v45.053H736.61v-45.053Zm47.364 0h45.053v45.053h-45.053v-45.053Zm47.363 0h45.053v45.053h-45.053v-45.053Zm47.364 0h45.053v45.053h-45.053v-45.053Zm47.363 0h45.054v45.053h-45.054v-45.053Zm47.364 0h45.052v45.053h-45.052v-45.053Zm47.362 0h45.05v45.053h-45.05v-45.053Zm47.36 0h45.06v45.053h-45.06v-45.053Zm47.37 0h45.05v45.053h-45.05v-45.053Zm47.36 0h45.06v45.053h-45.06v-45.053Zm47.37 0h45.05v45.053h-45.05v-45.053Zm47.36 0h45.05v45.053h-45.05v-45.053Zm47.36 0h45.06v45.053h-45.06v-45.053Zm47.37 0h45.05v45.053h-45.05v-45.053Z"
        />
        <path
          fill="#0b0b0b"
          d="M1399.12 394.272h46.21v46.208h-46.21v-46.208Z"
        />

        <path
          stroke="#0a0a0a"
          stroke-width="2.31"
          d="M1446.49 394.272h46.2v46.208h-46.2v-46.208Zm47.36 0h46.21v46.208h-46.21v-46.208Zm47.36 0h46.21v46.208h-46.21v-46.208Zm47.37 0h46.21v46.208h-46.21v-46.208Zm47.36 0h46.21v46.208h-46.21v-46.208Zm47.36 0h46.21v46.208h-46.21v-46.208Zm47.37 0h46.21v46.208h-46.21v-46.208Zm47.36 0h46.21v46.208h-46.21v-46.208Zm47.36 0h46.21v46.208h-46.21v-46.208Zm47.37 0h46.21v46.208h-46.21v-46.208Zm47.36 0h46.21v46.208h-46.21v-46.208Zm47.37 0h46.2v46.208h-46.2v-46.208Zm47.36 0h46.21v46.208h-46.21v-46.208Zm47.36 0h46.21v46.208h-46.21v-46.208Zm47.37 0h46.2v46.208h-46.2v-46.208ZM-21.784 441.635h46.209v46.209h-46.209v-46.209Zm47.364 0h46.208v46.209H25.58v-46.209Zm47.363 0h46.209v46.209H72.943v-46.209Zm47.364 0h46.208v46.209h-46.208v-46.209Zm47.363 0h46.209v46.209H167.67v-46.209Zm47.364 0h46.208v46.209h-46.208v-46.209Zm47.364 0h46.208v46.209h-46.208v-46.209Zm47.363 0h46.208v46.209h-46.208v-46.209Zm47.364 0h46.208v46.209h-46.208v-46.209Zm47.363 0h46.209v46.209h-46.209v-46.209Zm47.364 0h46.208v46.209h-46.208v-46.209Zm47.363 0h46.209v46.209h-46.209v-46.209Zm47.364 0h46.208v46.209h-46.208v-46.209Zm47.363 0h46.209v46.209h-46.209v-46.209Zm47.364 0h46.208v46.209h-46.208v-46.209Zm47.363 0h46.209v46.209h-46.209v-46.209Zm47.364 0h46.208v46.209h-46.208v-46.209Zm47.364 0h46.208v46.209h-46.208v-46.209Zm47.363 0h46.208v46.209H830.76v-46.209Zm47.364 0h46.208v46.209h-46.208v-46.209Zm47.363 0h46.208v46.209h-46.208v-46.209Zm47.364 0h46.209v46.209h-46.209v-46.209Zm47.359 0h46.21v46.209h-46.21v-46.209Zm47.37 0h46.21v46.209h-46.21v-46.209Zm47.36 0h46.21v46.209h-46.21v-46.209Zm47.36 0h46.21v46.209h-46.21v-46.209Zm47.37 0h46.21v46.209h-46.21v-46.209Zm47.36 0h46.21v46.209h-46.21v-46.209Zm47.37 0h46.2v46.209h-46.2v-46.209Zm47.36 0h46.21v46.209h-46.21v-46.209Zm47.36 0h46.21v46.209h-46.21v-46.209Zm47.37 0h46.2v46.209h-46.2v-46.209Zm47.36 0h46.21v46.209h-46.21v-46.209Zm47.36 0h46.21v46.209h-46.21v-46.209Zm47.37 0h46.21v46.209h-46.21v-46.209Zm47.36 0h46.21v46.209h-46.21v-46.209Zm47.36 0h46.21v46.209h-46.21v-46.209Zm47.37 0h46.21v46.209h-46.21v-46.209Zm47.36 0h46.21v46.209h-46.21v-46.209Zm47.36 0h46.21v46.209h-46.21v-46.209Zm47.37 0h46.21v46.209h-46.21v-46.209Zm47.36 0h46.21v46.209h-46.21v-46.209Zm47.37 0h46.2v46.209h-46.2v-46.209Zm47.36 0h46.21v46.209h-46.21v-46.209Zm47.36 0h46.21v46.209h-46.21v-46.209Zm47.37 0h46.2v46.209h-46.2v-46.209ZM-21.784 488.999h46.209v46.208h-46.209v-46.208Zm47.364 0h46.208v46.208H25.58v-46.208Zm47.363 0h46.209v46.208H72.943v-46.208Zm47.364 0h46.208v46.208h-46.208v-46.208Zm47.363 0h46.209v46.208H167.67v-46.208Zm47.364 0h46.208v46.208h-46.208v-46.208Zm47.364 0h46.208v46.208h-46.208v-46.208Zm47.363 0h46.208v46.208h-46.208v-46.208Zm47.364 0h46.208v46.208h-46.208v-46.208Zm47.363 0h46.209v46.208h-46.209v-46.208Z"
        />
        <path
          fill="#0b0b0b"
          d="M451.852 488.999h46.208v46.208h-46.208v-46.208Z"
        />
        <path
          stroke="#0a0a0a"
          stroke-width="1.155"
          d="M499.792 489.577h45.054v45.053h-45.054v-45.053Zm47.364 0h45.053v45.053h-45.053v-45.053Zm47.364 0h45.053v45.053H594.52v-45.053Zm47.363 0h45.053v45.053h-45.053v-45.053Zm47.364 0H734.3v45.053h-45.053v-45.053Zm47.363 0h45.053v45.053H736.61v-45.053Zm47.364 0h45.053v45.053h-45.053v-45.053Zm47.363 0h45.053v45.053h-45.053v-45.053Zm47.364 0h45.053v45.053h-45.053v-45.053Zm47.363 0h45.053v45.053h-45.053v-45.053Zm47.364 0h45.052v45.053h-45.052v-45.053Zm47.362 0h45.05v45.053h-45.05v-45.053Zm47.36 0h45.06v45.053h-45.06v-45.053Zm47.37 0h45.05v45.053h-45.05v-45.053Zm47.36 0h45.06v45.053h-45.06v-45.053Zm47.37 0h45.05v45.053h-45.05v-45.053Z"
        />
        <path
          fill="#0b0b0b"
          d="M1257.03 488.999h46.21v46.208h-46.21v-46.208Z"
        />
        <path
          stroke="#0a0a0a"
          stroke-width="1.155"
          d="M1304.97 489.577h45.06v45.053h-45.06v-45.053Zm47.37 0h45.05v45.053h-45.05v-45.053Zm47.36 0h45.05v45.053h-45.05v-45.053Zm47.36 0h45.06v45.053h-45.06v-45.053Zm47.37 0h45.05v45.053h-45.05v-45.053Zm47.36 0h45.05v45.053h-45.05v-45.053Z"
        />
        <path fill="#0b0b0b" d="M1588.58 488.999h46.2v46.208h-46.2v-46.208Z" />
        <path
          stroke="#0a0a0a"
          stroke-width="1.155"
          d="M1636.52 489.577h45.05v45.053h-45.05v-45.053Zm47.36 0h45.05v45.053h-45.05v-45.053Zm47.36 0h45.06v45.053h-45.06v-45.053Zm47.37 0h45.05v45.053h-45.05v-45.053Zm47.36 0h45.05v45.053h-45.05v-45.053Zm47.37 0h45.05v45.053h-45.05v-45.053Zm47.36 0h45.05v45.053h-45.05v-45.053Z"
        />
        <path
          fill="#0b0b0b"
          d="M1967.48 488.999h46.21v46.208h-46.21v-46.208Z"
        />
        <path
          stroke="#0a0a0a"
          stroke-width="1.155"
          d="M2015.43 489.577h45.05v45.053h-45.05v-45.053Zm47.36 0h45.05v45.053h-45.05v-45.053Zm47.36 0h45.06v45.053h-45.06v-45.053ZM-21.206 536.94h45.053v45.053h-45.053V536.94Zm47.364 0H71.21v45.053H26.158V536.94Z"
        />
        <path
          fill="#0b0b0b"
          d="M72.943 536.362h46.209v46.209H72.943v-46.209Z"
        />
        <path
          stroke="#0a0a0a"
          stroke-width="1.155"
          d="M120.884 536.94h45.053v45.053h-45.053V536.94Zm47.364 0h45.053v45.053h-45.053V536.94Zm47.363 0h45.053v45.053h-45.053V536.94Zm47.364 0h45.053v45.053h-45.053V536.94Zm47.363 0h45.054v45.053h-45.054V536.94Zm47.364 0h45.053v45.053h-45.053V536.94Zm47.363 0h45.054v45.053h-45.054V536.94Zm47.364 0h45.053v45.053h-45.053V536.94Zm47.364 0h45.053v45.053h-45.053V536.94Zm47.363 0h45.053v45.053h-45.053V536.94Zm47.364 0h45.053v45.053H594.52V536.94Zm47.363 0h45.053v45.053h-45.053V536.94Zm47.364 0H734.3v45.053h-45.053V536.94Zm47.363 0h45.053v45.053H736.61V536.94Zm47.364 0h45.053v45.053h-45.053V536.94Zm47.363 0h45.054v45.053h-45.054V536.94Z"
        />
        <path
          fill="#0b0b0b"
          d="M878.124 536.362h46.208v46.209h-46.208v-46.209Z"
        />

        <path
          stroke="#0a0a0a"
          stroke-width="2.31"
          d="M925.487 536.362h46.208v46.209h-46.208v-46.209Zm47.364 0h46.209v46.209h-46.209v-46.209Zm47.359 0h46.21v46.209h-46.21v-46.209Zm47.37 0h46.21v46.209h-46.21v-46.209Zm47.36 0h46.21v46.209h-46.21v-46.209Zm47.36 0h46.21v46.209h-46.21v-46.209Zm47.37 0h46.21v46.209h-46.21v-46.209Zm47.36 0h46.21v46.209h-46.21v-46.209Zm47.37 0h46.2v46.209h-46.2v-46.209Zm47.36 0h46.21v46.209h-46.21v-46.209Zm47.36 0h46.21v46.209h-46.21v-46.209Zm47.37 0h46.2v46.209h-46.2v-46.209Zm47.36 0h46.21v46.209h-46.21v-46.209Zm47.36 0h46.21v46.209h-46.21v-46.209Zm47.37 0h46.21v46.209h-46.21v-46.209Zm47.36 0h46.21v46.209h-46.21v-46.209Zm47.36 0h46.21v46.209h-46.21v-46.209Zm47.37 0h46.21v46.209h-46.21v-46.209Zm47.36 0h46.21v46.209h-46.21v-46.209Zm47.36 0h46.21v46.209h-46.21v-46.209Zm47.37 0h46.21v46.209h-46.21v-46.209Zm47.36 0h46.21v46.209h-46.21v-46.209Zm47.37 0h46.2v46.209h-46.2v-46.209Zm47.36 0h46.21v46.209h-46.21v-46.209Zm47.36 0h46.21v46.209h-46.21v-46.209Zm47.37 0h46.2v46.209h-46.2v-46.209ZM-21.784 583.726h46.209v46.208h-46.209v-46.208Zm47.364 0h46.208v46.208H25.58v-46.208Zm47.363 0h46.209v46.208H72.943v-46.208Zm47.364 0h46.208v46.208h-46.208v-46.208Zm47.363 0h46.209v46.208H167.67v-46.208Zm47.364 0h46.208v46.208h-46.208v-46.208Zm47.364 0h46.208v46.208h-46.208v-46.208Zm47.363 0h46.208v46.208h-46.208v-46.208Zm47.364 0h46.208v46.208h-46.208v-46.208Zm47.363 0h46.209v46.208h-46.209v-46.208Zm47.364 0h46.208v46.208h-46.208v-46.208Zm47.363 0h46.209v46.208h-46.209v-46.208Zm47.364 0h46.208v46.208h-46.208v-46.208Zm47.363 0h46.209v46.208h-46.209v-46.208Zm47.364 0h46.208v46.208h-46.208v-46.208Zm47.363 0h46.209v46.208h-46.209v-46.208Zm47.364 0h46.208v46.208h-46.208v-46.208Zm47.364 0h46.208v46.208h-46.208v-46.208Zm47.363 0h46.208v46.208H830.76v-46.208Zm47.364 0h46.208v46.208h-46.208v-46.208Zm47.363 0h46.208v46.208h-46.208v-46.208Zm47.364 0h46.209v46.208h-46.209v-46.208Zm47.359 0h46.21v46.208h-46.21v-46.208Zm47.37 0h46.21v46.208h-46.21v-46.208Zm47.36 0h46.21v46.208h-46.21v-46.208Zm47.36 0h46.21v46.208h-46.21v-46.208Zm47.37 0h46.21v46.208h-46.21v-46.208Zm47.36 0h46.21v46.208h-46.21v-46.208Zm47.37 0h46.2v46.208h-46.2v-46.208Zm47.36 0h46.21v46.208h-46.21v-46.208Zm47.36 0h46.21v46.208h-46.21v-46.208Zm47.37 0h46.2v46.208h-46.2v-46.208Zm47.36 0h46.21v46.208h-46.21v-46.208Zm47.36 0h46.21v46.208h-46.21v-46.208Zm47.37 0h46.21v46.208h-46.21v-46.208Zm47.36 0h46.21v46.208h-46.21v-46.208Zm47.36 0h46.21v46.208h-46.21v-46.208Zm47.37 0h46.21v46.208h-46.21v-46.208Zm47.36 0h46.21v46.208h-46.21v-46.208Zm47.36 0h46.21v46.208h-46.21v-46.208Zm47.37 0h46.21v46.208h-46.21v-46.208Zm47.36 0h46.21v46.208h-46.21v-46.208Zm47.37 0h46.2v46.208h-46.2v-46.208Zm47.36 0h46.21v46.208h-46.21v-46.208Zm47.36 0h46.21v46.208h-46.21v-46.208Zm47.37 0h46.2v46.208h-46.2v-46.208ZM-21.784 631.089h46.209v46.209h-46.209v-46.209Zm47.364 0h46.208v46.209H25.58v-46.209Zm47.363 0h46.209v46.209H72.943v-46.209Zm47.364 0h46.208v46.209h-46.208v-46.209Zm47.363 0h46.209v46.209H167.67v-46.209Zm47.364 0h46.208v46.209h-46.208v-46.209Zm47.364 0h46.208v46.209h-46.208v-46.209Zm47.363 0h46.208v46.209h-46.208v-46.209Zm47.364 0h46.208v46.209h-46.208v-46.209Zm47.363 0h46.209v46.209h-46.209v-46.209Zm47.364 0h46.208v46.209h-46.208v-46.209Zm47.363 0h46.209v46.209h-46.209v-46.209Zm47.364 0h46.208v46.209h-46.208v-46.209Zm47.363 0h46.209v46.209h-46.209v-46.209Zm47.364 0h46.208v46.209h-46.208v-46.209Zm47.363 0h46.209v46.209h-46.209v-46.209Zm47.364 0h46.208v46.209h-46.208v-46.209Zm47.364 0h46.208v46.209h-46.208v-46.209Zm47.363 0h46.208v46.209H830.76v-46.209Zm47.364 0h46.208v46.209h-46.208v-46.209Zm47.363 0h46.208v46.209h-46.208v-46.209Zm47.364 0h46.209v46.209h-46.209v-46.209Zm47.359 0h46.21v46.209h-46.21v-46.209Zm47.37 0h46.21v46.209h-46.21v-46.209Zm47.36 0h46.21v46.209h-46.21v-46.209Zm47.36 0h46.21v46.209h-46.21v-46.209Zm47.37 0h46.21v46.209h-46.21v-46.209Zm47.36 0h46.21v46.209h-46.21v-46.209Zm47.37 0h46.2v46.209h-46.2v-46.209Zm47.36 0h46.21v46.209h-46.21v-46.209Zm47.36 0h46.21v46.209h-46.21v-46.209Zm47.37 0h46.2v46.209h-46.2v-46.209Zm47.36 0h46.21v46.209h-46.21v-46.209Zm47.36 0h46.21v46.209h-46.21v-46.209Zm47.37 0h46.21v46.209h-46.21v-46.209Zm47.36 0h46.21v46.209h-46.21v-46.209Zm47.36 0h46.21v46.209h-46.21v-46.209Zm47.37 0h46.21v46.209h-46.21v-46.209Zm47.36 0h46.21v46.209h-46.21v-46.209Zm47.36 0h46.21v46.209h-46.21v-46.209Zm47.37 0h46.21v46.209h-46.21v-46.209Zm47.36 0h46.21v46.209h-46.21v-46.209Zm47.37 0h46.2v46.209h-46.2v-46.209Zm47.36 0h46.21v46.209h-46.21v-46.209Zm47.36 0h46.21v46.209h-46.21v-46.209Zm47.37 0h46.2v46.209h-46.2v-46.209ZM-21.784 678.453h46.209v46.208h-46.209v-46.208Zm47.364 0h46.208v46.208H25.58v-46.208Zm47.363 0h46.209v46.208H72.943v-46.208Zm47.364 0h46.208v46.208h-46.208v-46.208Zm47.363 0h46.209v46.208H167.67v-46.208Zm47.364 0h46.208v46.208h-46.208v-46.208Zm47.364 0h46.208v46.208h-46.208v-46.208Zm47.363 0h46.208v46.208h-46.208v-46.208Zm47.364 0h46.208v46.208h-46.208v-46.208Zm47.363 0h46.209v46.208h-46.209v-46.208Zm47.364 0h46.208v46.208h-46.208v-46.208Zm47.363 0h46.209v46.208h-46.209v-46.208Zm47.364 0h46.208v46.208h-46.208v-46.208Zm47.363 0h46.209v46.208h-46.209v-46.208Zm47.364 0h46.208v46.208h-46.208v-46.208Zm47.363 0h46.209v46.208h-46.209v-46.208Zm47.364 0h46.208v46.208h-46.208v-46.208Zm47.364 0h46.208v46.208h-46.208v-46.208Zm47.363 0h46.208v46.208H830.76v-46.208Zm47.364 0h46.208v46.208h-46.208v-46.208Zm47.363 0h46.208v46.208h-46.208v-46.208Zm47.364 0h46.209v46.208h-46.209v-46.208Zm47.359 0h46.21v46.208h-46.21v-46.208Zm47.37 0h46.21v46.208h-46.21v-46.208Zm47.36 0h46.21v46.208h-46.21v-46.208Zm47.36 0h46.21v46.208h-46.21v-46.208Zm47.37 0h46.21v46.208h-46.21v-46.208Zm47.36 0h46.21v46.208h-46.21v-46.208Zm47.37 0h46.2v46.208h-46.2v-46.208Z"
        />
        <path
          fill="#0b0b0b"
          d="M1351.76 678.453h46.21v46.208h-46.21v-46.208Z"
        />
        <path
          stroke="#0a0a0a"
          stroke-width="1.155"
          d="M1399.7 679.031h45.05v45.053h-45.05v-45.053Zm47.36 0h45.06v45.053h-45.06v-45.053Zm47.37 0h45.05v45.053h-45.05v-45.053Zm47.36 0h45.05v45.053h-45.05v-45.053Zm47.36 0h45.06v45.053h-45.06v-45.053Zm47.37 0h45.05v45.053h-45.05v-45.053Zm47.36 0h45.05v45.053h-45.05v-45.053Zm47.36 0h45.06v45.053h-45.06v-45.053Zm47.37 0h45.05v45.053h-45.05v-45.053Zm47.36 0h45.06v45.053h-45.06v-45.053Zm47.37 0h45.05v45.053h-45.05v-45.053Zm47.36 0h45.05v45.053h-45.05v-45.053Zm47.36 0h45.06v45.053h-45.06v-45.053Zm47.37 0h45.05v45.053h-45.05v-45.053Zm47.36 0h45.05v45.053h-45.05v-45.053Zm47.36 0h45.06v45.053h-45.06v-45.053ZM-21.206 726.394h45.053v45.053h-45.053v-45.053Zm47.364 0H71.21v45.053H26.158v-45.053Zm47.363 0h45.053v45.053H73.521v-45.053Zm47.364 0h45.053v45.053h-45.053v-45.053Zm47.363 0h45.053v45.053h-45.053v-45.053Zm47.364 0h45.053v45.053h-45.053v-45.053Zm47.363 0h45.053v45.053h-45.053v-45.053Z"
        />
        <path
          fill="#0b0b0b"
          d="M309.761 725.817h46.208v46.208h-46.208v-46.208Z"
        />
        <path
          stroke="#0a0a0a"
          stroke-width="1.155"
          d="M357.702 726.394h45.053v45.053h-45.053v-45.053Zm47.364 0h45.053v45.053h-45.053v-45.053Zm47.363 0h45.053v45.053h-45.053v-45.053Zm47.364 0h45.053v45.053h-45.053v-45.053Zm47.363 0h45.053v45.053h-45.053v-45.053Zm47.364 0h45.053v45.053H594.52v-45.053Zm47.363 0h45.053v45.053h-45.053v-45.053Zm47.364 0H734.3v45.053h-45.053v-45.053Zm47.363 0h45.054v45.053H736.61v-45.053Z"
        />
        <path
          fill="#0b0b0b"
          d="M783.396 725.817h46.209v46.208h-46.209v-46.208Z"
        />

        <path
          stroke="#0a0a0a"
          stroke-width="2.31"
          d="M830.76 725.817h46.208v46.208H830.76v-46.208Zm47.364 0h46.208v46.208h-46.208v-46.208Zm47.363 0h46.208v46.208h-46.208v-46.208Zm47.364 0h46.209v46.208h-46.209v-46.208Zm47.359 0h46.21v46.208h-46.21v-46.208Zm47.37 0h46.21v46.208h-46.21v-46.208Zm47.36 0h46.21v46.208h-46.21v-46.208Zm47.36 0h46.21v46.208h-46.21v-46.208Zm47.37 0h46.21v46.208h-46.21v-46.208Zm47.36 0h46.21v46.208h-46.21v-46.208Zm47.37 0h46.2v46.208h-46.2v-46.208Zm47.36 0h46.21v46.208h-46.21v-46.208Zm47.36 0h46.21v46.208h-46.21v-46.208Zm47.37 0h46.2v46.208h-46.2v-46.208Zm47.36 0h46.21v46.208h-46.21v-46.208Zm47.36 0h46.21v46.208h-46.21v-46.208Zm47.37 0h46.21v46.208h-46.21v-46.208Zm47.36 0h46.21v46.208h-46.21v-46.208Zm47.36 0h46.21v46.208h-46.21v-46.208Zm47.37 0h46.21v46.208h-46.21v-46.208Zm47.36 0h46.21v46.208h-46.21v-46.208Zm47.36 0h46.21v46.208h-46.21v-46.208Zm47.37 0h46.21v46.208h-46.21v-46.208Zm47.36 0h46.21v46.208h-46.21v-46.208Zm47.37 0h46.2v46.208h-46.2v-46.208Zm47.36 0h46.21v46.208h-46.21v-46.208Zm47.36 0h46.21v46.208h-46.21v-46.208Zm47.37 0h46.2v46.208h-46.2v-46.208ZM-21.784 773.18h46.209v46.209h-46.209V773.18Zm47.364 0h46.208v46.209H25.58V773.18Zm47.363 0h46.209v46.209H72.943V773.18Zm47.364 0h46.208v46.209h-46.208V773.18Zm47.363 0h46.209v46.209H167.67V773.18Zm47.364 0h46.208v46.209h-46.208V773.18Zm47.364 0h46.208v46.209h-46.208V773.18Zm47.363 0h46.208v46.209h-46.208V773.18Zm47.364 0h46.208v46.209h-46.208V773.18Zm47.363 0h46.209v46.209h-46.209V773.18Zm47.364 0h46.208v46.209h-46.208V773.18Zm47.363 0h46.209v46.209h-46.209V773.18Zm47.364 0h46.208v46.209h-46.208V773.18Zm47.363 0h46.209v46.209h-46.209V773.18Zm47.364 0h46.208v46.209h-46.208V773.18Zm47.363 0h46.209v46.209h-46.209V773.18Zm47.364 0h46.208v46.209h-46.208V773.18Zm47.364 0h46.208v46.209h-46.208V773.18Zm47.363 0h46.208v46.209H830.76V773.18Zm47.364 0h46.208v46.209h-46.208V773.18Zm47.363 0h46.208v46.209h-46.208V773.18Zm47.364 0h46.209v46.209h-46.209V773.18Z"
        />
        <path fill="#0b0b0b" d="M1020.21 773.18h46.21v46.209h-46.21V773.18Z" />
        <path
          stroke="#0a0a0a"
          stroke-width="1.155"
          d="M1068.16 773.758h45.05v45.053h-45.05v-45.053Zm47.36 0h45.05v45.053h-45.05v-45.053Zm47.36 0h45.06v45.053h-45.06v-45.053Zm47.37 0h45.05v45.053h-45.05v-45.053Zm47.36 0h45.05v45.053h-45.05v-45.053Zm47.36 0h45.06v45.053h-45.06v-45.053Zm47.37 0h45.05v45.053h-45.05v-45.053Zm47.36 0h45.05v45.053h-45.05v-45.053Zm47.36 0h45.06v45.053h-45.06v-45.053Zm47.37 0h45.05v45.053h-45.05v-45.053Zm47.36 0h45.05v45.053h-45.05v-45.053Z"
        />
        <path fill="#0b0b0b" d="M1588.58 773.18h46.2v46.209h-46.2V773.18Z" />
        <path
          stroke="#0a0a0a"
          stroke-width="1.155"
          d="M1636.52 773.758h45.05v45.053h-45.05v-45.053Zm47.36 0h45.05v45.053h-45.05v-45.053Zm47.36 0h45.06v45.053h-45.06v-45.053Zm47.37 0h45.05v45.053h-45.05v-45.053Zm47.36 0h45.05v45.053h-45.05v-45.053Z"
        />
        <path fill="#0b0b0b" d="M1872.76 773.18h46.21v46.209h-46.21V773.18Z" />
        <path
          stroke="#0a0a0a"
          stroke-width="1.155"
          d="M1920.7 773.758h45.05v45.053h-45.05v-45.053Zm47.36 0h45.06v45.053h-45.06v-45.053Zm47.37 0h45.05v45.053h-45.05v-45.053Zm47.36 0h45.05v45.053h-45.05v-45.053Zm47.36 0h45.06v45.053h-45.06v-45.053ZM-21.206 821.121h45.053v45.053h-45.053v-45.053Zm47.364 0H71.21v45.053H26.158v-45.053Zm47.363 0h45.053v45.053H73.521v-45.053Zm47.364 0h45.053v45.053h-45.053v-45.053Zm47.363 0h45.053v45.053h-45.053v-45.053Zm47.364 0h45.053v45.053h-45.053v-45.053Zm47.363 0h45.053v45.053h-45.053v-45.053Zm47.364 0h45.053v45.053h-45.053v-45.053Zm47.363 0h45.053v45.053h-45.053v-45.053Zm47.364 0h45.053v45.053h-45.053v-45.053Zm47.363 0h45.053v45.053h-45.053v-45.053Zm47.364 0h45.053v45.053h-45.053v-45.053Zm47.363 0h45.054v45.053h-45.054v-45.053Z"
        />
        <path
          fill="#0b0b0b"
          d="M593.942 820.544h46.209v46.208h-46.209v-46.208Z"
        />

        <path
          stroke="#0a0a0a"
          stroke-width="2.31"
          d="M641.306 820.544h46.208v46.208h-46.208v-46.208Zm47.363 0h46.209v46.208h-46.209v-46.208Zm47.364 0h46.208v46.208h-46.208v-46.208Zm47.364 0h46.208v46.208h-46.208v-46.208Zm47.363 0h46.208v46.208H830.76v-46.208Zm47.364 0h46.208v46.208h-46.208v-46.208Zm47.363 0h46.208v46.208h-46.208v-46.208Zm47.364 0h46.209v46.208h-46.209v-46.208Zm47.359 0h46.21v46.208h-46.21v-46.208Zm47.37 0h46.21v46.208h-46.21v-46.208Zm47.36 0h46.21v46.208h-46.21v-46.208Zm47.36 0h46.21v46.208h-46.21v-46.208Zm47.37 0h46.21v46.208h-46.21v-46.208Zm47.36 0h46.21v46.208h-46.21v-46.208Zm47.37 0h46.2v46.208h-46.2v-46.208Zm47.36 0h46.21v46.208h-46.21v-46.208Zm47.36 0h46.21v46.208h-46.21v-46.208Zm47.37 0h46.2v46.208h-46.2v-46.208Zm47.36 0h46.21v46.208h-46.21v-46.208Zm47.36 0h46.21v46.208h-46.21v-46.208Zm47.37 0h46.21v46.208h-46.21v-46.208Zm47.36 0h46.21v46.208h-46.21v-46.208Zm47.36 0h46.21v46.208h-46.21v-46.208Zm47.37 0h46.21v46.208h-46.21v-46.208Zm47.36 0h46.21v46.208h-46.21v-46.208Zm47.36 0h46.21v46.208h-46.21v-46.208Zm47.37 0h46.21v46.208h-46.21v-46.208Zm47.36 0h46.21v46.208h-46.21v-46.208Zm47.37 0h46.2v46.208h-46.2v-46.208Zm47.36 0h46.21v46.208h-46.21v-46.208Zm47.36 0h46.21v46.208h-46.21v-46.208Zm47.37 0h46.2v46.208h-46.2v-46.208ZM-21.784 867.907h46.209v46.209h-46.209v-46.209Zm47.364 0h46.208v46.209H25.58v-46.209Z"
        />
        <path
          fill="#0b0b0b"
          d="M72.943 867.907h46.209v46.209H72.943v-46.209Z"
        />

        <path
          stroke="#0a0a0a"
          stroke-width="2.31"
          d="M120.307 867.907h46.208v46.209h-46.208v-46.209Zm47.363 0h46.209v46.209H167.67v-46.209Zm47.364 0h46.208v46.209h-46.208v-46.209Zm47.363 0h46.209v46.209h-46.209v-46.209Zm47.364 0h46.208v46.209h-46.208v-46.209Zm47.363 0h46.209v46.209h-46.209v-46.209Zm47.364 0h46.208v46.209h-46.208v-46.209Zm47.363 0h46.209v46.209h-46.209v-46.209Zm47.364 0h46.208v46.209h-46.208v-46.209Zm47.364 0h46.208v46.209h-46.208v-46.209Zm47.363 0h46.208v46.209h-46.208v-46.209Zm47.364 0h46.208v46.209h-46.208v-46.209Zm47.363 0h46.209v46.209h-46.209v-46.209Zm47.364 0h46.208v46.209h-46.208v-46.209Zm47.363 0h46.209v46.209h-46.209v-46.209Zm47.364 0h46.208v46.209H830.76v-46.209Zm47.363 0h46.209v46.209h-46.209v-46.209Zm47.364 0h46.208v46.209h-46.208v-46.209Zm47.363 0h46.21v46.209h-46.21v-46.209Zm47.36 0h46.21v46.209h-46.21v-46.209Zm47.37 0h46.21v46.209h-46.21v-46.209Zm47.36 0h46.21v46.209h-46.21v-46.209Zm47.36 0h46.21v46.209h-46.21v-46.209Zm47.37 0h46.21v46.209h-46.21v-46.209Zm47.36 0h46.21v46.209h-46.21v-46.209Zm47.37 0h46.2v46.209h-46.2v-46.209Zm47.36 0h46.21v46.209h-46.21v-46.209Zm47.36 0h46.21v46.209h-46.21v-46.209Zm47.37 0h46.2v46.209h-46.2v-46.209Z"
        />
        <path
          fill="#0b0b0b"
          d="M1493.85 867.907h46.21v46.209h-46.21v-46.209Z"
        />

        <path
          stroke="#0a0a0a"
          stroke-width="2.31"
          d="M1541.21 867.907h46.21v46.209h-46.21v-46.209Zm47.37 0h46.21v46.209h-46.21v-46.209Zm47.36 0h46.21v46.209h-46.21v-46.209Zm47.36 0h46.21v46.209h-46.21v-46.209Zm47.37 0h46.21v46.209h-46.21v-46.209Zm47.36 0h46.21v46.209h-46.21v-46.209Zm47.36 0h46.21v46.209h-46.21v-46.209Zm47.37 0h46.21v46.209h-46.21v-46.209Zm47.36 0h46.21v46.209h-46.21v-46.209Zm47.37 0h46.2v46.209h-46.2v-46.209Zm47.36 0h46.21v46.209h-46.21v-46.209Zm47.36 0h46.21v46.209h-46.21v-46.209Zm47.37 0h46.2v46.209h-46.2v-46.209ZM-21.784 915.271h46.209v46.208h-46.209v-46.208Zm47.364 0h46.208v46.208H25.58v-46.208Zm47.363 0h46.209v46.208H72.943v-46.208Zm47.364 0h46.208v46.208h-46.208v-46.208Zm47.363 0h46.209v46.208H167.67v-46.208Zm47.364 0h46.208v46.208h-46.208v-46.208Zm47.364 0h46.208v46.208h-46.208v-46.208Zm47.363 0h46.208v46.208h-46.208v-46.208Zm47.364 0h46.208v46.208h-46.208v-46.208Zm47.363 0h46.209v46.208h-46.209v-46.208Zm47.364 0h46.208v46.208h-46.208v-46.208Zm47.363 0h46.209v46.208h-46.209v-46.208Zm47.364 0h46.208v46.208h-46.208v-46.208Zm47.363 0h46.209v46.208h-46.209v-46.208Zm47.364 0h46.208v46.208h-46.208v-46.208Zm47.363 0h46.209v46.208h-46.209v-46.208Zm47.364 0h46.208v46.208h-46.208v-46.208Zm47.364 0h46.208v46.208h-46.208v-46.208Zm47.363 0h46.208v46.208H830.76v-46.208Zm47.364 0h46.208v46.208h-46.208v-46.208Zm47.363 0h46.208v46.208h-46.208v-46.208Zm47.364 0h46.209v46.208h-46.209v-46.208Zm47.359 0h46.21v46.208h-46.21v-46.208Zm47.37 0h46.21v46.208h-46.21v-46.208Zm47.36 0h46.21v46.208h-46.21v-46.208Zm47.36 0h46.21v46.208h-46.21v-46.208Zm47.37 0h46.21v46.208h-46.21v-46.208Zm47.36 0h46.21v46.208h-46.21v-46.208Zm47.37 0h46.2v46.208h-46.2v-46.208Zm47.36 0h46.21v46.208h-46.21v-46.208Zm47.36 0h46.21v46.208h-46.21v-46.208Zm47.37 0h46.2v46.208h-46.2v-46.208Zm47.36 0h46.21v46.208h-46.21v-46.208Zm47.36 0h46.21v46.208h-46.21v-46.208Zm47.37 0h46.21v46.208h-46.21v-46.208Zm47.36 0h46.21v46.208h-46.21v-46.208Zm47.36 0h46.21v46.208h-46.21v-46.208Zm47.37 0h46.21v46.208h-46.21v-46.208Zm47.36 0h46.21v46.208h-46.21v-46.208Zm47.36 0h46.21v46.208h-46.21v-46.208Zm47.37 0h46.21v46.208h-46.21v-46.208Zm47.36 0h46.21v46.208h-46.21v-46.208Zm47.37 0h46.2v46.208h-46.2v-46.208Zm47.36 0h46.21v46.208h-46.21v-46.208Zm47.36 0h46.21v46.208h-46.21v-46.208Zm47.37 0h46.2v46.208h-46.2v-46.208ZM-21.784 962.634h46.209v46.206h-46.209v-46.206Zm47.364 0h46.208v46.206H25.58v-46.206Zm47.363 0h46.209v46.206H72.943v-46.206Zm47.364 0h46.208v46.206h-46.208v-46.206Zm47.363 0h46.209v46.206H167.67v-46.206Z"
        />
        <path
          fill="#0b0b0b"
          d="M215.034 962.634h46.208v46.206h-46.208v-46.206Z"
        />

        <path
          stroke="#0a0a0a"
          stroke-width="2.31"
          d="M262.398 962.634h46.208v46.206h-46.208v-46.206Zm47.363 0h46.208v46.206h-46.208v-46.206Zm47.364 0h46.208v46.206h-46.208v-46.206Zm47.363 0h46.209v46.206h-46.209v-46.206Zm47.364 0h46.208v46.206h-46.208v-46.206Zm47.363 0h46.209v46.206h-46.209v-46.206Zm47.364 0h46.208v46.206h-46.208v-46.206Zm47.363 0h46.209v46.206h-46.209v-46.206Zm47.364 0h46.208v46.206h-46.208v-46.206Zm47.363 0h46.209v46.206h-46.209v-46.206Zm47.364 0h46.208v46.206h-46.208v-46.206Zm47.364 0h46.208v46.206h-46.208v-46.206Zm47.363 0h46.208v46.206H830.76v-46.206Zm47.364 0h46.208v46.206h-46.208v-46.206Zm47.363 0h46.208v46.206h-46.208v-46.206Zm47.364 0h46.209v46.206h-46.209v-46.206Zm47.359 0h46.21v46.206h-46.21v-46.206Zm47.37 0h46.21v46.206h-46.21v-46.206Zm47.36 0h46.21v46.206h-46.21v-46.206Zm47.36 0h46.21v46.206h-46.21v-46.206Zm47.37 0h46.21v46.206h-46.21v-46.206Zm47.36 0h46.21v46.206h-46.21v-46.206Zm47.37 0h46.2v46.206h-46.2v-46.206Zm47.36 0h46.21v46.206h-46.21v-46.206Zm47.36 0h46.21v46.206h-46.21v-46.206Zm47.37 0h46.2v46.206h-46.2v-46.206Zm47.36 0h46.21v46.206h-46.21v-46.206Zm47.36 0h46.21v46.206h-46.21v-46.206Zm47.37 0h46.21v46.206h-46.21v-46.206Zm47.36 0h46.21v46.206h-46.21v-46.206Zm47.36 0h46.21v46.206h-46.21v-46.206Zm47.37 0h46.21v46.206h-46.21v-46.206Zm47.36 0h46.21v46.206h-46.21v-46.206Zm47.36 0h46.21v46.206h-46.21v-46.206Zm47.37 0h46.21v46.206h-46.21v-46.206Zm47.36 0h46.21v46.206h-46.21v-46.206Zm47.37 0h46.2v46.206h-46.2v-46.206Zm47.36 0h46.21v46.206h-46.21v-46.206Zm47.36 0h46.21v46.206h-46.21v-46.206Zm47.37 0h46.2v46.206h-46.2v-46.206ZM-21.784 1010h46.209v46.21h-46.209V1010Zm47.364 0h46.208v46.21H25.58V1010Zm47.363 0h46.209v46.21H72.943V1010Zm47.364 0h46.208v46.21h-46.208V1010Zm47.363 0h46.209v46.21H167.67V1010Zm47.364 0h46.208v46.21h-46.208V1010Zm47.364 0h46.208v46.21h-46.208V1010Zm47.363 0h46.208v46.21h-46.208V1010Zm47.364 0h46.208v46.21h-46.208V1010Zm47.363 0h46.209v46.21h-46.209V1010Zm47.364 0h46.208v46.21h-46.208V1010Zm47.363 0h46.209v46.21h-46.209V1010Zm47.364 0h46.208v46.21h-46.208V1010Zm47.363 0h46.209v46.21h-46.209V1010Zm47.364 0h46.208v46.21h-46.208V1010Z"
        />
        <path fill="#0b0b0b" d="M688.669 1010h46.209v46.21h-46.209V1010Z" />
        <path
          stroke="#0a0a0a"
          stroke-width="1.155"
          d="M736.61 1010.58h45.053v45.05H736.61v-45.05Zm47.364 0h45.053v45.05h-45.053v-45.05Zm47.363 0h45.054v45.05h-45.054v-45.05Zm47.364 0h45.053v45.05h-45.053v-45.05Zm47.363 0h45.054v45.05h-45.054v-45.05Zm47.364 0h45.052v45.05h-45.052v-45.05Zm47.362 0h45.05v45.05h-45.05v-45.05Zm47.37 0h45.05v45.05h-45.05v-45.05Zm47.36 0h45.05v45.05h-45.05v-45.05Zm47.36 0h45.06v45.05h-45.06v-45.05Z"
        />
        <path fill="#0b0b0b" d="M1209.67 1010h46.21v46.21h-46.21V1010Z" />

        <path
          stroke="#0a0a0a"
          stroke-width="2.31"
          d="M1257.03 1010h46.21v46.21h-46.21V1010Zm47.37 0h46.2v46.21h-46.2V1010Zm47.36 0h46.21v46.21h-46.21V1010Zm47.36 0h46.21v46.21h-46.21V1010Zm47.37 0h46.2v46.21h-46.2V1010Zm47.36 0h46.21v46.21h-46.21V1010Zm47.36 0h46.21v46.21h-46.21V1010Zm47.37 0h46.21v46.21h-46.21V1010Zm47.36 0h46.21v46.21h-46.21V1010Zm47.36 0h46.21v46.21h-46.21V1010Zm47.37 0h46.21v46.21h-46.21V1010Zm47.36 0h46.21v46.21h-46.21V1010Zm47.36 0h46.21v46.21h-46.21V1010Zm47.37 0h46.21v46.21h-46.21V1010Zm47.36 0h46.21v46.21h-46.21V1010Zm47.37 0h46.2v46.21h-46.2V1010Zm47.36 0h46.21v46.21h-46.21V1010Zm47.36 0h46.21v46.21h-46.21V1010Zm47.37 0h46.2v46.21h-46.2V1010Zm-2131.364 47.36h46.209v46.21h-46.209v-46.21Zm47.364 0h46.208v46.21H25.58v-46.21Zm47.363 0h46.209v46.21H72.943v-46.21Zm47.364 0h46.208v46.21h-46.208v-46.21Zm47.363 0h46.209v46.21H167.67v-46.21Zm47.364 0h46.208v46.21h-46.208v-46.21Zm47.364 0h46.208v46.21h-46.208v-46.21Zm47.363 0h46.208v46.21h-46.208v-46.21Zm47.364 0h46.208v46.21h-46.208v-46.21Zm47.363 0h46.209v46.21h-46.209v-46.21Z"
        />
        <path
          fill="#0b0b0b"
          d="M451.852 1057.36h46.208v46.21h-46.208v-46.21Z"
        />

        <path
          stroke="#0a0a0a"
          stroke-width="2.31"
          d="M499.215 1057.36h46.208v46.21h-46.208v-46.21Zm47.363 0h46.209v46.21h-46.209v-46.21Zm47.364 0h46.208v46.21h-46.208v-46.21Zm47.363 0h46.209v46.21h-46.209v-46.21Zm47.364 0h46.208v46.21h-46.208v-46.21Zm47.364 0h46.208v46.21h-46.208v-46.21Zm47.363 0h46.208v46.21h-46.208v-46.21Zm47.364 0h46.208v46.21H830.76v-46.21Zm47.363 0h46.209v46.21h-46.209v-46.21Zm47.364 0h46.208v46.21h-46.208v-46.21Zm47.363 0h46.21v46.21h-46.21v-46.21Zm47.36 0h46.21v46.21h-46.21v-46.21Zm47.37 0h46.21v46.21h-46.21v-46.21Zm47.36 0h46.21v46.21h-46.21v-46.21Zm47.36 0h46.21v46.21h-46.21v-46.21Zm47.37 0h46.21v46.21h-46.21v-46.21Zm47.36 0h46.21v46.21h-46.21v-46.21Zm47.37 0h46.2v46.21h-46.2v-46.21Zm47.36 0h46.21v46.21h-46.21v-46.21Zm47.36 0h46.21v46.21h-46.21v-46.21Zm47.37 0h46.2v46.21h-46.2v-46.21Zm47.36 0h46.21v46.21h-46.21v-46.21Zm47.36 0h46.21v46.21h-46.21v-46.21Zm47.37 0h46.2v46.21h-46.2v-46.21Zm47.36 0h46.21v46.21h-46.21v-46.21Zm47.36 0h46.21v46.21h-46.21v-46.21Zm47.37 0h46.21v46.21h-46.21v-46.21Z"
        />
        <path fill="#0b0b0b" d="M1778.03 1057.36h46.21v46.21h-46.21v-46.21Z" />

        <path
          stroke="#0a0a0a"
          stroke-width="2.31"
          d="M1825.39 1057.36h46.21v46.21h-46.21v-46.21Zm47.37 0h46.21v46.21h-46.21v-46.21Zm47.36 0h46.21v46.21h-46.21v-46.21Zm47.37 0h46.2v46.21h-46.2v-46.21Zm47.36 0h46.21v46.21h-46.21v-46.21Zm47.36 0h46.21v46.21h-46.21v-46.21Zm47.37 0h46.2v46.21h-46.2v-46.21Zm-2131.364 47.36h46.209v46.21h-46.209v-46.21Zm47.364 0h46.208v46.21H25.58v-46.21Zm47.363 0h46.209v46.21H72.943v-46.21Zm47.364 0h46.208v46.21h-46.208v-46.21Zm47.363 0h46.209v46.21H167.67v-46.21Zm47.364 0h46.208v46.21h-46.208v-46.21Zm47.364 0h46.208v46.21h-46.208v-46.21Zm47.363 0h46.208v46.21h-46.208v-46.21Zm47.364 0h46.208v46.21h-46.208v-46.21Zm47.363 0h46.209v46.21h-46.209v-46.21Zm47.364 0h46.208v46.21h-46.208v-46.21Zm47.363 0h46.209v46.21h-46.209v-46.21Zm47.364 0h46.208v46.21h-46.208v-46.21Zm47.363 0h46.209v46.21h-46.209v-46.21Zm47.364 0h46.208v46.21h-46.208v-46.21Zm47.363 0h46.209v46.21h-46.209v-46.21Zm47.364 0h46.208v46.21h-46.208v-46.21Zm47.364 0h46.208v46.21h-46.208v-46.21Zm47.363 0h46.208v46.21H830.76v-46.21Zm47.364 0h46.208v46.21h-46.208v-46.21Zm47.363 0h46.208v46.21h-46.208v-46.21Zm47.364 0h46.209v46.21h-46.209v-46.21Z"
        />
        <path fill="#0b0b0b" d="M1020.21 1104.73h46.21v46.2h-46.21v-46.2Z" />
        <path
          stroke="#0a0a0a"
          stroke-width="1.155"
          d="M1068.16 1105.3h45.05v45.06h-45.05v-45.06Zm47.36 0h45.05v45.06h-45.05v-45.06Zm47.36 0h45.06v45.06h-45.06v-45.06Zm47.37 0h45.05v45.06h-45.05v-45.06Zm47.36 0h45.05v45.06h-45.05v-45.06Zm47.36 0h45.06v45.06h-45.06v-45.06Zm47.37 0h45.05v45.06h-45.05v-45.06Zm47.36 0h45.05v45.06h-45.05v-45.06Zm47.36 0h45.06v45.06h-45.06v-45.06Zm47.37 0h45.05v45.06h-45.05v-45.06Zm47.36 0h45.05v45.06h-45.05v-45.06Zm47.36 0h45.06v45.06h-45.06v-45.06Zm47.37 0h45.05v45.06h-45.05v-45.06Zm47.36 0h45.05v45.06h-45.05v-45.06Zm47.36 0h45.06v45.06h-45.06v-45.06Zm47.37 0h45.05v45.06h-45.05v-45.06Zm47.36 0h45.06v45.06h-45.06v-45.06Zm47.37 0h45.05v45.06h-45.05v-45.06Zm47.36 0h45.05v45.06h-45.05v-45.06Zm47.36 0h45.06v45.06h-45.06v-45.06Z"
        />
        <path fill="#0b0b0b" d="M2014.85 1104.73h46.21v46.2h-46.21v-46.2Z" />

        <path
          stroke="#0a0a0a"
          stroke-width="2.31"
          d="M2062.21 1104.73h46.21v46.2h-46.21v-46.2Zm47.37 0h46.2v46.2h-46.2v-46.2Zm-2131.364 47.36h46.209v46.21h-46.209v-46.21Zm47.364 0h46.208v46.21H25.58v-46.21Zm47.363 0h46.209v46.21H72.943v-46.21Zm47.364 0h46.208v46.21h-46.208v-46.21Zm47.363 0h46.209v46.21H167.67v-46.21Zm47.364 0h46.208v46.21h-46.208v-46.21Zm47.364 0h46.208v46.21h-46.208v-46.21Zm47.363 0h46.208v46.21h-46.208v-46.21Zm47.364 0h46.208v46.21h-46.208v-46.21Zm47.363 0h46.209v46.21h-46.209v-46.21Zm47.364 0h46.208v46.21h-46.208v-46.21Zm47.363 0h46.209v46.21h-46.209v-46.21Zm47.364 0h46.208v46.21h-46.208v-46.21Zm47.363 0h46.209v46.21h-46.209v-46.21Zm47.364 0h46.208v46.21h-46.208v-46.21Zm47.363 0h46.209v46.21h-46.209v-46.21Zm47.364 0h46.208v46.21h-46.208v-46.21Zm47.364 0h46.208v46.21h-46.208v-46.21Zm47.363 0h46.208v46.21H830.76v-46.21Zm47.364 0h46.208v46.21h-46.208v-46.21Zm47.363 0h46.208v46.21h-46.208v-46.21Zm47.364 0h46.209v46.21h-46.209v-46.21Zm47.359 0h46.21v46.21h-46.21v-46.21Zm47.37 0h46.21v46.21h-46.21v-46.21Zm47.36 0h46.21v46.21h-46.21v-46.21Zm47.36 0h46.21v46.21h-46.21v-46.21Zm47.37 0h46.21v46.21h-46.21v-46.21Zm47.36 0h46.21v46.21h-46.21v-46.21Zm47.37 0h46.2v46.21h-46.2v-46.21Zm47.36 0h46.21v46.21h-46.21v-46.21Zm47.36 0h46.21v46.21h-46.21v-46.21Zm47.37 0h46.2v46.21h-46.2v-46.21Zm47.36 0h46.21v46.21h-46.21v-46.21Zm47.36 0h46.21v46.21h-46.21v-46.21Zm47.37 0h46.21v46.21h-46.21v-46.21Z"
        />
        <path fill="#0b0b0b" d="M1635.94 1152.09h46.21v46.21h-46.21v-46.21Z" />

        <path
          stroke="#0a0a0a"
          stroke-width="2.31"
          d="M1683.3 1152.09h46.21v46.21h-46.21v-46.21Zm47.37 0h46.21v46.21h-46.21v-46.21Zm47.36 0h46.21v46.21h-46.21v-46.21Zm47.36 0h46.21v46.21h-46.21v-46.21Zm47.37 0h46.21v46.21h-46.21v-46.21Zm47.36 0h46.21v46.21h-46.21v-46.21Zm47.37 0h46.2v46.21h-46.2v-46.21Zm47.36 0h46.21v46.21h-46.21v-46.21Zm47.36 0h46.21v46.21h-46.21v-46.21Zm47.37 0h46.2v46.21h-46.2v-46.21Zm-2131.364 47.36h46.209v46.21h-46.209v-46.21Zm47.364 0h46.208v46.21H25.58v-46.21Zm47.363 0h46.209v46.21H72.943v-46.21Zm47.364 0h46.208v46.21h-46.208v-46.21Zm47.363 0h46.209v46.21H167.67v-46.21Zm47.364 0h46.208v46.21h-46.208v-46.21Zm47.364 0h46.208v46.21h-46.208v-46.21Zm47.363 0h46.208v46.21h-46.208v-46.21Zm47.364 0h46.208v46.21h-46.208v-46.21Zm47.363 0h46.209v46.21h-46.209v-46.21Zm47.364 0h46.208v46.21h-46.208v-46.21Zm47.363 0h46.209v46.21h-46.209v-46.21Zm47.364 0h46.208v46.21h-46.208v-46.21Zm47.363 0h46.209v46.21h-46.209v-46.21Zm47.364 0h46.208v46.21h-46.208v-46.21Zm47.363 0h46.209v46.21h-46.209v-46.21Zm47.364 0h46.208v46.21h-46.208v-46.21Zm47.364 0h46.208v46.21h-46.208v-46.21Zm47.363 0h46.208v46.21H830.76v-46.21Zm47.364 0h46.208v46.21h-46.208v-46.21Zm47.363 0h46.208v46.21h-46.208v-46.21Zm47.364 0h46.209v46.21h-46.209v-46.21Zm47.359 0h46.21v46.21h-46.21v-46.21Zm47.37 0h46.21v46.21h-46.21v-46.21Zm47.36 0h46.21v46.21h-46.21v-46.21Zm47.36 0h46.21v46.21h-46.21v-46.21Zm47.37 0h46.21v46.21h-46.21v-46.21Zm47.36 0h46.21v46.21h-46.21v-46.21Zm47.37 0h46.2v46.21h-46.2v-46.21Zm47.36 0h46.21v46.21h-46.21v-46.21Zm47.36 0h46.21v46.21h-46.21v-46.21Zm47.37 0h46.2v46.21h-46.2v-46.21Zm47.36 0h46.21v46.21h-46.21v-46.21Zm47.36 0h46.21v46.21h-46.21v-46.21Zm47.37 0h46.21v46.21h-46.21v-46.21Zm47.36 0h46.21v46.21h-46.21v-46.21Zm47.36 0h46.21v46.21h-46.21v-46.21Zm47.37 0h46.21v46.21h-46.21v-46.21Zm47.36 0h46.21v46.21h-46.21v-46.21Zm47.36 0h46.21v46.21h-46.21v-46.21Zm47.37 0h46.21v46.21h-46.21v-46.21Zm47.36 0h46.21v46.21h-46.21v-46.21Zm47.37 0h46.2v46.21h-46.2v-46.21Zm47.36 0h46.21v46.21h-46.21v-46.21Zm47.36 0h46.21v46.21h-46.21v-46.21Zm47.37 0h46.2v46.21h-46.2v-46.21Zm-2131.364 47.37h46.209v46.2h-46.209v-46.2Zm47.364 0h46.208v46.2H25.58v-46.2Zm47.363 0h46.209v46.2H72.943v-46.2Z"
        />
        <path fill="#0b0b0b" d="M120.307 1246.82h46.208v46.2h-46.208v-46.2Z" />
        <path
          stroke="#0a0a0a"
          stroke-width="1.155"
          d="M168.248 1247.39h45.053v45.06h-45.053v-45.06Zm47.364 0h45.053v45.06h-45.053v-45.06Zm47.363 0h45.053v45.06h-45.053v-45.06Zm47.364 0h45.053v45.06h-45.053v-45.06Zm47.363 0h45.053v45.06h-45.053v-45.06Zm47.364 0h45.053v45.06h-45.053v-45.06Zm47.363 0h45.053v45.06h-45.053v-45.06Zm47.364 0h45.053v45.06h-45.053v-45.06Zm47.363 0h45.053v45.06h-45.053v-45.06Zm47.364 0h45.053v45.06H594.52v-45.06Zm47.363 0h45.054v45.06h-45.054v-45.06Z"
        />
        <path fill="#0b0b0b" d="M688.669 1246.82h46.209v46.2h-46.209v-46.2Z" />
        <path
          stroke="#0a0a0a"
          stroke-width="1.155"
          d="M736.61 1247.39h45.053v45.06H736.61v-45.06Zm47.364 0h45.053v45.06h-45.053v-45.06Zm47.363 0h45.054v45.06h-45.054v-45.06Zm47.364 0h45.053v45.06h-45.053v-45.06Zm47.363 0h45.054v45.06h-45.054v-45.06Zm47.364 0h45.052v45.06h-45.052v-45.06Zm47.362 0h45.05v45.06h-45.05v-45.06Zm47.37 0h45.05v45.06h-45.05v-45.06Zm47.36 0h45.05v45.06h-45.05v-45.06Z"
        />
        <path fill="#0b0b0b" d="M1162.3 1246.82h46.21v46.2h-46.21v-46.2Z" />

        <path
          stroke="#0a0a0a"
          stroke-width="2.31"
          d="M1209.67 1246.82h46.21v46.2h-46.21v-46.2Zm47.36 0h46.21v46.2h-46.21v-46.2Zm47.37 0h46.2v46.2h-46.2v-46.2Zm47.36 0h46.21v46.2h-46.21v-46.2Zm47.36 0h46.21v46.2h-46.21v-46.2Zm47.37 0h46.2v46.2h-46.2v-46.2Zm47.36 0h46.21v46.2h-46.21v-46.2Zm47.36 0h46.21v46.2h-46.21v-46.2Zm47.37 0h46.21v46.2h-46.21v-46.2Zm47.36 0h46.21v46.2h-46.21v-46.2Zm47.36 0h46.21v46.2h-46.21v-46.2Zm47.37 0h46.21v46.2h-46.21v-46.2Zm47.36 0h46.21v46.2h-46.21v-46.2Zm47.36 0h46.21v46.2h-46.21v-46.2Zm47.37 0h46.21v46.2h-46.21v-46.2Zm47.36 0h46.21v46.2h-46.21v-46.2Zm47.37 0h46.2v46.2h-46.2v-46.2Zm47.36 0h46.21v46.2h-46.21v-46.2Zm47.36 0h46.21v46.2h-46.21v-46.2Zm47.37 0h46.2v46.2h-46.2v-46.2Zm-2131.364 47.36h46.209v46.21h-46.209v-46.21Zm47.364 0h46.208v46.21H25.58v-46.21Zm47.363 0h46.209v46.21H72.943v-46.21Zm47.364 0h46.208v46.21h-46.208v-46.21Zm47.363 0h46.209v46.21H167.67v-46.21Zm47.364 0h46.208v46.21h-46.208v-46.21Zm47.364 0h46.208v46.21h-46.208v-46.21Zm47.363 0h46.208v46.21h-46.208v-46.21Zm47.364 0h46.208v46.21h-46.208v-46.21Z"
        />
        <path
          fill="#0b0b0b"
          d="M404.488 1294.18h46.208v46.21h-46.208v-46.21Z"
        />
        <path
          stroke="#0a0a0a"
          stroke-width="1.155"
          d="M452.429 1294.76h45.053v45.05h-45.053v-45.05Zm47.364 0h45.053v45.05h-45.053v-45.05Zm47.363 0h45.053v45.05h-45.053v-45.05Zm47.364 0h45.053v45.05H594.52v-45.05Zm47.363 0h45.053v45.05h-45.053v-45.05Zm47.364 0H734.3v45.05h-45.053v-45.05Zm47.363 0h45.054v45.05H736.61v-45.05Zm47.364 0h45.053v45.05h-45.053v-45.05Zm47.363 0h45.054v45.05h-45.054v-45.05Zm47.364 0h45.053v45.05h-45.053v-45.05Zm47.364 0h45.053v45.05h-45.053v-45.05Zm47.363 0h45.052v45.05h-45.052v-45.05Zm47.362 0h45.05v45.05h-45.05v-45.05Zm47.37 0h45.05v45.05h-45.05v-45.05Zm47.36 0h45.05v45.05h-45.05v-45.05Zm47.36 0h45.06v45.05h-45.06v-45.05Zm47.37 0h45.05v45.05h-45.05v-45.05Zm47.36 0h45.05v45.05h-45.05v-45.05Zm47.36 0h45.06v45.05h-45.06v-45.05Zm47.37 0h45.05v45.05h-45.05v-45.05Z"
        />
        <path fill="#0b0b0b" d="M1399.12 1294.18h46.21v46.21h-46.21v-46.21Z" />

        <path
          stroke="#0a0a0a"
          stroke-width="2.31"
          d="M1446.49 1294.18h46.2v46.21h-46.2v-46.21Zm47.36 0h46.21v46.21h-46.21v-46.21Zm47.36 0h46.21v46.21h-46.21v-46.21Zm47.37 0h46.21v46.21h-46.21v-46.21Zm47.36 0h46.21v46.21h-46.21v-46.21Zm47.36 0h46.21v46.21h-46.21v-46.21Zm47.37 0h46.21v46.21h-46.21v-46.21Zm47.36 0h46.21v46.21h-46.21v-46.21Zm47.36 0h46.21v46.21h-46.21v-46.21Zm47.37 0h46.21v46.21h-46.21v-46.21Zm47.36 0h46.21v46.21h-46.21v-46.21Zm47.37 0h46.2v46.21h-46.2v-46.21Zm47.36 0h46.21v46.21h-46.21v-46.21Zm47.36 0h46.21v46.21h-46.21v-46.21Zm47.37 0h46.2v46.21h-46.2v-46.21Zm-2131.364 47.36h46.209v46.21h-46.209v-46.21Zm47.364 0h46.208v46.21H25.58v-46.21Zm47.363 0h46.209v46.21H72.943v-46.21Zm47.364 0h46.208v46.21h-46.208v-46.21Zm47.363 0h46.209v46.21H167.67v-46.21Zm47.364 0h46.208v46.21h-46.208v-46.21Zm47.364 0h46.208v46.21h-46.208v-46.21Zm47.363 0h46.208v46.21h-46.208v-46.21Zm47.364 0h46.208v46.21h-46.208v-46.21Zm47.363 0h46.209v46.21h-46.209v-46.21Zm47.364 0h46.208v46.21h-46.208v-46.21Zm47.363 0h46.209v46.21h-46.209v-46.21Zm47.364 0h46.208v46.21h-46.208v-46.21Zm47.363 0h46.209v46.21h-46.209v-46.21Zm47.364 0h46.208v46.21h-46.208v-46.21Zm47.363 0h46.209v46.21h-46.209v-46.21Zm47.364 0h46.208v46.21h-46.208v-46.21Zm47.364 0h46.208v46.21h-46.208v-46.21Zm47.363 0h46.208v46.21H830.76v-46.21Zm47.364 0h46.208v46.21h-46.208v-46.21Zm47.363 0h46.208v46.21h-46.208v-46.21Zm47.364 0h46.209v46.21h-46.209v-46.21Zm47.359 0h46.21v46.21h-46.21v-46.21Zm47.37 0h46.21v46.21h-46.21v-46.21Zm47.36 0h46.21v46.21h-46.21v-46.21Zm47.36 0h46.21v46.21h-46.21v-46.21Zm47.37 0h46.21v46.21h-46.21v-46.21Zm47.36 0h46.21v46.21h-46.21v-46.21Zm47.37 0h46.2v46.21h-46.2v-46.21Zm47.36 0h46.21v46.21h-46.21v-46.21Zm47.36 0h46.21v46.21h-46.21v-46.21Zm47.37 0h46.2v46.21h-46.2v-46.21Zm47.36 0h46.21v46.21h-46.21v-46.21Zm47.36 0h46.21v46.21h-46.21v-46.21Zm47.37 0h46.21v46.21h-46.21v-46.21Zm47.36 0h46.21v46.21h-46.21v-46.21Zm47.36 0h46.21v46.21h-46.21v-46.21Zm47.37 0h46.21v46.21h-46.21v-46.21Zm47.36 0h46.21v46.21h-46.21v-46.21Zm47.36 0h46.21v46.21h-46.21v-46.21Zm47.37 0h46.21v46.21h-46.21v-46.21Zm47.36 0h46.21v46.21h-46.21v-46.21Zm47.37 0h46.2v46.21h-46.2v-46.21Zm47.36 0h46.21v46.21h-46.21v-46.21Zm47.36 0h46.21v46.21h-46.21v-46.21Zm47.37 0h46.2v46.21h-46.2v-46.21Zm-2131.364 47.37h46.209v46.2h-46.209v-46.2Zm47.364 0h46.208v46.2H25.58v-46.2Zm47.363 0h46.209v46.2H72.943v-46.2Zm47.364 0h46.208v46.2h-46.208v-46.2Zm47.363 0h46.209v46.2H167.67v-46.2Zm47.364 0h46.208v46.2h-46.208v-46.2Zm47.364 0h46.208v46.2h-46.208v-46.2Zm47.363 0h46.208v46.2h-46.208v-46.2Zm47.364 0h46.208v46.2h-46.208v-46.2Zm47.363 0h46.209v46.2h-46.209v-46.2Zm47.364 0h46.208v46.2h-46.208v-46.2Zm47.363 0h46.209v46.2h-46.209v-46.2Zm47.364 0h46.208v46.2h-46.208v-46.2Zm47.363 0h46.209v46.2h-46.209v-46.2Zm47.364 0h46.208v46.2h-46.208v-46.2Zm47.363 0h46.209v46.2h-46.209v-46.2Zm47.364 0h46.208v46.2h-46.208v-46.2Zm47.364 0h46.208v46.2h-46.208v-46.2Zm47.363 0h46.208v46.2H830.76v-46.2Zm47.364 0h46.208v46.2h-46.208v-46.2Zm47.363 0h46.208v46.2h-46.208v-46.2Zm47.364 0h46.209v46.2h-46.209v-46.2Zm47.359 0h46.21v46.2h-46.21v-46.2Zm47.37 0h46.21v46.2h-46.21v-46.2Zm47.36 0h46.21v46.2h-46.21v-46.2Zm47.36 0h46.21v46.2h-46.21v-46.2Zm47.37 0h46.21v46.2h-46.21v-46.2Zm47.36 0h46.21v46.2h-46.21v-46.2Zm47.37 0h46.2v46.2h-46.2v-46.2Zm47.36 0h46.21v46.2h-46.21v-46.2Zm47.36 0h46.21v46.2h-46.21v-46.2Zm47.37 0h46.2v46.2h-46.2v-46.2Zm47.36 0h46.21v46.2h-46.21v-46.2Zm47.36 0h46.21v46.2h-46.21v-46.2Zm47.37 0h46.21v46.2h-46.21v-46.2Z"
        />
        <path fill="#0b0b0b" d="M1635.94 1388.91h46.21v46.2h-46.21v-46.2Z" />
        <path
          stroke="#0a0a0a"
          stroke-width="1.155"
          d="M1683.88 1389.48h45.05v45.06h-45.05v-45.06Zm47.36 0h45.06v45.06h-45.06v-45.06Zm47.37 0h45.05v45.06h-45.05v-45.06Zm47.36 0h45.06v45.06h-45.06v-45.06Zm47.37 0h45.05v45.06h-45.05v-45.06Zm47.36 0h45.05v45.06h-45.05v-45.06Zm47.36 0h45.06v45.06h-45.06v-45.06Zm47.37 0h45.05v45.06h-45.05v-45.06Zm47.36 0h45.05v45.06h-45.05v-45.06Zm47.36 0h45.06v45.06h-45.06v-45.06Zm-2131.356 47.37h45.053v45.05h-45.053v-45.05Zm47.364 0H71.21v45.05H26.158v-45.05Z"
        />
        <path fill="#0b0b0b" d="M72.943 1436.27h46.209v46.21H72.943v-46.21Z" />
        <path
          stroke="#0a0a0a"
          stroke-width="1.155"
          d="M120.884 1436.85h45.053v45.05h-45.053v-45.05Zm47.364 0h45.053v45.05h-45.053v-45.05Zm47.363 0h45.053v45.05h-45.053v-45.05Zm47.364 0h45.053v45.05h-45.053v-45.05Zm47.363 0h45.054v45.05h-45.054v-45.05Zm47.364 0h45.053v45.05h-45.053v-45.05Zm47.363 0h45.054v45.05h-45.054v-45.05Zm47.364 0h45.053v45.05h-45.053v-45.05Zm47.364 0h45.053v45.05h-45.053v-45.05Zm47.363 0h45.053v45.05h-45.053v-45.05Zm47.364 0h45.053v45.05H594.52v-45.05Zm47.363 0h45.053v45.05h-45.053v-45.05Zm47.364 0H734.3v45.05h-45.053v-45.05Zm47.363 0h45.053v45.05H736.61v-45.05Z"
        />
        <path
          fill="#0b0b0b"
          d="M783.396 1436.27h46.209v46.21h-46.209v-46.21Z"
        />

        <path
          stroke="#0a0a0a"
          stroke-width="2.31"
          d="M830.76 1436.27h46.208v46.21H830.76v-46.21Zm47.364 0h46.208v46.21h-46.208v-46.21Zm47.363 0h46.208v46.21h-46.208v-46.21Zm47.364 0h46.209v46.21h-46.209v-46.21Zm47.359 0h46.21v46.21h-46.21v-46.21Zm47.37 0h46.21v46.21h-46.21v-46.21Zm47.36 0h46.21v46.21h-46.21v-46.21Zm47.36 0h46.21v46.21h-46.21v-46.21Zm47.37 0h46.21v46.21h-46.21v-46.21Zm47.36 0h46.21v46.21h-46.21v-46.21Zm47.37 0h46.2v46.21h-46.2v-46.21Zm47.36 0h46.21v46.21h-46.21v-46.21Zm47.36 0h46.21v46.21h-46.21v-46.21Zm47.37 0h46.2v46.21h-46.2v-46.21Zm47.36 0h46.21v46.21h-46.21v-46.21Zm47.36 0h46.21v46.21h-46.21v-46.21Zm47.37 0h46.21v46.21h-46.21v-46.21Zm47.36 0h46.21v46.21h-46.21v-46.21Zm47.36 0h46.21v46.21h-46.21v-46.21Zm47.37 0h46.21v46.21h-46.21v-46.21Zm47.36 0h46.21v46.21h-46.21v-46.21Zm47.36 0h46.21v46.21h-46.21v-46.21Zm47.37 0h46.21v46.21h-46.21v-46.21Zm47.36 0h46.21v46.21h-46.21v-46.21Zm47.37 0h46.2v46.21h-46.2v-46.21Zm47.36 0h46.21v46.21h-46.21v-46.21Zm47.36 0h46.21v46.21h-46.21v-46.21Zm47.37 0h46.2v46.21h-46.2v-46.21Zm-2131.364 47.36h46.209v46.21h-46.209v-46.21Zm47.364 0h46.208v46.21H25.58v-46.21Zm47.363 0h46.209v46.21H72.943v-46.21Zm47.364 0h46.208v46.21h-46.208v-46.21Zm47.363 0h46.209v46.21H167.67v-46.21Zm47.364 0h46.208v46.21h-46.208v-46.21Zm47.364 0h46.208v46.21h-46.208v-46.21Zm47.363 0h46.208v46.21h-46.208v-46.21Zm47.364 0h46.208v46.21h-46.208v-46.21Zm47.363 0h46.209v46.21h-46.209v-46.21Zm47.364 0h46.208v46.21h-46.208v-46.21Zm47.363 0h46.209v46.21h-46.209v-46.21Zm47.364 0h46.208v46.21h-46.208v-46.21Zm47.363 0h46.209v46.21h-46.209v-46.21Zm47.364 0h46.208v46.21h-46.208v-46.21Zm47.363 0h46.209v46.21h-46.209v-46.21Zm47.364 0h46.208v46.21h-46.208v-46.21Zm47.364 0h46.208v46.21h-46.208v-46.21Zm47.363 0h46.208v46.21H830.76v-46.21Zm47.364 0h46.208v46.21h-46.208v-46.21Zm47.363 0h46.208v46.21h-46.208v-46.21Zm47.364 0h46.209v46.21h-46.209v-46.21Zm47.359 0h46.21v46.21h-46.21v-46.21Zm47.37 0h46.21v46.21h-46.21v-46.21Zm47.36 0h46.21v46.21h-46.21v-46.21Z"
        />
        <path fill="#0b0b0b" d="M1162.3 1483.63h46.21v46.21h-46.21v-46.21Z" />
        <path
          stroke="#0a0a0a"
          stroke-width="1.155"
          d="M1210.25 1484.21h45.05v45.05h-45.05v-45.05Zm47.36 0h45.05v45.05h-45.05v-45.05Zm47.36 0h45.06v45.05h-45.06v-45.05Zm47.37 0h45.05v45.05h-45.05v-45.05Zm47.36 0h45.05v45.05h-45.05v-45.05Zm47.36 0h45.06v45.05h-45.06v-45.05Zm47.37 0h45.05v45.05h-45.05v-45.05Zm47.36 0h45.05v45.05h-45.05v-45.05Zm47.36 0h45.06v45.05h-45.06v-45.05Zm47.37 0h45.05v45.05h-45.05v-45.05Zm47.36 0h45.05v45.05h-45.05v-45.05Zm47.36 0h45.06v45.05h-45.06v-45.05Zm47.37 0h45.05v45.05h-45.05v-45.05Z"
        />
        <path fill="#0b0b0b" d="M1825.39 1483.63h46.21v46.21h-46.21v-46.21Z" />
        <path
          stroke="#0a0a0a"
          stroke-width="1.155"
          d="M1873.34 1484.21h45.05v45.05h-45.05v-45.05Zm47.36 0h45.05v45.05h-45.05v-45.05Zm47.36 0h45.06v45.05h-45.06v-45.05Zm47.37 0h45.05v45.05h-45.05v-45.05Zm47.36 0h45.05v45.05h-45.05v-45.05Zm47.36 0h45.06v45.05h-45.06v-45.05Zm-2131.356 47.36h45.053v45.06h-45.053v-45.06Zm47.364 0H71.21v45.06H26.158v-45.06Zm47.363 0h45.053v45.06H73.521v-45.06Zm47.364 0h45.053v45.06h-45.053v-45.06Zm47.363 0h45.053v45.06h-45.053v-45.06Zm47.364 0h45.053v45.06h-45.053v-45.06Zm47.363 0h45.053v45.06h-45.053v-45.06Zm47.364 0h45.053v45.06h-45.053v-45.06Zm47.363 0h45.053v45.06h-45.053v-45.06Z"
        />
        <path fill="#0b0b0b" d="M404.488 1531h46.208v46.21h-46.208V1531Z" />

        <path
          stroke="#0a0a0a"
          stroke-width="2.31"
          d="M451.852 1531h46.208v46.21h-46.208V1531Zm47.363 0h46.208v46.21h-46.208V1531Zm47.364 0h46.208v46.21h-46.208V1531Zm47.363 0h46.209v46.21h-46.209V1531Zm47.364 0h46.208v46.21h-46.208V1531Zm47.363 0h46.209v46.21h-46.209V1531Zm47.364 0h46.208v46.21h-46.208V1531Zm47.363 0h46.209v46.21h-46.209V1531Zm47.364 0h46.208v46.21H830.76V1531Zm47.363 0h46.209v46.21h-46.209V1531Zm47.364 0h46.208v46.21h-46.208V1531Zm47.364 0h46.209v46.21h-46.209V1531Zm47.359 0h46.21v46.21h-46.21V1531Zm47.37 0h46.21v46.21h-46.21V1531Zm47.36 0h46.21v46.21h-46.21V1531Zm47.36 0h46.21v46.21h-46.21V1531Zm47.37 0h46.21v46.21h-46.21V1531Zm47.36 0h46.21v46.21h-46.21V1531Zm47.37 0h46.2v46.21h-46.2V1531Zm47.36 0h46.21v46.21h-46.21V1531Zm47.36 0h46.21v46.21h-46.21V1531Zm47.37 0h46.2v46.21h-46.2V1531Zm47.36 0h46.21v46.21h-46.21V1531Zm47.36 0h46.21v46.21h-46.21V1531Zm47.37 0h46.2v46.21h-46.2V1531Zm47.36 0h46.21v46.21h-46.21V1531Zm47.36 0h46.21v46.21h-46.21V1531Zm47.37 0h46.21v46.21h-46.21V1531Zm47.36 0h46.21v46.21h-46.21V1531Zm47.36 0h46.21v46.21h-46.21V1531Zm47.37 0h46.21v46.21h-46.21V1531Zm47.36 0h46.21v46.21h-46.21V1531Zm47.36 0h46.21v46.21h-46.21V1531Z"
        />
        <path fill="#0b0b0b" d="M2014.85 1531h46.21v46.21h-46.21V1531Z" />
        <path
          stroke="#0a0a0a"
          stroke-width="1.155"
          d="M2062.79 1531.57h45.05v45.06h-45.05v-45.06Zm47.36 0h45.06v45.06h-45.06v-45.06Z"
        />
      </g>
      <g filter="url(#z)" opacity="0.56">
        <rect
          width="853"
          height="853"
          fill="url(#A)"
          rx="426.5"
          transform="matrix(-1 0 0 1 1470 -363)"
        />
      </g>
      <path
        fill="url(#B)"
        d="M0 0h2133v1042H0z"
        transform="matrix(-1 0 0 1 2133 505)"
      />
    </g>
    <defs>
      <clipPath id="a">
        <path fill="rgb(24,26,27)" d="M2133 0H0v1547h2133z" />
      </clipPath>
      <clipPath id="b">
        <path fill="rgb(24,26,27)" d="M-42-32h2218v1609.21H-42z" />
      </clipPath>
      <radialGradient
        id="A"
        cx="0"
        cy="0"
        r="1"
        gradientTransform="translate(426.5 426.5) scale(426.5)"
        gradientUnits="userSpaceOnUse"
      >
        <stop stop-color="#414141" stop-opacity="0.8" />
        <stop offset="1" stop-color="#414141" stop-opacity="0" />
      </radialGradient>
      <filter
        id="z"
        width="1443.21"
        height="1443.21"
        x="321.896"
        y="-658.104"
        color-interpolation-filters="sRGB"
        filterUnits="userSpaceOnUse"
      >
        <feFlood flood-opacity="0" result="BackgroundImageFix" />
        <feBlend in="SourceGraphic" in2="BackgroundImageFix" result="shape" />
        <feGaussianBlur
          result="effect1_foregroundBlur_91_564"
          stdDeviation="147.552"
        />
      </filter>
    </defs>
  </svg>