<svg
    xmlns="http://www.w3.org/2000/svg"
    width="2133"
    height="1547"
    fill="rgb(24,26,27)"
    
  >
    <g clip-path="url(#a)">
      <path fill="rgb(24,26,27)" d="M2133 0H0v1547h2133z" />
      <g clip-path="url(#b)">
        <path
          stroke="#0a0a0a"
          stroke-width="2.31"
          d="M2155.78-32h-46.2v46.208h46.2V-32Zm-47.36 0h-46.21v46.208h46.21V-32Zm-47.36 0h-46.21v46.208h46.21V-32Zm-47.37 0h-46.21v46.208h46.21V-32Zm-47.36 0h-46.21v46.208h46.21V-32Zm-47.36 0h-46.21v46.208h46.21V-32Zm-47.37 0h-46.21v46.208h46.21V-32Zm-47.36 0h-46.21v46.208h46.21V-32Zm-47.36 0h-46.21v46.208h46.21V-32Zm-47.37 0h-46.21v46.208h46.21V-32Zm-47.36 0h-46.21v46.208h46.21V-32Zm-47.37 0h-46.2v46.208h46.2V-32Zm-47.36 0h-46.21v46.208h46.21V-32Zm-47.36 0h-46.21v46.208h46.21V-32Zm-47.37 0h-46.2v46.208h46.2V-32Zm-47.36 0h-46.21v46.208h46.21V-32Zm-47.36 0h-46.21v46.208h46.21V-32Zm-47.37 0h-46.2v46.208h46.2V-32Zm-47.36 0h-46.21v46.208h46.21V-32Zm-47.36 0h-46.21v46.208h46.21V-32Zm-47.37 0h-46.21v46.208h46.21V-32Zm-47.36 0h-46.21v46.208h46.21V-32Zm-47.36 0h-46.21v46.208h46.21V-32Zm-47.37 0h-46.21v46.208h46.21V-32Zm-47.36 0h-46.21v46.208h46.21V-32Zm-47.365 0h-46.208v46.208h46.208V-32Zm-47.363 0h-46.209v46.208h46.209V-32Zm-47.364 0H830.76v46.208h46.208V-32Zm-47.364 0h-46.208v46.208h46.208V-32Zm-47.363 0h-46.208v46.208h46.208V-32Zm-47.364 0h-46.208v46.208h46.208V-32Zm-47.363 0h-46.208v46.208h46.208V-32Zm-47.364 0h-46.208v46.208h46.208V-32Zm-47.363 0h-46.209v46.208h46.209V-32Zm-47.364 0h-46.208v46.208h46.208V-32Zm-47.363 0h-46.209v46.208h46.209V-32Zm-47.364 0h-46.208v46.208h46.208V-32Zm-47.363 0h-46.209v46.208h46.209V-32Zm-47.364 0h-46.208v46.208h46.208V-32Zm-47.363 0h-46.209v46.208h46.209V-32Zm-47.364 0h-46.208v46.208h46.208V-32Zm-47.364 0H167.67v46.208h46.208V-32Zm-47.363 0h-46.208v46.208h46.208V-32Zm-47.364 0H72.943v46.208h46.208V-32Zm-47.363 0H25.58v46.208h46.208V-32Zm-47.364 0h-46.208v46.208h46.208V-32ZM2155.78 15.364h-46.2v46.208h46.2V15.363Zm-47.36 0h-46.21v46.208h46.21V15.363Zm-47.36 0h-46.21v46.208h46.21V15.363Zm-47.37 0h-46.21v46.208h46.21V15.363Zm-47.36 0h-46.21v46.208h46.21V15.363Zm-47.36 0h-46.21v46.208h46.21V15.363Zm-47.37 0h-46.21v46.208h46.21V15.363Zm-47.36 0h-46.21v46.208h46.21V15.363Zm-47.36 0h-46.21v46.208h46.21V15.363Zm-47.37 0h-46.21v46.208h46.21V15.363Zm-47.36 0h-46.21v46.208h46.21V15.363Zm-47.37 0h-46.2v46.208h46.2V15.363Zm-47.36 0h-46.21v46.208h46.21V15.363Zm-47.36 0h-46.21v46.208h46.21V15.363Zm-47.37 0h-46.2v46.208h46.2V15.363Zm-47.36 0h-46.21v46.208h46.21V15.363Zm-47.36 0h-46.21v46.208h46.21V15.363Zm-47.37 0h-46.2v46.208h46.2V15.363Zm-47.36 0h-46.21v46.208h46.21V15.363Zm-47.36 0h-46.21v46.208h46.21V15.363Zm-47.37 0h-46.21v46.208h46.21V15.363Zm-47.36 0h-46.21v46.208h46.21V15.363Zm-47.36 0h-46.21v46.208h46.21V15.363Zm-47.37 0h-46.21v46.208h46.21V15.363Z"
        />
        <path fill="#0b0b0b" d="M1019.06 15.364h-46.21v46.208h46.21V15.363Z" />
        <path
          stroke="#0a0a0a"
          stroke-width="1.155"
          d="M971.118 15.941h-45.053v45.053h45.053V15.941Zm-47.364 0h-45.053v45.053h45.053V15.941Zm-47.363 0h-45.054v45.053h45.054V15.941Zm-47.364 0h-45.053v45.053h45.053V15.941Zm-47.363 0H736.61v45.053h45.054V15.941Zm-47.364 0h-45.053v45.053H734.3V15.941Zm-47.364 0h-45.053v45.053h45.053V15.941Z"
        />
        <path fill="#0b0b0b" d="M640.15 15.364h-46.208v46.208h46.208V15.363Z" />
        <path
          stroke="#0a0a0a"
          stroke-width="1.155"
          d="M592.209 15.941h-45.053v45.053h45.053V15.941Zm-47.363 0h-45.053v45.053h45.053V15.941Zm-47.364 0h-45.053v45.053h45.053V15.941Zm-47.363 0h-45.054v45.053h45.054V15.941Zm-47.364 0h-45.053v45.053h45.053V15.941Zm-47.364 0h-45.053v45.053h45.053V15.941Zm-47.363 0h-45.053v45.053h45.053V15.941Zm-47.364 0h-45.053v45.053h45.053V15.941Zm-47.363 0h-45.053v45.053h45.053V15.941Zm-47.364 0h-45.053v45.053h45.053V15.941Zm-47.363 0H73.521v45.053h45.053V15.941Zm-47.364 0H26.157v45.053H71.21V15.941Zm-47.363 0h-45.053v45.053h45.053V15.941ZM2155.21 63.305h-45.06v45.053h45.06V63.305Z"
        />
        <path fill="#0b0b0b" d="M2108.42 62.727h-46.21v46.208h46.21V62.727Z" />

        <path
          stroke="#0a0a0a"
          stroke-width="2.31"
          d="M2061.06 62.727h-46.21v46.208h46.21V62.727Zm-47.37 0h-46.21v46.208h46.21V62.727Zm-47.36 0h-46.21v46.208h46.21V62.727Zm-47.36 0h-46.21v46.208h46.21V62.727Zm-47.37 0h-46.21v46.208h46.21V62.727Zm-47.36 0h-46.21v46.208h46.21V62.727Zm-47.36 0h-46.21v46.208h46.21V62.727Zm-47.37 0h-46.21v46.208h46.21V62.727Zm-47.36 0h-46.21v46.208h46.21V62.727Zm-47.37 0h-46.2v46.208h46.2V62.727Zm-47.36 0h-46.21v46.208h46.21V62.727Zm-47.36 0h-46.21v46.208h46.21V62.727Zm-47.37 0h-46.2v46.208h46.2V62.727Zm-47.36 0h-46.21v46.208h46.21V62.727Zm-47.36 0h-46.21v46.208h46.21V62.727Zm-47.37 0h-46.2v46.208h46.2V62.727Zm-47.36 0h-46.21v46.208h46.21V62.727Zm-47.36 0h-46.21v46.208h46.21V62.727Zm-47.37 0h-46.21v46.208h46.21V62.727Zm-47.36 0h-46.21v46.208h46.21V62.727Zm-47.36 0h-46.21v46.208h46.21V62.727Zm-47.37 0h-46.21v46.208h46.21V62.727Zm-47.36 0h-46.21v46.208h46.21V62.727Zm-47.365 0h-46.208v46.208h46.208V62.727Zm-47.363 0h-46.209v46.208h46.209V62.727Zm-47.364 0H830.76v46.208h46.208V62.727Zm-47.364 0h-46.208v46.208h46.208V62.727Zm-47.363 0h-46.208v46.208h46.208V62.727Zm-47.364 0h-46.208v46.208h46.208V62.727Zm-47.363 0h-46.208v46.208h46.208V62.727Zm-47.364 0h-46.208v46.208h46.208V62.727Zm-47.363 0h-46.209v46.208h46.209V62.727Zm-47.364 0h-46.208v46.208h46.208V62.727Zm-47.363 0h-46.209v46.208h46.209V62.727Zm-47.364 0h-46.208v46.208h46.208V62.727Zm-47.363 0h-46.209v46.208h46.209V62.727Zm-47.364 0h-46.208v46.208h46.208V62.727Zm-47.363 0h-46.209v46.208h46.209V62.727Zm-47.364 0h-46.208v46.208h46.208V62.727Zm-47.363 0H167.67v46.208h46.209V62.727Zm-47.364 0h-46.208v46.208h46.208V62.727Z"
        />
        <path fill="#0b0b0b" d="M119.151 62.727H72.943v46.208h46.208V62.727Z" />
        <path
          stroke="#0a0a0a"
          stroke-width="1.155"
          d="M71.21 63.305H26.157v45.053H71.21V63.305Zm-47.363 0h-45.053v45.053h45.053V63.305Zm2131.363 47.363h-45.06v45.053h45.06v-45.053Zm-47.37 0h-45.05v45.053h45.05v-45.053Zm-47.36 0h-45.05v45.053h45.05v-45.053Zm-47.36 0h-45.06v45.053h45.06v-45.053Zm-47.37 0h-45.05v45.053h45.05v-45.053Zm-47.36 0h-45.05v45.053h45.05v-45.053Zm-47.37 0h-45.05v45.053h45.05v-45.053Zm-47.36 0h-45.05v45.053h45.05v-45.053Zm-47.36 0h-45.06v45.053h45.06v-45.053Zm-47.37 0h-45.05v45.053h45.05v-45.053Z"
        />
        <path
          fill="#0b0b0b"
          d="M1682.15 110.091h-46.21v46.208h46.21v-46.208Z"
        />
        <path
          stroke="#0a0a0a"
          stroke-width="1.155"
          d="M1634.21 110.668h-45.06v45.053h45.06v-45.053Zm-47.37 0h-45.05v45.053h45.05v-45.053Zm-47.36 0h-45.05v45.053h45.05v-45.053Zm-47.36 0h-45.06v45.053h45.06v-45.053Zm-47.37 0h-45.05v45.053h45.05v-45.053Zm-47.36 0h-45.05v45.053h45.05v-45.053Zm-47.36 0h-45.06v45.053h45.06v-45.053Z"
        />
        <path
          fill="#0b0b0b"
          d="M1303.24 110.091h-46.21v46.208h46.21v-46.208Z"
        />

        <path
          stroke="#0a0a0a"
          stroke-width="2.31"
          d="M1255.88 110.091h-46.21v46.208h46.21v-46.208Zm-47.37 0h-46.21v46.208h46.21v-46.208Zm-47.36 0h-46.21v46.208h46.21v-46.208Zm-47.36 0h-46.21v46.208h46.21v-46.208Zm-47.37 0h-46.21v46.208h46.21v-46.208Zm-47.36 0h-46.21v46.208h46.21v-46.208Zm-47.365 0h-46.208v46.208h46.208v-46.208Zm-47.363 0h-46.209v46.208h46.209v-46.208Zm-47.364 0H830.76v46.208h46.208v-46.208Zm-47.364 0h-46.208v46.208h46.208v-46.208Zm-47.363 0h-46.208v46.208h46.208v-46.208Zm-47.364 0h-46.208v46.208h46.208v-46.208Zm-47.363 0h-46.208v46.208h46.208v-46.208Zm-47.364 0h-46.208v46.208h46.208v-46.208Zm-47.363 0h-46.209v46.208h46.209v-46.208Zm-47.364 0h-46.208v46.208h46.208v-46.208Zm-47.363 0h-46.209v46.208h46.209v-46.208Zm-47.364 0h-46.208v46.208h46.208v-46.208Zm-47.363 0h-46.209v46.208h46.209v-46.208Zm-47.364 0h-46.208v46.208h46.208v-46.208Zm-47.363 0h-46.209v46.208h46.209v-46.208Zm-47.364 0h-46.208v46.208h46.208v-46.208Zm-47.364 0H167.67v46.208h46.208v-46.208Zm-47.363 0h-46.208v46.208h46.208v-46.208Zm-47.364 0H72.943v46.208h46.208v-46.208Zm-47.363 0H25.58v46.208h46.208v-46.208Zm-47.364 0h-46.208v46.208h46.208v-46.208Zm2131.356 47.363h-46.2v46.208h46.2v-46.208Zm-47.36 0h-46.21v46.208h46.21v-46.208Zm-47.36 0h-46.21v46.208h46.21v-46.208Zm-47.37 0h-46.21v46.208h46.21v-46.208Zm-47.36 0h-46.21v46.208h46.21v-46.208Z"
        />
        <path
          fill="#0b0b0b"
          d="M1918.97 157.454h-46.21v46.208h46.21v-46.208Z"
        />

        <path
          stroke="#0a0a0a"
          stroke-width="2.31"
          d="M1871.6 157.454h-46.21v46.208h46.21v-46.208Zm-47.36 0h-46.21v46.208h46.21v-46.208Zm-47.36 0h-46.21v46.208h46.21v-46.208Zm-47.37 0h-46.21v46.208h46.21v-46.208Zm-47.36 0h-46.21v46.208h46.21v-46.208Zm-47.37 0h-46.2v46.208h46.2v-46.208Zm-47.36 0h-46.21v46.208h46.21v-46.208Zm-47.36 0h-46.21v46.208h46.21v-46.208Zm-47.37 0h-46.2v46.208h46.2v-46.208Zm-47.36 0h-46.21v46.208h46.21v-46.208Zm-47.36 0h-46.21v46.208h46.21v-46.208Zm-47.37 0h-46.2v46.208h46.2v-46.208Zm-47.36 0h-46.21v46.208h46.21v-46.208Zm-47.36 0h-46.21v46.208h46.21v-46.208Zm-47.37 0h-46.21v46.208h46.21v-46.208Zm-47.36 0h-46.21v46.208h46.21v-46.208Zm-47.36 0h-46.21v46.208h46.21v-46.208Zm-47.37 0h-46.21v46.208h46.21v-46.208Zm-47.36 0h-46.21v46.208h46.21v-46.208Zm-47.365 0h-46.208v46.208h46.208v-46.208Zm-47.363 0h-46.209v46.208h46.209v-46.208Zm-47.364 0H830.76v46.208h46.208v-46.208Zm-47.363 0h-46.209v46.208h46.209v-46.208Zm-47.364 0h-46.208v46.208h46.208v-46.208Zm-47.363 0h-46.209v46.208h46.209v-46.208Zm-47.364 0h-46.208v46.208h46.208v-46.208Zm-47.364 0h-46.208v46.208h46.208v-46.208Zm-47.363 0h-46.208v46.208h46.208v-46.208Zm-47.364 0h-46.208v46.208h46.208v-46.208Z"
        />
        <path
          fill="#0b0b0b"
          d="M498.06 157.454h-46.209v46.208h46.209v-46.208Z"
        />

        <path
          stroke="#0a0a0a"
          stroke-width="2.31"
          d="M450.696 157.454h-46.208v46.208h46.208v-46.208Zm-47.363 0h-46.209v46.208h46.209v-46.208Zm-47.364 0h-46.208v46.208h46.208v-46.208Zm-47.363 0h-46.209v46.208h46.209v-46.208Zm-47.364 0h-46.208v46.208h46.208v-46.208Zm-47.364 0H167.67v46.208h46.208v-46.208Zm-47.363 0h-46.208v46.208h46.208v-46.208Zm-47.364 0H72.943v46.208h46.208v-46.208Zm-47.363 0H25.58v46.208h46.208v-46.208Zm-47.364 0h-46.208v46.208h46.208v-46.208Zm2131.356 47.364h-46.2v46.208h46.2v-46.208Zm-47.36 0h-46.21v46.208h46.21v-46.208Zm-47.36 0h-46.21v46.208h46.21v-46.208Zm-47.37 0h-46.21v46.208h46.21v-46.208Zm-47.36 0h-46.21v46.208h46.21v-46.208Zm-47.36 0h-46.21v46.208h46.21v-46.208Zm-47.37 0h-46.21v46.208h46.21v-46.208Zm-47.36 0h-46.21v46.208h46.21v-46.208Zm-47.36 0h-46.21v46.208h46.21v-46.208Zm-47.37 0h-46.21v46.208h46.21v-46.208Zm-47.36 0h-46.21v46.208h46.21v-46.208Zm-47.37 0h-46.2v46.208h46.2v-46.208Zm-47.36 0h-46.21v46.208h46.21v-46.208Zm-47.36 0h-46.21v46.208h46.21v-46.208Zm-47.37 0h-46.2v46.208h46.2v-46.208Zm-47.36 0h-46.21v46.208h46.21v-46.208Zm-47.36 0h-46.21v46.208h46.21v-46.208Zm-47.37 0h-46.2v46.208h46.2v-46.208Zm-47.36 0h-46.21v46.208h46.21v-46.208Zm-47.36 0h-46.21v46.208h46.21v-46.208Zm-47.37 0h-46.21v46.208h46.21v-46.208Zm-47.36 0h-46.21v46.208h46.21v-46.208Zm-47.36 0h-46.21v46.208h46.21v-46.208Zm-47.37 0h-46.21v46.208h46.21v-46.208Zm-47.36 0h-46.21v46.208h46.21v-46.208Zm-47.365 0h-46.208v46.208h46.208v-46.208Zm-47.363 0h-46.209v46.208h46.209v-46.208Zm-47.364 0H830.76v46.208h46.208v-46.208Z"
        />
        <path
          fill="#0b0b0b"
          d="M829.604 204.818h-46.208v46.208h46.208v-46.208Z"
        />

        <path
          stroke="#0a0a0a"
          stroke-width="2.31"
          d="M782.241 204.818h-46.208v46.208h46.208v-46.208Zm-47.364 0h-46.208v46.208h46.208v-46.208Zm-47.363 0h-46.208v46.208h46.208v-46.208Zm-47.364 0h-46.208v46.208h46.208v-46.208Zm-47.363 0h-46.209v46.208h46.209v-46.208Zm-47.364 0h-46.208v46.208h46.208v-46.208Zm-47.363 0h-46.209v46.208h46.209v-46.208Zm-47.364 0h-46.208v46.208h46.208v-46.208Zm-47.363 0h-46.209v46.208h46.209v-46.208Zm-47.364 0h-46.208v46.208h46.208v-46.208Zm-47.363 0h-46.209v46.208h46.209v-46.208Zm-47.364 0h-46.208v46.208h46.208v-46.208Zm-47.364 0H167.67v46.208h46.208v-46.208Zm-47.363 0h-46.208v46.208h46.208v-46.208Zm-47.364 0H72.943v46.208h46.208v-46.208Zm-47.363 0H25.58v46.208h46.208v-46.208Zm-47.364 0h-46.208v46.208h46.208v-46.208Zm2131.356 47.363h-46.2v46.209h46.2v-46.209Zm-47.36 0h-46.21v46.209h46.21v-46.209Zm-47.36 0h-46.21v46.209h46.21v-46.209Zm-47.37 0h-46.21v46.209h46.21v-46.209Zm-47.36 0h-46.21v46.209h46.21v-46.209Zm-47.36 0h-46.21v46.209h46.21v-46.209Zm-47.37 0h-46.21v46.209h46.21v-46.209Zm-47.36 0h-46.21v46.209h46.21v-46.209Zm-47.36 0h-46.21v46.209h46.21v-46.209Zm-47.37 0h-46.21v46.209h46.21v-46.209Zm-47.36 0h-46.21v46.209h46.21v-46.209Zm-47.37 0h-46.2v46.209h46.2v-46.209Zm-47.36 0h-46.21v46.209h46.21v-46.209Zm-47.36 0h-46.21v46.209h46.21v-46.209Zm-47.37 0h-46.2v46.209h46.2v-46.209Zm-47.36 0h-46.21v46.209h46.21v-46.209Zm-47.36 0h-46.21v46.209h46.21v-46.209Zm-47.37 0h-46.2v46.209h46.2v-46.209Zm-47.36 0h-46.21v46.209h46.21v-46.209Zm-47.36 0h-46.21v46.209h46.21v-46.209Zm-47.37 0h-46.21v46.209h46.21v-46.209Zm-47.36 0h-46.21v46.209h46.21v-46.209Zm-47.36 0h-46.21v46.209h46.21v-46.209Z"
        />
        <path
          fill="#0b0b0b"
          d="M1066.42 252.181h-46.21v46.208h46.21v-46.208Z"
        />
        <path
          stroke="#0a0a0a"
          stroke-width="1.155"
          d="M1018.48 252.759h-45.052v45.053h45.052v-45.053Zm-47.363 0h-45.053v45.053h45.053v-45.053Zm-47.363 0h-45.053v45.053h45.053v-45.053Zm-47.364 0h-45.053v45.053h45.053v-45.053Zm-47.363 0h-45.053v45.053h45.053v-45.053Zm-47.364 0H736.61v45.053h45.053v-45.053Zm-47.363 0h-45.053v45.053H734.3v-45.053Zm-47.364 0h-45.053v45.053h45.053v-45.053Zm-47.363 0H594.52v45.053h45.053v-45.053Zm-47.364 0h-45.053v45.053h45.053v-45.053Zm-47.363 0h-45.054v45.053h45.054v-45.053Zm-47.364 0h-45.053v45.053h45.053v-45.053Zm-47.363 0h-45.054v45.053h45.054v-45.053Zm-47.364 0h-45.053v45.053h45.053v-45.053Zm-47.364 0h-45.053v45.053h45.053v-45.053Z"
        />
        <path
          fill="#0b0b0b"
          d="M308.605 252.181h-46.208v46.208h46.208v-46.208Z"
        />
        <path
          stroke="#0a0a0a"
          stroke-width="1.155"
          d="M260.664 252.759h-45.053v45.053h45.053v-45.053Zm-47.363 0h-45.053v45.053h45.053v-45.053Zm-47.364 0h-45.053v45.053h45.053v-45.053Zm-47.363 0H73.521v45.053h45.053v-45.053Zm-47.364 0H26.157v45.053H71.21v-45.053Zm-47.363 0h-45.053v45.053h45.053v-45.053Zm2131.363 47.363h-45.06v45.053h45.06v-45.053Zm-47.37 0h-45.05v45.053h45.05v-45.053Zm-47.36 0h-45.05v45.053h45.05v-45.053Zm-47.36 0h-45.06v45.053h45.06v-45.053Zm-47.37 0h-45.05v45.053h45.05v-45.053Zm-47.36 0h-45.05v45.053h45.05v-45.053Zm-47.37 0h-45.05v45.053h45.05v-45.053Zm-47.36 0h-45.05v45.053h45.05v-45.053Zm-47.36 0h-45.06v45.053h45.06v-45.053Zm-47.37 0h-45.05v45.053h45.05v-45.053Zm-47.36 0h-45.05v45.053h45.05v-45.053Zm-47.36 0h-45.06v45.053h45.06v-45.053Zm-47.37 0h-45.05v45.053h45.05v-45.053Zm-47.36 0h-45.05v45.053h45.05v-45.053Z"
        />
        <path fill="#0b0b0b" d="M1492.69 299.545h-46.2v46.208h46.2v-46.208Z" />

        <path
          stroke="#0a0a0a"
          stroke-width="2.31"
          d="M1445.33 299.545h-46.21v46.208h46.21v-46.208Zm-47.36 0h-46.21v46.208h46.21v-46.208Zm-47.37 0h-46.2v46.208h46.2v-46.208Zm-47.36 0h-46.21v46.208h46.21v-46.208Zm-47.36 0h-46.21v46.208h46.21v-46.208Zm-47.37 0h-46.21v46.208h46.21v-46.208Zm-47.36 0h-46.21v46.208h46.21v-46.208Zm-47.36 0h-46.21v46.208h46.21v-46.208Zm-47.37 0h-46.21v46.208h46.21v-46.208Zm-47.36 0h-46.21v46.208h46.21v-46.208Zm-47.365 0h-46.208v46.208h46.208v-46.208Zm-47.363 0h-46.209v46.208h46.209v-46.208Zm-47.364 0H830.76v46.208h46.208v-46.208Zm-47.364 0h-46.208v46.208h46.208v-46.208Zm-47.363 0h-46.208v46.208h46.208v-46.208Zm-47.364 0h-46.208v46.208h46.208v-46.208Zm-47.363 0h-46.208v46.208h46.208v-46.208Zm-47.364 0h-46.208v46.208h46.208v-46.208Zm-47.363 0h-46.209v46.208h46.209v-46.208Zm-47.364 0h-46.208v46.208h46.208v-46.208Zm-47.363 0h-46.209v46.208h46.209v-46.208Zm-47.364 0h-46.208v46.208h46.208v-46.208Zm-47.363 0h-46.209v46.208h46.209v-46.208Zm-47.364 0h-46.208v46.208h46.208v-46.208Zm-47.363 0h-46.209v46.208h46.209v-46.208Zm-47.364 0h-46.208v46.208h46.208v-46.208Zm-47.364 0H167.67v46.208h46.208v-46.208Zm-47.363 0h-46.208v46.208h46.208v-46.208Zm-47.364 0H72.943v46.208h46.208v-46.208Zm-47.363 0H25.58v46.208h46.208v-46.208Zm-47.364 0h-46.208v46.208h46.208v-46.208Zm2131.356 47.363h-46.2v46.209h46.2v-46.209Zm-47.36 0h-46.21v46.209h46.21v-46.209Zm-47.36 0h-46.21v46.209h46.21v-46.209Zm-47.37 0h-46.21v46.209h46.21v-46.209Zm-47.36 0h-46.21v46.209h46.21v-46.209Zm-47.36 0h-46.21v46.209h46.21v-46.209Zm-47.37 0h-46.21v46.209h46.21v-46.209Zm-47.36 0h-46.21v46.209h46.21v-46.209Zm-47.36 0h-46.21v46.209h46.21v-46.209Zm-47.37 0h-46.21v46.209h46.21v-46.209Zm-47.36 0h-46.21v46.209h46.21v-46.209Zm-47.37 0h-46.2v46.209h46.2v-46.209Zm-47.36 0h-46.21v46.209h46.21v-46.209Zm-47.36 0h-46.21v46.209h46.21v-46.209Zm-47.37 0h-46.2v46.209h46.2v-46.209Zm-47.36 0h-46.21v46.209h46.21v-46.209Zm-47.36 0h-46.21v46.209h46.21v-46.209Zm-47.37 0h-46.2v46.209h46.2v-46.209Zm-47.36 0h-46.21v46.209h46.21v-46.209Zm-47.36 0h-46.21v46.209h46.21v-46.209Zm-47.37 0h-46.21v46.209h46.21v-46.209Zm-47.36 0h-46.21v46.209h46.21v-46.209Zm-47.36 0h-46.21v46.209h46.21v-46.209Zm-47.37 0h-46.21v46.209h46.21v-46.209Zm-47.36 0h-46.21v46.209h46.21v-46.209Zm-47.365 0h-46.208v46.209h46.208v-46.209Zm-47.363 0h-46.209v46.209h46.209v-46.209Zm-47.364 0H830.76v46.209h46.208v-46.209Zm-47.364 0h-46.208v46.209h46.208v-46.209Zm-47.363 0h-46.208v46.209h46.208v-46.209Zm-47.364 0h-46.208v46.209h46.208v-46.209Zm-47.363 0h-46.208v46.209h46.208v-46.209Zm-47.364 0h-46.208v46.209h46.208v-46.209Zm-47.363 0h-46.209v46.209h46.209v-46.209Zm-47.364 0h-46.208v46.209h46.208v-46.209Zm-47.363 0h-46.209v46.209h46.209v-46.209Zm-47.364 0h-46.208v46.209h46.208v-46.209Zm-47.363 0h-46.209v46.209h46.209v-46.209Zm-47.364 0h-46.208v46.209h46.208v-46.209Zm-47.363 0h-46.209v46.209h46.209v-46.209Zm-47.364 0h-46.208v46.209h46.208v-46.209Zm-47.364 0H167.67v46.209h46.208v-46.209Zm-47.363 0h-46.208v46.209h46.208v-46.209Zm-47.364 0H72.943v46.209h46.208v-46.209Zm-47.363 0H25.58v46.209h46.208v-46.209Zm-47.364 0h-46.208v46.209h46.208v-46.209Zm2131.356 47.364h-46.2v46.208h46.2v-46.208Zm-47.36 0h-46.21v46.208h46.21v-46.208Zm-47.36 0h-46.21v46.208h46.21v-46.208Zm-47.37 0h-46.21v46.208h46.21v-46.208Zm-47.36 0h-46.21v46.208h46.21v-46.208Zm-47.36 0h-46.21v46.208h46.21v-46.208Z"
        />
        <path fill="#0b0b0b" d="M1871.6 394.272h-46.21v46.208h46.21v-46.208Z" />
        <path
          stroke="#0a0a0a"
          stroke-width="1.155"
          d="M1823.66 394.849h-45.05v45.054h45.05v-45.054Zm-47.36 0h-45.06v45.054h45.06v-45.054Zm-47.37 0h-45.05v45.054h45.05v-45.054Zm-47.36 0h-45.05v45.054h45.05v-45.054Zm-47.36 0h-45.06v45.054h45.06v-45.054Zm-47.37 0h-45.05v45.054h45.05v-45.054Zm-47.36 0h-45.05v45.054h45.05v-45.054Zm-47.36 0h-45.06v45.054h45.06v-45.054Zm-47.37 0h-45.05v45.054h45.05v-45.054Zm-47.36 0h-45.05v45.054h45.05v-45.054Zm-47.36 0h-45.06v45.054h45.06v-45.054Zm-47.37 0h-45.05v45.054h45.05v-45.054Zm-47.36 0h-45.05v45.054h45.05v-45.054Zm-47.36 0h-45.06v45.054h45.06v-45.054Zm-47.37 0h-45.05v45.054h45.05v-45.054Zm-47.36 0h-45.05v45.054h45.05v-45.054Zm-47.36 0h-45.06v45.054h45.06v-45.054Zm-47.37 0h-45.052v45.054h45.052v-45.054Zm-47.362 0h-45.053v45.054h45.053v-45.054Zm-47.364 0h-45.053v45.054h45.053v-45.054Zm-47.363 0h-45.053v45.054h45.053v-45.054Zm-47.364 0h-45.053v45.054h45.053v-45.054Zm-47.363 0h-45.053v45.054h45.053v-45.054Z"
        />
        <path
          fill="#0b0b0b"
          d="M734.878 394.272H688.67v46.208h46.208v-46.208Z"
        />

        <path
          stroke="#0a0a0a"
          stroke-width="2.31"
          d="M687.514 394.272h-46.208v46.208h46.208v-46.208Zm-47.364 0h-46.208v46.208h46.208v-46.208Zm-47.363 0h-46.209v46.208h46.209v-46.208Zm-47.364 0h-46.208v46.208h46.208v-46.208Zm-47.363 0h-46.209v46.208h46.209v-46.208Zm-47.364 0h-46.208v46.208h46.208v-46.208Zm-47.363 0h-46.209v46.208h46.209v-46.208Zm-47.364 0h-46.208v46.208h46.208v-46.208Zm-47.363 0h-46.209v46.208h46.209v-46.208Zm-47.364 0h-46.208v46.208h46.208v-46.208Zm-47.364 0H167.67v46.208h46.208v-46.208Zm-47.363 0h-46.208v46.208h46.208v-46.208Zm-47.364 0H72.943v46.208h46.208v-46.208Zm-47.363 0H25.58v46.208h46.208v-46.208Zm-47.364 0h-46.208v46.208h46.208v-46.208Zm2131.356 47.363h-46.2v46.209h46.2v-46.209Zm-47.36 0h-46.21v46.209h46.21v-46.209Zm-47.36 0h-46.21v46.209h46.21v-46.209Zm-47.37 0h-46.21v46.209h46.21v-46.209Zm-47.36 0h-46.21v46.209h46.21v-46.209Zm-47.36 0h-46.21v46.209h46.21v-46.209Zm-47.37 0h-46.21v46.209h46.21v-46.209Zm-47.36 0h-46.21v46.209h46.21v-46.209Zm-47.36 0h-46.21v46.209h46.21v-46.209Zm-47.37 0h-46.21v46.209h46.21v-46.209Zm-47.36 0h-46.21v46.209h46.21v-46.209Zm-47.37 0h-46.2v46.209h46.2v-46.209Zm-47.36 0h-46.21v46.209h46.21v-46.209Zm-47.36 0h-46.21v46.209h46.21v-46.209Zm-47.37 0h-46.2v46.209h46.2v-46.209Zm-47.36 0h-46.21v46.209h46.21v-46.209Zm-47.36 0h-46.21v46.209h46.21v-46.209Zm-47.37 0h-46.2v46.209h46.2v-46.209Zm-47.36 0h-46.21v46.209h46.21v-46.209Zm-47.36 0h-46.21v46.209h46.21v-46.209Zm-47.37 0h-46.21v46.209h46.21v-46.209Zm-47.36 0h-46.21v46.209h46.21v-46.209Zm-47.36 0h-46.21v46.209h46.21v-46.209Zm-47.37 0h-46.21v46.209h46.21v-46.209Zm-47.36 0h-46.21v46.209h46.21v-46.209Zm-47.365 0h-46.208v46.209h46.208v-46.209Zm-47.363 0h-46.209v46.209h46.209v-46.209Zm-47.364 0H830.76v46.209h46.208v-46.209Zm-47.364 0h-46.208v46.209h46.208v-46.209Zm-47.363 0h-46.208v46.209h46.208v-46.209Zm-47.364 0h-46.208v46.209h46.208v-46.209Zm-47.363 0h-46.208v46.209h46.208v-46.209Zm-47.364 0h-46.208v46.209h46.208v-46.209Zm-47.363 0h-46.209v46.209h46.209v-46.209Zm-47.364 0h-46.208v46.209h46.208v-46.209Zm-47.363 0h-46.209v46.209h46.209v-46.209Zm-47.364 0h-46.208v46.209h46.208v-46.209Zm-47.363 0h-46.209v46.209h46.209v-46.209Zm-47.364 0h-46.208v46.209h46.208v-46.209Zm-47.363 0h-46.209v46.209h46.209v-46.209Zm-47.364 0h-46.208v46.209h46.208v-46.209Zm-47.364 0H167.67v46.209h46.208v-46.209Zm-47.363 0h-46.208v46.209h46.208v-46.209Zm-47.364 0H72.943v46.209h46.208v-46.209Zm-47.363 0H25.58v46.209h46.208v-46.209Zm-47.364 0h-46.208v46.209h46.208v-46.209Zm2131.356 47.364h-46.2v46.208h46.2v-46.208Zm-47.36 0h-46.21v46.208h46.21v-46.208Zm-47.36 0h-46.21v46.208h46.21v-46.208Zm-47.37 0h-46.21v46.208h46.21v-46.208Zm-47.36 0h-46.21v46.208h46.21v-46.208Zm-47.36 0h-46.21v46.208h46.21v-46.208Zm-47.37 0h-46.21v46.208h46.21v-46.208Zm-47.36 0h-46.21v46.208h46.21v-46.208Zm-47.36 0h-46.21v46.208h46.21v-46.208Zm-47.37 0h-46.21v46.208h46.21v-46.208Z"
        />
        <path
          fill="#0b0b0b"
          d="M1682.15 488.999h-46.21v46.208h46.21v-46.208Z"
        />
        <path
          stroke="#0a0a0a"
          stroke-width="1.155"
          d="M1634.21 489.577h-45.06v45.053h45.06v-45.053Zm-47.37 0h-45.05v45.053h45.05v-45.053Zm-47.36 0h-45.05v45.053h45.05v-45.053Zm-47.36 0h-45.06v45.053h45.06v-45.053Zm-47.37 0h-45.05v45.053h45.05v-45.053Zm-47.36 0h-45.05v45.053h45.05v-45.053Zm-47.36 0h-45.06v45.053h45.06v-45.053Zm-47.37 0h-45.05v45.053h45.05v-45.053Zm-47.36 0h-45.05v45.053h45.05v-45.053Zm-47.36 0h-45.06v45.053h45.06v-45.053Zm-47.37 0h-45.05v45.053h45.05v-45.053Zm-47.36 0h-45.05v45.053h45.05v-45.053Zm-47.36 0h-45.06v45.053h45.06v-45.053Zm-47.37 0h-45.052v45.053h45.052v-45.053Zm-47.362 0h-45.053v45.053h45.053v-45.053Zm-47.364 0h-45.053v45.053h45.053v-45.053Z"
        />
        <path
          fill="#0b0b0b"
          d="M876.969 488.999H830.76v46.208h46.209v-46.208Z"
        />
        <path
          stroke="#0a0a0a"
          stroke-width="1.155"
          d="M829.027 489.577h-45.053v45.053h45.053v-45.053Zm-47.364 0H736.61v45.053h45.053v-45.053Zm-47.363 0h-45.053v45.053H734.3v-45.053Zm-47.364 0h-45.053v45.053h45.053v-45.053Zm-47.363 0H594.52v45.053h45.053v-45.053Zm-47.364 0h-45.053v45.053h45.053v-45.053Z"
        />
        <path
          fill="#0b0b0b"
          d="M545.424 488.999h-46.209v46.208h46.209v-46.208Z"
        />
        <path
          stroke="#0a0a0a"
          stroke-width="1.155"
          d="M497.482 489.577h-45.053v45.053h45.053v-45.053Zm-47.364 0h-45.053v45.053h45.053v-45.053Zm-47.363 0h-45.053v45.053h45.053v-45.053Zm-47.364 0h-45.053v45.053h45.053v-45.053Zm-47.363 0h-45.053v45.053h45.053v-45.053Zm-47.364 0h-45.053v45.053h45.053v-45.053Zm-47.363 0h-45.053v45.053h45.053v-45.053Z"
        />
        <path
          fill="#0b0b0b"
          d="M166.516 488.999h-46.209v46.208h46.209v-46.208Z"
        />
        <path
          stroke="#0a0a0a"
          stroke-width="1.155"
          d="M118.574 489.577H73.521v45.053h45.053v-45.053Zm-47.364 0H26.157v45.053H71.21v-45.053Zm-47.363 0h-45.053v45.053h45.053v-45.053ZM2155.21 536.94h-45.06v45.053h45.06V536.94Zm-47.37 0h-45.05v45.053h45.05V536.94Z"
        />
        <path
          fill="#0b0b0b"
          d="M2061.06 536.362h-46.21v46.209h46.21v-46.209Z"
        />
        <path
          stroke="#0a0a0a"
          stroke-width="1.155"
          d="M2013.12 536.94h-45.06v45.053h45.06V536.94Zm-47.37 0h-45.05v45.053h45.05V536.94Zm-47.36 0h-45.05v45.053h45.05V536.94Zm-47.36 0h-45.06v45.053h45.06V536.94Zm-47.37 0h-45.05v45.053h45.05V536.94Zm-47.36 0h-45.06v45.053h45.06V536.94Zm-47.37 0h-45.05v45.053h45.05V536.94Zm-47.36 0h-45.05v45.053h45.05V536.94Zm-47.36 0h-45.06v45.053h45.06V536.94Zm-47.37 0h-45.05v45.053h45.05V536.94Zm-47.36 0h-45.05v45.053h45.05V536.94Zm-47.36 0h-45.06v45.053h45.06V536.94Zm-47.37 0h-45.05v45.053h45.05V536.94Zm-47.36 0h-45.05v45.053h45.05V536.94Zm-47.36 0h-45.06v45.053h45.06V536.94Zm-47.37 0h-45.05v45.053h45.05V536.94Z"
        />
        <path
          fill="#0b0b0b"
          d="M1255.88 536.362h-46.21v46.209h46.21v-46.209Z"
        />

        <path
          stroke="#0a0a0a"
          stroke-width="2.31"
          d="M1208.51 536.362h-46.21v46.209h46.21v-46.209Zm-47.36 0h-46.21v46.209h46.21v-46.209Zm-47.36 0h-46.21v46.209h46.21v-46.209Zm-47.37 0h-46.21v46.209h46.21v-46.209Zm-47.36 0h-46.21v46.209h46.21v-46.209Zm-47.365 0h-46.208v46.209h46.208v-46.209Zm-47.363 0h-46.209v46.209h46.209v-46.209Zm-47.364 0H830.76v46.209h46.208v-46.209Zm-47.364 0h-46.208v46.209h46.208v-46.209Zm-47.363 0h-46.208v46.209h46.208v-46.209Zm-47.364 0h-46.208v46.209h46.208v-46.209Zm-47.363 0h-46.208v46.209h46.208v-46.209Zm-47.364 0h-46.208v46.209h46.208v-46.209Zm-47.363 0h-46.209v46.209h46.209v-46.209Zm-47.364 0h-46.208v46.209h46.208v-46.209Zm-47.363 0h-46.209v46.209h46.209v-46.209Zm-47.364 0h-46.208v46.209h46.208v-46.209Zm-47.363 0h-46.209v46.209h46.209v-46.209Zm-47.364 0h-46.208v46.209h46.208v-46.209Zm-47.363 0h-46.209v46.209h46.209v-46.209Zm-47.364 0h-46.208v46.209h46.208v-46.209Zm-47.364 0H167.67v46.209h46.208v-46.209Zm-47.363 0h-46.208v46.209h46.208v-46.209Zm-47.364 0H72.943v46.209h46.208v-46.209Zm-47.363 0H25.58v46.209h46.208v-46.209Zm-47.364 0h-46.208v46.209h46.208v-46.209Zm2131.356 47.364h-46.2v46.208h46.2v-46.208Zm-47.36 0h-46.21v46.208h46.21v-46.208Zm-47.36 0h-46.21v46.208h46.21v-46.208Zm-47.37 0h-46.21v46.208h46.21v-46.208Zm-47.36 0h-46.21v46.208h46.21v-46.208Zm-47.36 0h-46.21v46.208h46.21v-46.208Zm-47.37 0h-46.21v46.208h46.21v-46.208Zm-47.36 0h-46.21v46.208h46.21v-46.208Zm-47.36 0h-46.21v46.208h46.21v-46.208Zm-47.37 0h-46.21v46.208h46.21v-46.208Zm-47.36 0h-46.21v46.208h46.21v-46.208Zm-47.37 0h-46.2v46.208h46.2v-46.208Zm-47.36 0h-46.21v46.208h46.21v-46.208Zm-47.36 0h-46.21v46.208h46.21v-46.208Zm-47.37 0h-46.2v46.208h46.2v-46.208Zm-47.36 0h-46.21v46.208h46.21v-46.208Zm-47.36 0h-46.21v46.208h46.21v-46.208Zm-47.37 0h-46.2v46.208h46.2v-46.208Zm-47.36 0h-46.21v46.208h46.21v-46.208Zm-47.36 0h-46.21v46.208h46.21v-46.208Zm-47.37 0h-46.21v46.208h46.21v-46.208Zm-47.36 0h-46.21v46.208h46.21v-46.208Zm-47.36 0h-46.21v46.208h46.21v-46.208Zm-47.37 0h-46.21v46.208h46.21v-46.208Zm-47.36 0h-46.21v46.208h46.21v-46.208Zm-47.365 0h-46.208v46.208h46.208v-46.208Zm-47.363 0h-46.209v46.208h46.209v-46.208Zm-47.364 0H830.76v46.208h46.208v-46.208Zm-47.364 0h-46.208v46.208h46.208v-46.208Zm-47.363 0h-46.208v46.208h46.208v-46.208Zm-47.364 0h-46.208v46.208h46.208v-46.208Zm-47.363 0h-46.208v46.208h46.208v-46.208Zm-47.364 0h-46.208v46.208h46.208v-46.208Zm-47.363 0h-46.209v46.208h46.209v-46.208Zm-47.364 0h-46.208v46.208h46.208v-46.208Zm-47.363 0h-46.209v46.208h46.209v-46.208Zm-47.364 0h-46.208v46.208h46.208v-46.208Zm-47.363 0h-46.209v46.208h46.209v-46.208Zm-47.364 0h-46.208v46.208h46.208v-46.208Zm-47.363 0h-46.209v46.208h46.209v-46.208Zm-47.364 0h-46.208v46.208h46.208v-46.208Zm-47.364 0H167.67v46.208h46.208v-46.208Zm-47.363 0h-46.208v46.208h46.208v-46.208Zm-47.364 0H72.943v46.208h46.208v-46.208Zm-47.363 0H25.58v46.208h46.208v-46.208Zm-47.364 0h-46.208v46.208h46.208v-46.208ZM2155.78 631.09h-46.2v46.208h46.2V631.09Zm-47.36 0h-46.21v46.208h46.21V631.09Zm-47.36 0h-46.21v46.208h46.21V631.09Zm-47.37 0h-46.21v46.208h46.21V631.09Zm-47.36 0h-46.21v46.208h46.21V631.09Zm-47.36 0h-46.21v46.208h46.21V631.09Zm-47.37 0h-46.21v46.208h46.21V631.09Zm-47.36 0h-46.21v46.208h46.21V631.09Zm-47.36 0h-46.21v46.208h46.21V631.09Zm-47.37 0h-46.21v46.208h46.21V631.09Zm-47.36 0h-46.21v46.208h46.21V631.09Zm-47.37 0h-46.2v46.208h46.2V631.09Zm-47.36 0h-46.21v46.208h46.21V631.09Zm-47.36 0h-46.21v46.208h46.21V631.09Zm-47.37 0h-46.2v46.208h46.2V631.09Zm-47.36 0h-46.21v46.208h46.21V631.09Zm-47.36 0h-46.21v46.208h46.21V631.09Zm-47.37 0h-46.2v46.208h46.2V631.09Zm-47.36 0h-46.21v46.208h46.21V631.09Zm-47.36 0h-46.21v46.208h46.21V631.09Zm-47.37 0h-46.21v46.208h46.21V631.09Zm-47.36 0h-46.21v46.208h46.21V631.09Zm-47.36 0h-46.21v46.208h46.21V631.09Zm-47.37 0h-46.21v46.208h46.21V631.09Zm-47.36 0h-46.21v46.208h46.21V631.09Zm-47.365 0h-46.208v46.208h46.208V631.09Zm-47.363 0h-46.209v46.208h46.209V631.09Zm-47.364 0H830.76v46.208h46.208V631.09Zm-47.364 0h-46.208v46.208h46.208V631.09Zm-47.363 0h-46.208v46.208h46.208V631.09Zm-47.364 0h-46.208v46.208h46.208V631.09Zm-47.363 0h-46.208v46.208h46.208V631.09Zm-47.364 0h-46.208v46.208h46.208V631.09Zm-47.363 0h-46.209v46.208h46.209V631.09Zm-47.364 0h-46.208v46.208h46.208V631.09Zm-47.363 0h-46.209v46.208h46.209V631.09Zm-47.364 0h-46.208v46.208h46.208V631.09Zm-47.363 0h-46.209v46.208h46.209V631.09Zm-47.364 0h-46.208v46.208h46.208V631.09Zm-47.363 0h-46.209v46.208h46.209V631.09Zm-47.364 0h-46.208v46.208h46.208V631.09Zm-47.364 0H167.67v46.208h46.208V631.09Zm-47.363 0h-46.208v46.208h46.208V631.09Zm-47.364 0H72.943v46.208h46.208V631.09Zm-47.363 0H25.58v46.208h46.208V631.09Zm-47.364 0h-46.208v46.208h46.208V631.09Zm2131.356 47.363h-46.2v46.208h46.2v-46.208Zm-47.36 0h-46.21v46.208h46.21v-46.208Zm-47.36 0h-46.21v46.208h46.21v-46.208Zm-47.37 0h-46.21v46.208h46.21v-46.208Zm-47.36 0h-46.21v46.208h46.21v-46.208Zm-47.36 0h-46.21v46.208h46.21v-46.208Zm-47.37 0h-46.21v46.208h46.21v-46.208Zm-47.36 0h-46.21v46.208h46.21v-46.208Zm-47.36 0h-46.21v46.208h46.21v-46.208Zm-47.37 0h-46.21v46.208h46.21v-46.208Zm-47.36 0h-46.21v46.208h46.21v-46.208Zm-47.37 0h-46.2v46.208h46.2v-46.208Zm-47.36 0h-46.21v46.208h46.21v-46.208Zm-47.36 0h-46.21v46.208h46.21v-46.208Zm-47.37 0h-46.2v46.208h46.2v-46.208Zm-47.36 0h-46.21v46.208h46.21v-46.208Zm-47.36 0h-46.21v46.208h46.21v-46.208Zm-47.37 0h-46.2v46.208h46.2v-46.208Zm-47.36 0h-46.21v46.208h46.21v-46.208Zm-47.36 0h-46.21v46.208h46.21v-46.208Zm-47.37 0h-46.21v46.208h46.21v-46.208Zm-47.36 0h-46.21v46.208h46.21v-46.208Zm-47.36 0h-46.21v46.208h46.21v-46.208Zm-47.37 0h-46.21v46.208h46.21v-46.208Zm-47.36 0h-46.21v46.208h46.21v-46.208Zm-47.365 0h-46.208v46.208h46.208v-46.208Zm-47.363 0h-46.209v46.208h46.209v-46.208Zm-47.364 0H830.76v46.208h46.208v-46.208Zm-47.364 0h-46.208v46.208h46.208v-46.208Z"
        />
        <path
          fill="#0b0b0b"
          d="M782.241 678.453h-46.208v46.208h46.208v-46.208Z"
        />
        <path
          stroke="#0a0a0a"
          stroke-width="1.155"
          d="M734.3 679.031h-45.053v45.053H734.3v-45.053Zm-47.364 0h-45.053v45.053h45.053v-45.053Zm-47.363 0H594.52v45.053h45.053v-45.053Zm-47.364 0h-45.053v45.053h45.053v-45.053Zm-47.363 0h-45.053v45.053h45.053v-45.053Zm-47.364 0h-45.053v45.053h45.053v-45.053Zm-47.363 0h-45.054v45.053h45.054v-45.053Zm-47.364 0h-45.053v45.053h45.053v-45.053Zm-47.364 0h-45.053v45.053h45.053v-45.053Zm-47.363 0h-45.053v45.053h45.053v-45.053Zm-47.364 0h-45.053v45.053h45.053v-45.053Zm-47.363 0h-45.053v45.053h45.053v-45.053Zm-47.364 0h-45.053v45.053h45.053v-45.053Zm-47.363 0H73.521v45.053h45.053v-45.053Zm-47.364 0H26.157v45.053H71.21v-45.053Zm-47.363 0h-45.053v45.053h45.053v-45.053Zm2131.363 47.363h-45.06v45.053h45.06v-45.053Zm-47.37 0h-45.05v45.053h45.05v-45.053Zm-47.36 0h-45.05v45.053h45.05v-45.053Zm-47.36 0h-45.06v45.053h45.06v-45.053Zm-47.37 0h-45.05v45.053h45.05v-45.053Zm-47.36 0h-45.05v45.053h45.05v-45.053Zm-47.37 0h-45.05v45.053h45.05v-45.053Z"
        />
        <path
          fill="#0b0b0b"
          d="M1824.24 725.817h-46.21v46.208h46.21v-46.208Z"
        />
        <path
          stroke="#0a0a0a"
          stroke-width="1.155"
          d="M1776.3 726.394h-45.06v45.053h45.06v-45.053Zm-47.37 0h-45.05v45.053h45.05v-45.053Zm-47.36 0h-45.05v45.053h45.05v-45.053Zm-47.36 0h-45.06v45.053h45.06v-45.053Zm-47.37 0h-45.05v45.053h45.05v-45.053Zm-47.36 0h-45.05v45.053h45.05v-45.053Zm-47.36 0h-45.06v45.053h45.06v-45.053Zm-47.37 0h-45.05v45.053h45.05v-45.053Zm-47.36 0h-45.05v45.053h45.05v-45.053Z"
        />
        <path fill="#0b0b0b" d="M1350.6 725.817h-46.2v46.208h46.2v-46.208Z" />

        <path
          stroke="#0a0a0a"
          stroke-width="2.31"
          d="M1303.24 725.817h-46.21v46.208h46.21v-46.208Zm-47.36 0h-46.21v46.208h46.21v-46.208Zm-47.37 0h-46.21v46.208h46.21v-46.208Zm-47.36 0h-46.21v46.208h46.21v-46.208Zm-47.36 0h-46.21v46.208h46.21v-46.208Zm-47.37 0h-46.21v46.208h46.21v-46.208Zm-47.36 0h-46.21v46.208h46.21v-46.208Zm-47.365 0h-46.208v46.208h46.208v-46.208Zm-47.363 0h-46.209v46.208h46.209v-46.208Zm-47.364 0H830.76v46.208h46.208v-46.208Zm-47.364 0h-46.208v46.208h46.208v-46.208Zm-47.363 0h-46.208v46.208h46.208v-46.208Zm-47.364 0h-46.208v46.208h46.208v-46.208Zm-47.363 0h-46.208v46.208h46.208v-46.208Zm-47.364 0h-46.208v46.208h46.208v-46.208Zm-47.363 0h-46.209v46.208h46.209v-46.208Zm-47.364 0h-46.208v46.208h46.208v-46.208Zm-47.363 0h-46.209v46.208h46.209v-46.208Zm-47.364 0h-46.208v46.208h46.208v-46.208Zm-47.363 0h-46.209v46.208h46.209v-46.208Zm-47.364 0h-46.208v46.208h46.208v-46.208Zm-47.363 0h-46.209v46.208h46.209v-46.208Zm-47.364 0h-46.208v46.208h46.208v-46.208Zm-47.364 0H167.67v46.208h46.208v-46.208Zm-47.363 0h-46.208v46.208h46.208v-46.208Zm-47.364 0H72.943v46.208h46.208v-46.208Zm-47.363 0H25.58v46.208h46.208v-46.208Zm-47.364 0h-46.208v46.208h46.208v-46.208ZM2155.78 773.18h-46.2v46.209h46.2V773.18Zm-47.36 0h-46.21v46.209h46.21V773.18Zm-47.36 0h-46.21v46.209h46.21V773.18Zm-47.37 0h-46.21v46.209h46.21V773.18Zm-47.36 0h-46.21v46.209h46.21V773.18Zm-47.36 0h-46.21v46.209h46.21V773.18Zm-47.37 0h-46.21v46.209h46.21V773.18Zm-47.36 0h-46.21v46.209h46.21V773.18Zm-47.36 0h-46.21v46.209h46.21V773.18Zm-47.37 0h-46.21v46.209h46.21V773.18Zm-47.36 0h-46.21v46.209h46.21V773.18Zm-47.37 0h-46.2v46.209h46.2V773.18Zm-47.36 0h-46.21v46.209h46.21V773.18Zm-47.36 0h-46.21v46.209h46.21V773.18Zm-47.37 0h-46.2v46.209h46.2V773.18Zm-47.36 0h-46.21v46.209h46.21V773.18Zm-47.36 0h-46.21v46.209h46.21V773.18Zm-47.37 0h-46.2v46.209h46.2V773.18Zm-47.36 0h-46.21v46.209h46.21V773.18Zm-47.36 0h-46.21v46.209h46.21V773.18Zm-47.37 0h-46.21v46.209h46.21V773.18Zm-47.36 0h-46.21v46.209h46.21V773.18Z"
        />
        <path fill="#0b0b0b" d="M1113.79 773.18h-46.21v46.209h46.21V773.18Z" />
        <path
          stroke="#0a0a0a"
          stroke-width="1.155"
          d="M1065.84 773.758h-45.05v45.053h45.05v-45.053Zm-47.36 0h-45.052v45.053h45.052v-45.053Zm-47.362 0h-45.053v45.053h45.053v-45.053Zm-47.364 0h-45.053v45.053h45.053v-45.053Zm-47.363 0h-45.054v45.053h45.054v-45.053Zm-47.364 0h-45.053v45.053h45.053v-45.053Zm-47.363 0H736.61v45.053h45.054v-45.053Zm-47.364 0h-45.053v45.053H734.3v-45.053Zm-47.364 0h-45.053v45.053h45.053v-45.053Zm-47.363 0H594.52v45.053h45.053v-45.053Zm-47.364 0h-45.053v45.053h45.053v-45.053Z"
        />
        <path
          fill="#0b0b0b"
          d="M545.424 773.18h-46.209v46.209h46.209V773.18Z"
        />
        <path
          stroke="#0a0a0a"
          stroke-width="1.155"
          d="M497.482 773.758h-45.053v45.053h45.053v-45.053Zm-47.364 0h-45.053v45.053h45.053v-45.053Zm-47.363 0h-45.053v45.053h45.053v-45.053Zm-47.364 0h-45.053v45.053h45.053v-45.053Zm-47.363 0h-45.053v45.053h45.053v-45.053Z"
        />
        <path
          fill="#0b0b0b"
          d="M261.242 773.18h-46.208v46.209h46.208V773.18Z"
        />
        <path
          stroke="#0a0a0a"
          stroke-width="1.155"
          d="M213.301 773.758h-45.053v45.053h45.053v-45.053Zm-47.364 0h-45.053v45.053h45.053v-45.053Zm-47.363 0H73.521v45.053h45.053v-45.053Zm-47.364 0H26.157v45.053H71.21v-45.053Zm-47.363 0h-45.053v45.053h45.053v-45.053Zm2131.363 47.363h-45.06v45.053h45.06v-45.053Zm-47.37 0h-45.05v45.053h45.05v-45.053Zm-47.36 0h-45.05v45.053h45.05v-45.053Zm-47.36 0h-45.06v45.053h45.06v-45.053Zm-47.37 0h-45.05v45.053h45.05v-45.053Zm-47.36 0h-45.05v45.053h45.05v-45.053Zm-47.37 0h-45.05v45.053h45.05v-45.053Zm-47.36 0h-45.05v45.053h45.05v-45.053Zm-47.36 0h-45.06v45.053h45.06v-45.053Zm-47.37 0h-45.05v45.053h45.05v-45.053Zm-47.36 0h-45.05v45.053h45.05v-45.053Zm-47.36 0h-45.06v45.053h45.06v-45.053Zm-47.37 0h-45.05v45.053h45.05v-45.053Z"
        />
        <path
          fill="#0b0b0b"
          d="M1540.06 820.544h-46.21v46.208h46.21v-46.208Z"
        />

        <path
          stroke="#0a0a0a"
          stroke-width="2.31"
          d="M1492.69 820.544h-46.2v46.208h46.2v-46.208Zm-47.36 0h-46.21v46.208h46.21v-46.208Zm-47.36 0h-46.21v46.208h46.21v-46.208Zm-47.37 0h-46.2v46.208h46.2v-46.208Zm-47.36 0h-46.21v46.208h46.21v-46.208Zm-47.36 0h-46.21v46.208h46.21v-46.208Zm-47.37 0h-46.21v46.208h46.21v-46.208Zm-47.36 0h-46.21v46.208h46.21v-46.208Zm-47.36 0h-46.21v46.208h46.21v-46.208Zm-47.37 0h-46.21v46.208h46.21v-46.208Zm-47.36 0h-46.21v46.208h46.21v-46.208Zm-47.365 0h-46.208v46.208h46.208v-46.208Zm-47.363 0h-46.209v46.208h46.209v-46.208Zm-47.364 0H830.76v46.208h46.208v-46.208Zm-47.364 0h-46.208v46.208h46.208v-46.208Zm-47.363 0h-46.208v46.208h46.208v-46.208Zm-47.364 0h-46.208v46.208h46.208v-46.208Zm-47.363 0h-46.208v46.208h46.208v-46.208Zm-47.364 0h-46.208v46.208h46.208v-46.208Zm-47.363 0h-46.209v46.208h46.209v-46.208Zm-47.364 0h-46.208v46.208h46.208v-46.208Zm-47.363 0h-46.209v46.208h46.209v-46.208Zm-47.364 0h-46.208v46.208h46.208v-46.208Zm-47.363 0h-46.209v46.208h46.209v-46.208Zm-47.364 0h-46.208v46.208h46.208v-46.208Zm-47.363 0h-46.209v46.208h46.209v-46.208Zm-47.364 0h-46.208v46.208h46.208v-46.208Zm-47.364 0H167.67v46.208h46.208v-46.208Zm-47.363 0h-46.208v46.208h46.208v-46.208Zm-47.364 0H72.943v46.208h46.208v-46.208Zm-47.363 0H25.58v46.208h46.208v-46.208Zm-47.364 0h-46.208v46.208h46.208v-46.208Zm2131.356 47.363h-46.2v46.209h46.2v-46.209Zm-47.36 0h-46.21v46.209h46.21v-46.209Z"
        />
        <path
          fill="#0b0b0b"
          d="M2061.06 867.907h-46.21v46.209h46.21v-46.209Z"
        />

        <path
          stroke="#0a0a0a"
          stroke-width="2.31"
          d="M2013.69 867.907h-46.2v46.209h46.2v-46.209Zm-47.36 0h-46.21v46.209h46.21v-46.209Zm-47.36 0h-46.21v46.209h46.21v-46.209Zm-47.37 0h-46.21v46.209h46.21v-46.209Zm-47.36 0h-46.21v46.209h46.21v-46.209Zm-47.36 0h-46.21v46.209h46.21v-46.209Zm-47.37 0h-46.21v46.209h46.21v-46.209Zm-47.36 0h-46.21v46.209h46.21v-46.209Zm-47.36 0h-46.21v46.209h46.21v-46.209Zm-47.37 0h-46.21v46.209h46.21v-46.209Zm-47.36 0h-46.21v46.209h46.21v-46.209Zm-47.37 0h-46.2v46.209h46.2v-46.209Zm-47.36 0h-46.21v46.209h46.21v-46.209Zm-47.36 0h-46.21v46.209h46.21v-46.209Zm-47.37 0h-46.2v46.209h46.2v-46.209Zm-47.36 0h-46.21v46.209h46.21v-46.209Zm-47.36 0h-46.21v46.209h46.21v-46.209Zm-47.37 0h-46.21v46.209h46.21v-46.209Zm-47.36 0h-46.21v46.209h46.21v-46.209Zm-47.36 0h-46.21v46.209h46.21v-46.209Zm-47.37 0h-46.21v46.209h46.21v-46.209Zm-47.36 0h-46.209v46.209h46.209v-46.209Zm-47.365 0h-46.208v46.209h46.208v-46.209Zm-47.363 0h-46.208v46.209h46.208v-46.209Zm-47.364 0H830.76v46.209h46.208v-46.209Zm-47.363 0h-46.209v46.209h46.209v-46.209Zm-47.364 0h-46.208v46.209h46.208v-46.209Zm-47.363 0h-46.209v46.209h46.209v-46.209Zm-47.364 0h-46.208v46.209h46.208v-46.209Z"
        />
        <path
          fill="#0b0b0b"
          d="M640.15 867.907h-46.208v46.209h46.208v-46.209Z"
        />

        <path
          stroke="#0a0a0a"
          stroke-width="2.31"
          d="M592.787 867.907h-46.209v46.209h46.209v-46.209Zm-47.364 0h-46.208v46.209h46.208v-46.209Zm-47.363 0h-46.209v46.209h46.209v-46.209Zm-47.364 0h-46.208v46.209h46.208v-46.209Zm-47.363 0h-46.209v46.209h46.209v-46.209Zm-47.364 0h-46.208v46.209h46.208v-46.209Zm-47.363 0h-46.209v46.209h46.209v-46.209Zm-47.364 0h-46.208v46.209h46.208v-46.209Zm-47.364 0H167.67v46.209h46.208v-46.209Zm-47.363 0h-46.208v46.209h46.208v-46.209Zm-47.364 0H72.943v46.209h46.208v-46.209Zm-47.363 0H25.58v46.209h46.208v-46.209Zm-47.364 0h-46.208v46.209h46.208v-46.209Zm2131.356 47.364h-46.2v46.208h46.2v-46.208Zm-47.36 0h-46.21v46.208h46.21v-46.208Zm-47.36 0h-46.21v46.208h46.21v-46.208Zm-47.37 0h-46.21v46.208h46.21v-46.208Zm-47.36 0h-46.21v46.208h46.21v-46.208Zm-47.36 0h-46.21v46.208h46.21v-46.208Zm-47.37 0h-46.21v46.208h46.21v-46.208Zm-47.36 0h-46.21v46.208h46.21v-46.208Zm-47.36 0h-46.21v46.208h46.21v-46.208Zm-47.37 0h-46.21v46.208h46.21v-46.208Zm-47.36 0h-46.21v46.208h46.21v-46.208Zm-47.37 0h-46.2v46.208h46.2v-46.208Zm-47.36 0h-46.21v46.208h46.21v-46.208Zm-47.36 0h-46.21v46.208h46.21v-46.208Zm-47.37 0h-46.2v46.208h46.2v-46.208Zm-47.36 0h-46.21v46.208h46.21v-46.208Zm-47.36 0h-46.21v46.208h46.21v-46.208Zm-47.37 0h-46.2v46.208h46.2v-46.208Zm-47.36 0h-46.21v46.208h46.21v-46.208Zm-47.36 0h-46.21v46.208h46.21v-46.208Zm-47.37 0h-46.21v46.208h46.21v-46.208Zm-47.36 0h-46.21v46.208h46.21v-46.208Zm-47.36 0h-46.21v46.208h46.21v-46.208Zm-47.37 0h-46.21v46.208h46.21v-46.208Zm-47.36 0h-46.21v46.208h46.21v-46.208Zm-47.365 0h-46.208v46.208h46.208v-46.208Zm-47.363 0h-46.209v46.208h46.209v-46.208Zm-47.364 0H830.76v46.208h46.208v-46.208Zm-47.364 0h-46.208v46.208h46.208v-46.208Zm-47.363 0h-46.208v46.208h46.208v-46.208Zm-47.364 0h-46.208v46.208h46.208v-46.208Zm-47.363 0h-46.208v46.208h46.208v-46.208Zm-47.364 0h-46.208v46.208h46.208v-46.208Zm-47.363 0h-46.209v46.208h46.209v-46.208Zm-47.364 0h-46.208v46.208h46.208v-46.208Zm-47.363 0h-46.209v46.208h46.209v-46.208Zm-47.364 0h-46.208v46.208h46.208v-46.208Zm-47.363 0h-46.209v46.208h46.209v-46.208Zm-47.364 0h-46.208v46.208h46.208v-46.208Zm-47.363 0h-46.209v46.208h46.209v-46.208Zm-47.364 0h-46.208v46.208h46.208v-46.208Zm-47.364 0H167.67v46.208h46.208v-46.208Zm-47.363 0h-46.208v46.208h46.208v-46.208Zm-47.364 0H72.943v46.208h46.208v-46.208Zm-47.363 0H25.58v46.208h46.208v-46.208Zm-47.364 0h-46.208v46.208h46.208v-46.208Zm2131.356 47.363h-46.2v46.206h46.2v-46.206Zm-47.36 0h-46.21v46.206h46.21v-46.206Zm-47.36 0h-46.21v46.206h46.21v-46.206Zm-47.37 0h-46.21v46.206h46.21v-46.206Zm-47.36 0h-46.21v46.206h46.21v-46.206Z"
        />
        <path
          fill="#0b0b0b"
          d="M1918.97 962.634h-46.21v46.206h46.21v-46.206Z"
        />

        <path
          stroke="#0a0a0a"
          stroke-width="2.31"
          d="M1871.6 962.634h-46.21v46.206h46.21v-46.206Zm-47.36 0h-46.21v46.206h46.21v-46.206Zm-47.36 0h-46.21v46.206h46.21v-46.206Zm-47.37 0h-46.21v46.206h46.21v-46.206Zm-47.36 0h-46.21v46.206h46.21v-46.206Zm-47.37 0h-46.2v46.206h46.2v-46.206Zm-47.36 0h-46.21v46.206h46.21v-46.206Zm-47.36 0h-46.21v46.206h46.21v-46.206Zm-47.37 0h-46.2v46.206h46.2v-46.206Zm-47.36 0h-46.21v46.206h46.21v-46.206Zm-47.36 0h-46.21v46.206h46.21v-46.206Zm-47.37 0h-46.2v46.206h46.2v-46.206Zm-47.36 0h-46.21v46.206h46.21v-46.206Zm-47.36 0h-46.21v46.206h46.21v-46.206Zm-47.37 0h-46.21v46.206h46.21v-46.206Zm-47.36 0h-46.21v46.206h46.21v-46.206Zm-47.36 0h-46.21v46.206h46.21v-46.206Zm-47.37 0h-46.21v46.206h46.21v-46.206Zm-47.36 0h-46.21v46.206h46.21v-46.206Zm-47.365 0h-46.208v46.206h46.208v-46.206Zm-47.363 0h-46.209v46.206h46.209v-46.206Zm-47.364 0H830.76v46.206h46.208v-46.206Zm-47.364 0h-46.208v46.206h46.208v-46.206Zm-47.363 0h-46.208v46.206h46.208v-46.206Zm-47.364 0h-46.208v46.206h46.208v-46.206Zm-47.363 0h-46.208v46.206h46.208v-46.206Zm-47.364 0h-46.208v46.206h46.208v-46.206Zm-47.363 0h-46.209v46.206h46.209v-46.206Zm-47.364 0h-46.208v46.206h46.208v-46.206Zm-47.363 0h-46.209v46.206h46.209v-46.206Zm-47.364 0h-46.208v46.206h46.208v-46.206Zm-47.363 0h-46.209v46.206h46.209v-46.206Zm-47.364 0h-46.208v46.206h46.208v-46.206Zm-47.363 0h-46.209v46.206h46.209v-46.206Zm-47.364 0h-46.208v46.206h46.208v-46.206Zm-47.364 0H167.67v46.206h46.208v-46.206Zm-47.363 0h-46.208v46.206h46.208v-46.206Zm-47.364 0H72.943v46.206h46.208v-46.206Zm-47.363 0H25.58v46.206h46.208v-46.206Zm-47.364 0h-46.208v46.206h46.208v-46.206ZM2155.78 1010h-46.2v46.21h46.2V1010Zm-47.36 0h-46.21v46.21h46.21V1010Zm-47.36 0h-46.21v46.21h46.21V1010Zm-47.37 0h-46.21v46.21h46.21V1010Zm-47.36 0h-46.21v46.21h46.21V1010Zm-47.36 0h-46.21v46.21h46.21V1010Zm-47.37 0h-46.21v46.21h46.21V1010Zm-47.36 0h-46.21v46.21h46.21V1010Zm-47.36 0h-46.21v46.21h46.21V1010Zm-47.37 0h-46.21v46.21h46.21V1010Zm-47.36 0h-46.21v46.21h46.21V1010Zm-47.37 0h-46.2v46.21h46.2V1010Zm-47.36 0h-46.21v46.21h46.21V1010Zm-47.36 0h-46.21v46.21h46.21V1010Zm-47.37 0h-46.2v46.21h46.2V1010Z"
        />
        <path fill="#0b0b0b" d="M1445.33 1010h-46.21v46.21h46.21V1010Z" />
        <path
          stroke="#0a0a0a"
          stroke-width="1.155"
          d="M1397.39 1010.58h-45.05v45.05h45.05v-45.05Zm-47.36 0h-45.06v45.05h45.06v-45.05Zm-47.37 0h-45.05v45.05h45.05v-45.05Zm-47.36 0h-45.05v45.05h45.05v-45.05Zm-47.36 0h-45.06v45.05h45.06v-45.05Zm-47.37 0h-45.05v45.05h45.05v-45.05Zm-47.36 0h-45.05v45.05h45.05v-45.05Zm-47.37 0h-45.05v45.05h45.05v-45.05Zm-47.36 0h-45.052v45.05h45.052v-45.05Zm-47.362 0h-45.053v45.05h45.053v-45.05Z"
        />
        <path fill="#0b0b0b" d="M924.332 1010h-46.208v46.21h46.208V1010Z" />

        <path
          stroke="#0a0a0a"
          stroke-width="2.31"
          d="M876.968 1010H830.76v46.21h46.208V1010Zm-47.364 0h-46.208v46.21h46.208V1010Zm-47.363 0h-46.208v46.21h46.208V1010Zm-47.364 0h-46.208v46.21h46.208V1010Zm-47.363 0h-46.208v46.21h46.208V1010Zm-47.364 0h-46.208v46.21h46.208V1010Zm-47.363 0h-46.209v46.21h46.209V1010Zm-47.364 0h-46.208v46.21h46.208V1010Zm-47.363 0h-46.209v46.21h46.209V1010Zm-47.364 0h-46.208v46.21h46.208V1010Zm-47.363 0h-46.209v46.21h46.209V1010Zm-47.364 0h-46.208v46.21h46.208V1010Zm-47.363 0h-46.209v46.21h46.209V1010Zm-47.364 0h-46.208v46.21h46.208V1010Zm-47.364 0H167.67v46.21h46.208V1010Zm-47.363 0h-46.208v46.21h46.208V1010Zm-47.364 0H72.943v46.21h46.208V1010Zm-47.363 0H25.58v46.21h46.208V1010Zm-47.364 0h-46.208v46.21h46.208V1010Zm2131.356 47.36h-46.2v46.21h46.2v-46.21Zm-47.36 0h-46.21v46.21h46.21v-46.21Zm-47.36 0h-46.21v46.21h46.21v-46.21Zm-47.37 0h-46.21v46.21h46.21v-46.21Zm-47.36 0h-46.21v46.21h46.21v-46.21Zm-47.36 0h-46.21v46.21h46.21v-46.21Zm-47.37 0h-46.21v46.21h46.21v-46.21Zm-47.36 0h-46.21v46.21h46.21v-46.21Zm-47.36 0h-46.21v46.21h46.21v-46.21Zm-47.37 0h-46.21v46.21h46.21v-46.21Z"
        />
        <path fill="#0b0b0b" d="M1682.15 1057.36h-46.21v46.21h46.21v-46.21Z" />

        <path
          stroke="#0a0a0a"
          stroke-width="2.31"
          d="M1634.79 1057.36h-46.21v46.21h46.21v-46.21Zm-47.37 0h-46.21v46.21h46.21v-46.21Zm-47.36 0h-46.21v46.21h46.21v-46.21Zm-47.37 0h-46.2v46.21h46.2v-46.21Zm-47.36 0h-46.21v46.21h46.21v-46.21Zm-47.36 0h-46.21v46.21h46.21v-46.21Zm-47.37 0h-46.2v46.21h46.2v-46.21Zm-47.36 0h-46.21v46.21h46.21v-46.21Zm-47.36 0h-46.21v46.21h46.21v-46.21Zm-47.37 0h-46.21v46.21h46.21v-46.21Zm-47.36 0h-46.21v46.21h46.21v-46.21Zm-47.36 0h-46.21v46.21h46.21v-46.21Zm-47.37 0h-46.21v46.21h46.21v-46.21Zm-47.36 0h-46.209v46.21h46.209v-46.21Zm-47.364 0h-46.209v46.21h46.209v-46.21Zm-47.364 0h-46.208v46.21h46.208v-46.21Zm-47.363 0H830.76v46.21h46.209v-46.21Zm-47.364 0h-46.208v46.21h46.208v-46.21Zm-47.364 0h-46.208v46.21h46.208v-46.21Zm-47.363 0h-46.209v46.21h46.209v-46.21Zm-47.364 0h-46.208v46.21h46.208v-46.21Zm-47.363 0h-46.209v46.21h46.209v-46.21Zm-47.364 0h-46.208v46.21h46.208v-46.21Zm-47.363 0h-46.209v46.21h46.209v-46.21Zm-47.364 0h-46.208v46.21h46.208v-46.21Zm-47.363 0h-46.209v46.21h46.209v-46.21Zm-47.364 0h-46.208v46.21h46.208v-46.21Z"
        />
        <path fill="#0b0b0b" d="M355.969 1057.36H309.76v46.21h46.209v-46.21Z" />

        <path
          stroke="#0a0a0a"
          stroke-width="2.31"
          d="M308.606 1057.36h-46.209v46.21h46.209v-46.21Zm-47.364 0h-46.208v46.21h46.208v-46.21Zm-47.364 0H167.67v46.21h46.208v-46.21Zm-47.363 0h-46.208v46.21h46.208v-46.21Zm-47.364 0H72.943v46.21h46.208v-46.21Zm-47.363 0H25.58v46.21h46.208v-46.21Zm-47.364 0h-46.208v46.21h46.208v-46.21Zm2131.356 47.36h-46.2v46.21h46.2v-46.21Zm-47.36 0h-46.21v46.21h46.21v-46.21Zm-47.36 0h-46.21v46.21h46.21v-46.21Zm-47.37 0h-46.21v46.21h46.21v-46.21Zm-47.36 0h-46.21v46.21h46.21v-46.21Zm-47.36 0h-46.21v46.21h46.21v-46.21Zm-47.37 0h-46.21v46.21h46.21v-46.21Zm-47.36 0h-46.21v46.21h46.21v-46.21Zm-47.36 0h-46.21v46.21h46.21v-46.21Zm-47.37 0h-46.21v46.21h46.21v-46.21Zm-47.36 0h-46.21v46.21h46.21v-46.21Zm-47.37 0h-46.2v46.21h46.2v-46.21Zm-47.36 0h-46.21v46.21h46.21v-46.21Zm-47.36 0h-46.21v46.21h46.21v-46.21Zm-47.37 0h-46.2v46.21h46.2v-46.21Zm-47.36 0h-46.21v46.21h46.21v-46.21Zm-47.36 0h-46.21v46.21h46.21v-46.21Zm-47.37 0h-46.2v46.21h46.2v-46.21Zm-47.36 0h-46.21v46.21h46.21v-46.21Zm-47.36 0h-46.21v46.21h46.21v-46.21Zm-47.37 0h-46.21v46.21h46.21v-46.21Zm-47.36 0h-46.21v46.21h46.21v-46.21Z"
        />
        <path fill="#0b0b0b" d="M1113.79 1104.72h-46.21v46.21h46.21v-46.21Z" />
        <path
          stroke="#0a0a0a"
          stroke-width="1.155"
          d="M1065.84 1105.3h-45.05v45.06h45.05v-45.06Zm-47.36 0h-45.052v45.06h45.052v-45.06Zm-47.362 0h-45.053v45.06h45.053v-45.06Zm-47.364 0h-45.053v45.06h45.053v-45.06Zm-47.363 0h-45.054v45.06h45.054v-45.06Zm-47.364 0h-45.053v45.06h45.053v-45.06Zm-47.363 0H736.61v45.06h45.054v-45.06Zm-47.364 0h-45.053v45.06H734.3v-45.06Zm-47.364 0h-45.053v45.06h45.053v-45.06Zm-47.363 0H594.52v45.06h45.053v-45.06Zm-47.364 0h-45.053v45.06h45.053v-45.06Zm-47.363 0h-45.053v45.06h45.053v-45.06Zm-47.364 0h-45.053v45.06h45.053v-45.06Zm-47.363 0h-45.053v45.06h45.053v-45.06Zm-47.364 0h-45.053v45.06h45.053v-45.06Zm-47.363 0h-45.054v45.06h45.054v-45.06Zm-47.364 0h-45.053v45.06h45.053v-45.06Zm-47.363 0h-45.054v45.06h45.054v-45.06Zm-47.364 0h-45.053v45.06h45.053v-45.06Zm-47.363 0h-45.054v45.06h45.054v-45.06Z"
        />
        <path fill="#0b0b0b" d="M119.151 1104.72H72.943v46.21h46.208v-46.21Z" />

        <path
          stroke="#0a0a0a"
          stroke-width="2.31"
          d="M71.788 1104.72H25.58v46.21h46.208v-46.21Zm-47.364 0h-46.208v46.21h46.208v-46.21Zm2131.356 47.37h-46.2v46.21h46.2v-46.21Zm-47.36 0h-46.21v46.21h46.21v-46.21Zm-47.36 0h-46.21v46.21h46.21v-46.21Zm-47.37 0h-46.21v46.21h46.21v-46.21Zm-47.36 0h-46.21v46.21h46.21v-46.21Zm-47.36 0h-46.21v46.21h46.21v-46.21Zm-47.37 0h-46.21v46.21h46.21v-46.21Zm-47.36 0h-46.21v46.21h46.21v-46.21Zm-47.36 0h-46.21v46.21h46.21v-46.21Zm-47.37 0h-46.21v46.21h46.21v-46.21Zm-47.36 0h-46.21v46.21h46.21v-46.21Zm-47.37 0h-46.2v46.21h46.2v-46.21Zm-47.36 0h-46.21v46.21h46.21v-46.21Zm-47.36 0h-46.21v46.21h46.21v-46.21Zm-47.37 0h-46.2v46.21h46.2v-46.21Zm-47.36 0h-46.21v46.21h46.21v-46.21Zm-47.36 0h-46.21v46.21h46.21v-46.21Zm-47.37 0h-46.2v46.21h46.2v-46.21Zm-47.36 0h-46.21v46.21h46.21v-46.21Zm-47.36 0h-46.21v46.21h46.21v-46.21Zm-47.37 0h-46.21v46.21h46.21v-46.21Zm-47.36 0h-46.21v46.21h46.21v-46.21Zm-47.36 0h-46.21v46.21h46.21v-46.21Zm-47.37 0h-46.21v46.21h46.21v-46.21Zm-47.36 0h-46.21v46.21h46.21v-46.21Zm-47.365 0h-46.208v46.21h46.208v-46.21Zm-47.363 0h-46.209v46.21h46.209v-46.21Zm-47.364 0H830.76v46.21h46.208v-46.21Zm-47.364 0h-46.208v46.21h46.208v-46.21Zm-47.363 0h-46.208v46.21h46.208v-46.21Zm-47.364 0h-46.208v46.21h46.208v-46.21Zm-47.363 0h-46.208v46.21h46.208v-46.21Zm-47.364 0h-46.208v46.21h46.208v-46.21Zm-47.363 0h-46.209v46.21h46.209v-46.21Zm-47.364 0h-46.208v46.21h46.208v-46.21Z"
        />
        <path fill="#0b0b0b" d="M498.06 1152.09h-46.209v46.21h46.209v-46.21Z" />

        <path
          stroke="#0a0a0a"
          stroke-width="2.31"
          d="M450.696 1152.09h-46.208v46.21h46.208v-46.21Zm-47.363 0h-46.209v46.21h46.209v-46.21Zm-47.364 0h-46.208v46.21h46.208v-46.21Zm-47.363 0h-46.209v46.21h46.209v-46.21Zm-47.364 0h-46.208v46.21h46.208v-46.21Zm-47.364 0H167.67v46.21h46.208v-46.21Zm-47.363 0h-46.208v46.21h46.208v-46.21Zm-47.364 0H72.943v46.21h46.208v-46.21Zm-47.363 0H25.58v46.21h46.208v-46.21Zm-47.364 0h-46.208v46.21h46.208v-46.21Zm2131.356 47.36h-46.2v46.21h46.2v-46.21Zm-47.36 0h-46.21v46.21h46.21v-46.21Zm-47.36 0h-46.21v46.21h46.21v-46.21Zm-47.37 0h-46.21v46.21h46.21v-46.21Zm-47.36 0h-46.21v46.21h46.21v-46.21Zm-47.36 0h-46.21v46.21h46.21v-46.21Zm-47.37 0h-46.21v46.21h46.21v-46.21Zm-47.36 0h-46.21v46.21h46.21v-46.21Zm-47.36 0h-46.21v46.21h46.21v-46.21Zm-47.37 0h-46.21v46.21h46.21v-46.21Zm-47.36 0h-46.21v46.21h46.21v-46.21Zm-47.37 0h-46.2v46.21h46.2v-46.21Zm-47.36 0h-46.21v46.21h46.21v-46.21Zm-47.36 0h-46.21v46.21h46.21v-46.21Zm-47.37 0h-46.2v46.21h46.2v-46.21Zm-47.36 0h-46.21v46.21h46.21v-46.21Zm-47.36 0h-46.21v46.21h46.21v-46.21Zm-47.37 0h-46.2v46.21h46.2v-46.21Zm-47.36 0h-46.21v46.21h46.21v-46.21Zm-47.36 0h-46.21v46.21h46.21v-46.21Zm-47.37 0h-46.21v46.21h46.21v-46.21Zm-47.36 0h-46.21v46.21h46.21v-46.21Zm-47.36 0h-46.21v46.21h46.21v-46.21Zm-47.37 0h-46.21v46.21h46.21v-46.21Zm-47.36 0h-46.21v46.21h46.21v-46.21Zm-47.365 0h-46.208v46.21h46.208v-46.21Zm-47.363 0h-46.209v46.21h46.209v-46.21Zm-47.364 0H830.76v46.21h46.208v-46.21Zm-47.364 0h-46.208v46.21h46.208v-46.21Zm-47.363 0h-46.208v46.21h46.208v-46.21Zm-47.364 0h-46.208v46.21h46.208v-46.21Zm-47.363 0h-46.208v46.21h46.208v-46.21Zm-47.364 0h-46.208v46.21h46.208v-46.21Zm-47.363 0h-46.209v46.21h46.209v-46.21Zm-47.364 0h-46.208v46.21h46.208v-46.21Zm-47.363 0h-46.209v46.21h46.209v-46.21Zm-47.364 0h-46.208v46.21h46.208v-46.21Zm-47.363 0h-46.209v46.21h46.209v-46.21Zm-47.364 0h-46.208v46.21h46.208v-46.21Zm-47.363 0h-46.209v46.21h46.209v-46.21Zm-47.364 0h-46.208v46.21h46.208v-46.21Zm-47.364 0H167.67v46.21h46.208v-46.21Zm-47.363 0h-46.208v46.21h46.208v-46.21Zm-47.364 0H72.943v46.21h46.208v-46.21Zm-47.363 0H25.58v46.21h46.208v-46.21Zm-47.364 0h-46.208v46.21h46.208v-46.21Zm2131.356 47.37h-46.2v46.2h46.2v-46.2Zm-47.36 0h-46.21v46.2h46.21v-46.2Zm-47.36 0h-46.21v46.2h46.21v-46.2Z"
        />
        <path fill="#0b0b0b" d="M2013.69 1246.82h-46.2v46.2h46.2v-46.2Z" />
        <path
          stroke="#0a0a0a"
          stroke-width="1.155"
          d="M1965.75 1247.39h-45.05v45.06h45.05v-45.06Zm-47.36 0h-45.05v45.06h45.05v-45.06Zm-47.37 0h-45.05v45.06h45.05v-45.06Zm-47.36 0h-45.05v45.06h45.05v-45.06Zm-47.36 0h-45.06v45.06h45.06v-45.06Zm-47.37 0h-45.05v45.06h45.05v-45.06Zm-47.36 0h-45.05v45.06h45.05v-45.06Zm-47.36 0h-45.06v45.06h45.06v-45.06Zm-47.37 0h-45.05v45.06h45.05v-45.06Zm-47.36 0h-45.05v45.06h45.05v-45.06Zm-47.36 0h-45.06v45.06h45.06v-45.06Z"
        />
        <path fill="#0b0b0b" d="M1445.33 1246.82h-46.21v46.2h46.21v-46.2Z" />
        <path
          stroke="#0a0a0a"
          stroke-width="1.155"
          d="M1397.39 1247.39h-45.05v45.06h45.05v-45.06Zm-47.36 0h-45.06v45.06h45.06v-45.06Zm-47.37 0h-45.05v45.06h45.05v-45.06Zm-47.36 0h-45.05v45.06h45.05v-45.06Zm-47.36 0h-45.06v45.06h45.06v-45.06Zm-47.37 0h-45.05v45.06h45.05v-45.06Zm-47.36 0h-45.05v45.06h45.05v-45.06Zm-47.37 0h-45.05v45.06h45.05v-45.06Zm-47.36 0h-45.052v45.06h45.052v-45.06Z"
        />
        <path fill="#0b0b0b" d="M971.695 1246.82h-46.208v46.2h46.208v-46.2Z" />

        <path
          stroke="#0a0a0a"
          stroke-width="2.31"
          d="M924.332 1246.82h-46.209v46.2h46.209v-46.2Zm-47.364 0H830.76v46.2h46.208v-46.2Zm-47.364 0h-46.208v46.2h46.208v-46.2Zm-47.363 0h-46.208v46.2h46.208v-46.2Zm-47.364 0h-46.208v46.2h46.208v-46.2Zm-47.363 0h-46.208v46.2h46.208v-46.2Zm-47.364 0h-46.208v46.2h46.208v-46.2Zm-47.363 0h-46.209v46.2h46.209v-46.2Zm-47.364 0h-46.208v46.2h46.208v-46.2Zm-47.363 0h-46.209v46.2h46.209v-46.2Zm-47.364 0h-46.208v46.2h46.208v-46.2Zm-47.363 0h-46.209v46.2h46.209v-46.2Zm-47.364 0h-46.208v46.2h46.208v-46.2Zm-47.363 0h-46.209v46.2h46.209v-46.2Zm-47.364 0h-46.208v46.2h46.208v-46.2Zm-47.364 0H167.67v46.2h46.208v-46.2Zm-47.363 0h-46.208v46.2h46.208v-46.2Zm-47.364 0H72.943v46.2h46.208v-46.2Zm-47.363 0H25.58v46.2h46.208v-46.2Zm-47.364 0h-46.208v46.2h46.208v-46.2Zm2131.356 47.36h-46.2v46.21h46.2v-46.21Zm-47.36 0h-46.21v46.21h46.21v-46.21Zm-47.36 0h-46.21v46.21h46.21v-46.21Zm-47.37 0h-46.21v46.21h46.21v-46.21Zm-47.36 0h-46.21v46.21h46.21v-46.21Zm-47.36 0h-46.21v46.21h46.21v-46.21Zm-47.37 0h-46.21v46.21h46.21v-46.21Zm-47.36 0h-46.21v46.21h46.21v-46.21Zm-47.36 0h-46.21v46.21h46.21v-46.21Z"
        />
        <path fill="#0b0b0b" d="M1729.51 1294.18h-46.21v46.21h46.21v-46.21Z" />
        <path
          stroke="#0a0a0a"
          stroke-width="1.155"
          d="M1681.57 1294.76h-45.05v45.05h45.05v-45.05Zm-47.36 0h-45.06v45.05h45.06v-45.05Zm-47.37 0h-45.05v45.05h45.05v-45.05Zm-47.36 0h-45.05v45.05h45.05v-45.05Zm-47.36 0h-45.06v45.05h45.06v-45.05Zm-47.37 0h-45.05v45.05h45.05v-45.05Zm-47.36 0h-45.05v45.05h45.05v-45.05Zm-47.36 0h-45.06v45.05h45.06v-45.05Zm-47.37 0h-45.05v45.05h45.05v-45.05Zm-47.36 0h-45.05v45.05h45.05v-45.05Zm-47.36 0h-45.06v45.05h45.06v-45.05Zm-47.37 0h-45.05v45.05h45.05v-45.05Zm-47.36 0h-45.05v45.05h45.05v-45.05Zm-47.37 0h-45.05v45.05h45.05v-45.05Zm-47.36 0h-45.052v45.05h45.052v-45.05Zm-47.362 0h-45.053v45.05h45.053v-45.05Zm-47.364 0h-45.053v45.05h45.053v-45.05Zm-47.363 0h-45.054v45.05h45.054v-45.05Zm-47.364 0h-45.053v45.05h45.053v-45.05Zm-47.363 0H736.61v45.05h45.054v-45.05Z"
        />
        <path fill="#0b0b0b" d="M734.878 1294.18H688.67v46.21h46.208v-46.21Z" />

        <path
          stroke="#0a0a0a"
          stroke-width="2.31"
          d="M687.514 1294.18h-46.208v46.21h46.208v-46.21Zm-47.364 0h-46.208v46.21h46.208v-46.21Zm-47.363 0h-46.209v46.21h46.209v-46.21Zm-47.364 0h-46.208v46.21h46.208v-46.21Zm-47.363 0h-46.209v46.21h46.209v-46.21Zm-47.364 0h-46.208v46.21h46.208v-46.21Zm-47.363 0h-46.209v46.21h46.209v-46.21Zm-47.364 0h-46.208v46.21h46.208v-46.21Zm-47.363 0h-46.209v46.21h46.209v-46.21Zm-47.364 0h-46.208v46.21h46.208v-46.21Zm-47.364 0H167.67v46.21h46.208v-46.21Zm-47.363 0h-46.208v46.21h46.208v-46.21Zm-47.364 0H72.943v46.21h46.208v-46.21Zm-47.363 0H25.58v46.21h46.208v-46.21Zm-47.364 0h-46.208v46.21h46.208v-46.21Zm2131.356 47.36h-46.2v46.21h46.2v-46.21Zm-47.36 0h-46.21v46.21h46.21v-46.21Zm-47.36 0h-46.21v46.21h46.21v-46.21Zm-47.37 0h-46.21v46.21h46.21v-46.21Zm-47.36 0h-46.21v46.21h46.21v-46.21Zm-47.36 0h-46.21v46.21h46.21v-46.21Zm-47.37 0h-46.21v46.21h46.21v-46.21Zm-47.36 0h-46.21v46.21h46.21v-46.21Zm-47.36 0h-46.21v46.21h46.21v-46.21Zm-47.37 0h-46.21v46.21h46.21v-46.21Zm-47.36 0h-46.21v46.21h46.21v-46.21Zm-47.37 0h-46.2v46.21h46.2v-46.21Zm-47.36 0h-46.21v46.21h46.21v-46.21Zm-47.36 0h-46.21v46.21h46.21v-46.21Zm-47.37 0h-46.2v46.21h46.2v-46.21Zm-47.36 0h-46.21v46.21h46.21v-46.21Zm-47.36 0h-46.21v46.21h46.21v-46.21Zm-47.37 0h-46.2v46.21h46.2v-46.21Zm-47.36 0h-46.21v46.21h46.21v-46.21Zm-47.36 0h-46.21v46.21h46.21v-46.21Zm-47.37 0h-46.21v46.21h46.21v-46.21Zm-47.36 0h-46.21v46.21h46.21v-46.21Zm-47.36 0h-46.21v46.21h46.21v-46.21Zm-47.37 0h-46.21v46.21h46.21v-46.21Zm-47.36 0h-46.21v46.21h46.21v-46.21Zm-47.365 0h-46.208v46.21h46.208v-46.21Zm-47.363 0h-46.209v46.21h46.209v-46.21Zm-47.364 0H830.76v46.21h46.208v-46.21Zm-47.364 0h-46.208v46.21h46.208v-46.21Zm-47.363 0h-46.208v46.21h46.208v-46.21Zm-47.364 0h-46.208v46.21h46.208v-46.21Zm-47.363 0h-46.208v46.21h46.208v-46.21Zm-47.364 0h-46.208v46.21h46.208v-46.21Zm-47.363 0h-46.209v46.21h46.209v-46.21Zm-47.364 0h-46.208v46.21h46.208v-46.21Zm-47.363 0h-46.209v46.21h46.209v-46.21Zm-47.364 0h-46.208v46.21h46.208v-46.21Zm-47.363 0h-46.209v46.21h46.209v-46.21Zm-47.364 0h-46.208v46.21h46.208v-46.21Zm-47.363 0h-46.209v46.21h46.209v-46.21Zm-47.364 0h-46.208v46.21h46.208v-46.21Zm-47.364 0H167.67v46.21h46.208v-46.21Zm-47.363 0h-46.208v46.21h46.208v-46.21Zm-47.364 0H72.943v46.21h46.208v-46.21Zm-47.363 0H25.58v46.21h46.208v-46.21Zm-47.364 0h-46.208v46.21h46.208v-46.21Zm2131.356 47.37h-46.2v46.2h46.2v-46.2Zm-47.36 0h-46.21v46.2h46.21v-46.2Zm-47.36 0h-46.21v46.2h46.21v-46.2Zm-47.37 0h-46.21v46.2h46.21v-46.2Zm-47.36 0h-46.21v46.2h46.21v-46.2Zm-47.36 0h-46.21v46.2h46.21v-46.2Zm-47.37 0h-46.21v46.2h46.21v-46.2Zm-47.36 0h-46.21v46.2h46.21v-46.2Zm-47.36 0h-46.21v46.2h46.21v-46.2Zm-47.37 0h-46.21v46.2h46.21v-46.2Zm-47.36 0h-46.21v46.2h46.21v-46.2Zm-47.37 0h-46.2v46.2h46.2v-46.2Zm-47.36 0h-46.21v46.2h46.21v-46.2Zm-47.36 0h-46.21v46.2h46.21v-46.2Zm-47.37 0h-46.2v46.2h46.2v-46.2Zm-47.36 0h-46.21v46.2h46.21v-46.2Zm-47.36 0h-46.21v46.2h46.21v-46.2Zm-47.37 0h-46.2v46.2h46.2v-46.2Zm-47.36 0h-46.21v46.2h46.21v-46.2Zm-47.36 0h-46.21v46.2h46.21v-46.2Zm-47.37 0h-46.21v46.2h46.21v-46.2Zm-47.36 0h-46.21v46.2h46.21v-46.2Zm-47.36 0h-46.21v46.2h46.21v-46.2Zm-47.37 0h-46.21v46.2h46.21v-46.2Zm-47.36 0h-46.21v46.2h46.21v-46.2Zm-47.365 0h-46.208v46.2h46.208v-46.2Zm-47.363 0h-46.209v46.2h46.209v-46.2Zm-47.364 0H830.76v46.2h46.208v-46.2Zm-47.364 0h-46.208v46.2h46.208v-46.2Zm-47.363 0h-46.208v46.2h46.208v-46.2Zm-47.364 0h-46.208v46.2h46.208v-46.2Zm-47.363 0h-46.208v46.2h46.208v-46.2Zm-47.364 0h-46.208v46.2h46.208v-46.2Zm-47.363 0h-46.209v46.2h46.209v-46.2Zm-47.364 0h-46.208v46.2h46.208v-46.2Z"
        />
        <path fill="#0b0b0b" d="M498.06 1388.91h-46.209v46.2h46.209v-46.2Z" />
        <path
          stroke="#0a0a0a"
          stroke-width="1.155"
          d="M450.119 1389.48h-45.054v45.06h45.054v-45.06Zm-47.364 0h-45.053v45.06h45.053v-45.06Zm-47.364 0h-45.053v45.06h45.053v-45.06Zm-47.363 0h-45.053v45.06h45.053v-45.06Zm-47.364 0h-45.053v45.06h45.053v-45.06Zm-47.363 0h-45.053v45.06h45.053v-45.06Zm-47.364 0h-45.053v45.06h45.053v-45.06Zm-47.363 0H73.521v45.06h45.053v-45.06Zm-47.364 0H26.157v45.06H71.21v-45.06Zm-47.363 0h-45.053v45.06h45.053v-45.06Zm2131.363 47.37h-45.06v45.05h45.06v-45.05Zm-47.37 0h-45.05v45.05h45.05v-45.05Z"
        />
        <path fill="#0b0b0b" d="M2061.06 1436.27h-46.21v46.21h46.21v-46.21Z" />
        <path
          stroke="#0a0a0a"
          stroke-width="1.155"
          d="M2013.12 1436.85h-45.06v45.05h45.06v-45.05Zm-47.37 0h-45.05v45.05h45.05v-45.05Zm-47.36 0h-45.05v45.05h45.05v-45.05Zm-47.36 0h-45.06v45.05h45.06v-45.05Zm-47.37 0h-45.05v45.05h45.05v-45.05Zm-47.36 0h-45.06v45.05h45.06v-45.05Zm-47.37 0h-45.05v45.05h45.05v-45.05Zm-47.36 0h-45.05v45.05h45.05v-45.05Zm-47.36 0h-45.06v45.05h45.06v-45.05Zm-47.37 0h-45.05v45.05h45.05v-45.05Zm-47.36 0h-45.05v45.05h45.05v-45.05Zm-47.36 0h-45.06v45.05h45.06v-45.05Zm-47.37 0h-45.05v45.05h45.05v-45.05Zm-47.36 0h-45.05v45.05h45.05v-45.05Z"
        />
        <path fill="#0b0b0b" d="M1350.6 1436.27h-46.2v46.21h46.2v-46.21Z" />

        <path
          stroke="#0a0a0a"
          stroke-width="2.31"
          d="M1303.24 1436.27h-46.21v46.21h46.21v-46.21Zm-47.36 0h-46.21v46.21h46.21v-46.21Zm-47.37 0h-46.21v46.21h46.21v-46.21Zm-47.36 0h-46.21v46.21h46.21v-46.21Zm-47.36 0h-46.21v46.21h46.21v-46.21Zm-47.37 0h-46.21v46.21h46.21v-46.21Zm-47.36 0h-46.21v46.21h46.21v-46.21Zm-47.365 0h-46.208v46.21h46.208v-46.21Zm-47.363 0h-46.209v46.21h46.209v-46.21Zm-47.364 0H830.76v46.21h46.208v-46.21Zm-47.364 0h-46.208v46.21h46.208v-46.21Zm-47.363 0h-46.208v46.21h46.208v-46.21Zm-47.364 0h-46.208v46.21h46.208v-46.21Zm-47.363 0h-46.208v46.21h46.208v-46.21Zm-47.364 0h-46.208v46.21h46.208v-46.21Zm-47.363 0h-46.209v46.21h46.209v-46.21Zm-47.364 0h-46.208v46.21h46.208v-46.21Zm-47.363 0h-46.209v46.21h46.209v-46.21Zm-47.364 0h-46.208v46.21h46.208v-46.21Zm-47.363 0h-46.209v46.21h46.209v-46.21Zm-47.364 0h-46.208v46.21h46.208v-46.21Zm-47.363 0h-46.209v46.21h46.209v-46.21Zm-47.364 0h-46.208v46.21h46.208v-46.21Zm-47.364 0H167.67v46.21h46.208v-46.21Zm-47.363 0h-46.208v46.21h46.208v-46.21Zm-47.364 0H72.943v46.21h46.208v-46.21Zm-47.363 0H25.58v46.21h46.208v-46.21Zm-47.364 0h-46.208v46.21h46.208v-46.21Zm2131.356 47.36h-46.2v46.21h46.2v-46.21Zm-47.36 0h-46.21v46.21h46.21v-46.21Zm-47.36 0h-46.21v46.21h46.21v-46.21Zm-47.37 0h-46.21v46.21h46.21v-46.21Zm-47.36 0h-46.21v46.21h46.21v-46.21Zm-47.36 0h-46.21v46.21h46.21v-46.21Zm-47.37 0h-46.21v46.21h46.21v-46.21Zm-47.36 0h-46.21v46.21h46.21v-46.21Zm-47.36 0h-46.21v46.21h46.21v-46.21Zm-47.37 0h-46.21v46.21h46.21v-46.21Zm-47.36 0h-46.21v46.21h46.21v-46.21Zm-47.37 0h-46.2v46.21h46.2v-46.21Zm-47.36 0h-46.21v46.21h46.21v-46.21Zm-47.36 0h-46.21v46.21h46.21v-46.21Zm-47.37 0h-46.2v46.21h46.2v-46.21Zm-47.36 0h-46.21v46.21h46.21v-46.21Zm-47.36 0h-46.21v46.21h46.21v-46.21Zm-47.37 0h-46.2v46.21h46.2v-46.21Zm-47.36 0h-46.21v46.21h46.21v-46.21Zm-47.36 0h-46.21v46.21h46.21v-46.21Zm-47.37 0h-46.21v46.21h46.21v-46.21Zm-47.36 0h-46.21v46.21h46.21v-46.21Zm-47.36 0h-46.21v46.21h46.21v-46.21Zm-47.37 0h-46.21v46.21h46.21v-46.21Zm-47.36 0h-46.21v46.21h46.21v-46.21Z"
        />
        <path
          fill="#0b0b0b"
          d="M971.695 1483.63h-46.208v46.21h46.208v-46.21Z"
        />
        <path
          stroke="#0a0a0a"
          stroke-width="1.155"
          d="M923.754 1484.21h-45.053v45.05h45.053v-45.05Zm-47.363 0h-45.053v45.05h45.053v-45.05Zm-47.364 0h-45.053v45.05h45.053v-45.05Zm-47.363 0h-45.053v45.05h45.053v-45.05Zm-47.364 0h-45.053v45.05H734.3v-45.05Zm-47.363 0h-45.053v45.05h45.053v-45.05Zm-47.364 0H594.52v45.05h45.053v-45.05Zm-47.363 0h-45.054v45.05h45.054v-45.05Zm-47.364 0h-45.053v45.05h45.053v-45.05Zm-47.363 0h-45.054v45.05h45.054v-45.05Zm-47.364 0h-45.053v45.05h45.053v-45.05Zm-47.364 0h-45.053v45.05h45.053v-45.05Zm-47.363 0h-45.053v45.05h45.053v-45.05Z"
        />
        <path
          fill="#0b0b0b"
          d="M308.605 1483.63h-46.208v46.21h46.208v-46.21Z"
        />
        <path
          stroke="#0a0a0a"
          stroke-width="1.155"
          d="M260.664 1484.21h-45.053v45.05h45.053v-45.05Zm-47.363 0h-45.053v45.05h45.053v-45.05Zm-47.364 0h-45.053v45.05h45.053v-45.05Zm-47.363 0H73.521v45.05h45.053v-45.05Zm-47.364 0H26.157v45.05H71.21v-45.05Zm-47.363 0h-45.053v45.05h45.053v-45.05Zm2131.363 47.36h-45.06v45.06h45.06v-45.06Zm-47.37 0h-45.05v45.06h45.05v-45.06Zm-47.36 0h-45.05v45.06h45.05v-45.06Zm-47.36 0h-45.06v45.06h45.06v-45.06Zm-47.37 0h-45.05v45.06h45.05v-45.06Zm-47.36 0h-45.05v45.06h45.05v-45.06Zm-47.37 0h-45.05v45.06h45.05v-45.06Zm-47.36 0h-45.05v45.06h45.05v-45.06Zm-47.36 0h-45.06v45.06h45.06v-45.06Z"
        />
        <path fill="#0b0b0b" d="M1729.51 1531h-46.21v46.21h46.21V1531Z" />

        <path
          stroke="#0a0a0a"
          stroke-width="2.31"
          d="M1682.15 1531h-46.21v46.21h46.21V1531Zm-47.37 0h-46.2v46.21h46.2V1531Zm-47.36 0h-46.21v46.21h46.21V1531Zm-47.36 0h-46.21v46.21h46.21V1531Zm-47.37 0h-46.2v46.21h46.2V1531Zm-47.36 0h-46.21v46.21h46.21V1531Zm-47.36 0h-46.21v46.21h46.21V1531Zm-47.37 0h-46.2v46.21h46.2V1531Zm-47.36 0h-46.21v46.21h46.21V1531Zm-47.36 0h-46.21v46.21h46.21V1531Zm-47.37 0h-46.21v46.21h46.21V1531Zm-47.36 0h-46.21v46.21h46.21V1531Zm-47.36 0h-46.21v46.21h46.21V1531Zm-47.37 0h-46.21v46.21h46.21V1531Zm-47.36 0h-46.209v46.21h46.209V1531Zm-47.365 0h-46.208v46.21h46.208V1531Zm-47.363 0h-46.209v46.21h46.209V1531Zm-47.364 0H830.76v46.21h46.208V1531Zm-47.363 0h-46.209v46.21h46.209V1531Zm-47.364 0h-46.208v46.21h46.208V1531Zm-47.363 0h-46.209v46.21h46.209V1531Zm-47.364 0h-46.208v46.21h46.208V1531Zm-47.363 0h-46.209v46.21h46.209V1531Zm-47.364 0h-46.208v46.21h46.208V1531Zm-47.364 0h-46.208v46.21h46.208V1531Zm-47.363 0h-46.208v46.21h46.208V1531Zm-47.364 0h-46.208v46.21h46.208V1531Zm-47.363 0h-46.208v46.21h46.208V1531Zm-47.364 0h-46.208v46.21h46.208V1531Zm-47.363 0h-46.209v46.21h46.209V1531Zm-47.364 0h-46.208v46.21h46.208V1531Zm-47.363 0H167.67v46.21h46.209V1531Zm-47.364 0h-46.208v46.21h46.208V1531Z"
        />
        <path fill="#0b0b0b" d="M119.151 1531H72.943v46.21h46.208V1531Z" />
        <path
          stroke="#0a0a0a"
          stroke-width="1.155"
          d="M71.21 1531.57H26.157v45.06H71.21v-45.06Zm-47.363 0h-45.053v45.06h45.053v-45.06Z"
        />
      </g>
      <g filter="url(#z)" opacity="0.56">
        <rect
          width="853"
          height="853"
          fill="url(#A)"
          rx="426.5"
          transform="matrix(-1 0 0 1 1470 -363)"
        />
      </g>
      <path
        fill="url(#B)"
        d="M0 0h2133v1042H0z"
        transform="matrix(-1 0 0 1 2133 505)"
      />
    </g>
    <defs>
      <clipPath id="a">
        <path fill="rgb(24,26,27)" d="M2133 0H0v1547h2133z" />
      </clipPath>
      <clipPath id="b">
        <path fill="rgb(24,26,27)" d="M2176-32H-42v1609.21h2218z" />
      </clipPath>
      <radialGradient
        id="A"
        cx="0"
        cy="0"
        r="1"
        gradientTransform="translate(426.5 426.5) scale(426.5)"
        gradientUnits="userSpaceOnUse"
      >
        <stop stop-color="#414141" stop-opacity="0.8" />
        <stop offset="1" stop-color="#414141" stop-opacity="0" />
      </radialGradient>
      <filter
        id="z"
        width="1443.21"
        height="1443.21"
        x="321.896"
        y="-658.104"
        color-interpolation-filters="sRGB"
        filterUnits="userSpaceOnUse"
      >
        <feFlood flood-opacity="0" result="BackgroundImageFix" />
        <feBlend in="SourceGraphic" in2="BackgroundImageFix" result="shape" />
        <feGaussianBlur
          result="effect1_foregroundBlur_91_358"
          stdDeviation="147.552"
        />
      </filter>
    </defs>
  </svg>