<svg
    xmlns="http://www.w3.org/2000/svg"
    width="2133"
    height="1547"
    fill="rgb(24,26,27)"
    
  >
    <g clip-path="url(#a)">
      <path fill="rgb(24,26,27)" d="M2133 0H0v1547h2133z" />
      <g clip-path="url(#b)">
        <path
          stroke="#0a0a0a"
          stroke-width="2.31"
          d="M2155.78 1577.21h-46.2V1531h46.2v46.21Zm-47.36 0h-46.21V1531h46.21v46.21Zm-47.36 0h-46.21V1531h46.21v46.21Zm-47.37 0h-46.21V1531h46.21v46.21Zm-47.36 0h-46.21V1531h46.21v46.21Zm-47.36 0h-46.21V1531h46.21v46.21Zm-47.37 0h-46.21V1531h46.21v46.21Zm-47.36 0h-46.21V1531h46.21v46.21Zm-47.36 0h-46.21V1531h46.21v46.21Zm-47.37 0h-46.21V1531h46.21v46.21Zm-47.36 0h-46.21V1531h46.21v46.21Zm-47.37 0h-46.2V1531h46.2v46.21Zm-47.36 0h-46.21V1531h46.21v46.21Zm-47.36 0h-46.21V1531h46.21v46.21Zm-47.37 0h-46.2V1531h46.2v46.21Zm-47.36 0h-46.21V1531h46.21v46.21Zm-47.36 0h-46.21V1531h46.21v46.21Zm-47.37 0h-46.2V1531h46.2v46.21Zm-47.36 0h-46.21V1531h46.21v46.21Zm-47.36 0h-46.21V1531h46.21v46.21Zm-47.37 0h-46.21V1531h46.21v46.21Zm-47.36 0h-46.21V1531h46.21v46.21Zm-47.36 0h-46.21V1531h46.21v46.21Zm-47.37 0h-46.21V1531h46.21v46.21Zm-47.36 0h-46.21V1531h46.21v46.21Zm-47.365 0h-46.208V1531h46.208v46.21Zm-47.363 0h-46.209V1531h46.209v46.21Zm-47.364 0H830.76V1531h46.208v46.21Zm-47.364 0h-46.208V1531h46.208v46.21Zm-47.363 0h-46.208V1531h46.208v46.21Zm-47.364 0h-46.208V1531h46.208v46.21Zm-47.363 0h-46.208V1531h46.208v46.21Zm-47.364 0h-46.208V1531h46.208v46.21Zm-47.363 0h-46.209V1531h46.209v46.21Zm-47.364 0h-46.208V1531h46.208v46.21Zm-47.363 0h-46.209V1531h46.209v46.21Zm-47.364 0h-46.208V1531h46.208v46.21Zm-47.363 0h-46.209V1531h46.209v46.21Zm-47.364 0h-46.208V1531h46.208v46.21Zm-47.363 0h-46.209V1531h46.209v46.21Zm-47.364 0h-46.208V1531h46.208v46.21Zm-47.364 0H167.67V1531h46.208v46.21Zm-47.363 0h-46.208V1531h46.208v46.21Zm-47.364 0H72.943V1531h46.208v46.21Zm-47.363 0H25.58V1531h46.208v46.21Zm-47.364 0h-46.208V1531h46.208v46.21Zm2131.356-47.37h-46.2v-46.21h46.2v46.21Zm-47.36 0h-46.21v-46.21h46.21v46.21Zm-47.36 0h-46.21v-46.21h46.21v46.21Zm-47.37 0h-46.21v-46.21h46.21v46.21Zm-47.36 0h-46.21v-46.21h46.21v46.21Zm-47.36 0h-46.21v-46.21h46.21v46.21Zm-47.37 0h-46.21v-46.21h46.21v46.21Zm-47.36 0h-46.21v-46.21h46.21v46.21Zm-47.36 0h-46.21v-46.21h46.21v46.21Zm-47.37 0h-46.21v-46.21h46.21v46.21Zm-47.36 0h-46.21v-46.21h46.21v46.21Zm-47.37 0h-46.2v-46.21h46.2v46.21Zm-47.36 0h-46.21v-46.21h46.21v46.21Zm-47.36 0h-46.21v-46.21h46.21v46.21Zm-47.37 0h-46.2v-46.21h46.2v46.21Zm-47.36 0h-46.21v-46.21h46.21v46.21Zm-47.36 0h-46.21v-46.21h46.21v46.21Zm-47.37 0h-46.2v-46.21h46.2v46.21Zm-47.36 0h-46.21v-46.21h46.21v46.21Zm-47.36 0h-46.21v-46.21h46.21v46.21Zm-47.37 0h-46.21v-46.21h46.21v46.21Zm-47.36 0h-46.21v-46.21h46.21v46.21Zm-47.36 0h-46.21v-46.21h46.21v46.21Zm-47.37 0h-46.21v-46.21h46.21v46.21Z"
        />
        <path fill="#0b0b0b" d="M1019.06 1529.84h-46.21v-46.21h46.21v46.21Z" />
        <path
          stroke="#0a0a0a"
          stroke-width="1.155"
          d="M971.118 1529.26h-45.053v-45.05h45.053v45.05Zm-47.364 0h-45.053v-45.05h45.053v45.05Zm-47.363 0h-45.054v-45.05h45.054v45.05Zm-47.364 0h-45.053v-45.05h45.053v45.05Zm-47.363 0H736.61v-45.05h45.054v45.05Zm-47.364 0h-45.053v-45.05H734.3v45.05Zm-47.364 0h-45.053v-45.05h45.053v45.05Z"
        />
        <path fill="#0b0b0b" d="M640.15 1529.84h-46.208v-46.21h46.208v46.21Z" />
        <path
          stroke="#0a0a0a"
          stroke-width="1.155"
          d="M592.209 1529.26h-45.053v-45.05h45.053v45.05Zm-47.363 0h-45.053v-45.05h45.053v45.05Zm-47.364 0h-45.053v-45.05h45.053v45.05Zm-47.363 0h-45.054v-45.05h45.054v45.05Zm-47.364 0h-45.053v-45.05h45.053v45.05Zm-47.364 0h-45.053v-45.05h45.053v45.05Zm-47.363 0h-45.053v-45.05h45.053v45.05Zm-47.364 0h-45.053v-45.05h45.053v45.05Zm-47.363 0h-45.053v-45.05h45.053v45.05Zm-47.364 0h-45.053v-45.05h45.053v45.05Zm-47.363 0H73.521v-45.05h45.053v45.05Zm-47.364 0H26.157v-45.05H71.21v45.05Zm-47.363 0h-45.053v-45.05h45.053v45.05Zm2131.363-47.36h-45.06v-45.05h45.06v45.05Z"
        />
        <path fill="#0b0b0b" d="M2108.42 1482.48h-46.21v-46.21h46.21v46.21Z" />

        <path
          stroke="#0a0a0a"
          stroke-width="2.31"
          d="M2061.06 1482.48h-46.21v-46.21h46.21v46.21Zm-47.37 0h-46.21v-46.21h46.21v46.21Zm-47.36 0h-46.21v-46.21h46.21v46.21Zm-47.36 0h-46.21v-46.21h46.21v46.21Zm-47.37 0h-46.21v-46.21h46.21v46.21Zm-47.36 0h-46.21v-46.21h46.21v46.21Zm-47.36 0h-46.21v-46.21h46.21v46.21Zm-47.37 0h-46.21v-46.21h46.21v46.21Zm-47.36 0h-46.21v-46.21h46.21v46.21Zm-47.37 0h-46.2v-46.21h46.2v46.21Zm-47.36 0h-46.21v-46.21h46.21v46.21Zm-47.36 0h-46.21v-46.21h46.21v46.21Zm-47.37 0h-46.2v-46.21h46.2v46.21Zm-47.36 0h-46.21v-46.21h46.21v46.21Zm-47.36 0h-46.21v-46.21h46.21v46.21Zm-47.37 0h-46.2v-46.21h46.2v46.21Zm-47.36 0h-46.21v-46.21h46.21v46.21Zm-47.36 0h-46.21v-46.21h46.21v46.21Zm-47.37 0h-46.21v-46.21h46.21v46.21Zm-47.36 0h-46.21v-46.21h46.21v46.21Zm-47.36 0h-46.21v-46.21h46.21v46.21Zm-47.37 0h-46.21v-46.21h46.21v46.21Zm-47.36 0h-46.21v-46.21h46.21v46.21Zm-47.365 0h-46.208v-46.21h46.208v46.21Zm-47.363 0h-46.209v-46.21h46.209v46.21Zm-47.364 0H830.76v-46.21h46.208v46.21Zm-47.364 0h-46.208v-46.21h46.208v46.21Zm-47.363 0h-46.208v-46.21h46.208v46.21Zm-47.364 0h-46.208v-46.21h46.208v46.21Zm-47.363 0h-46.208v-46.21h46.208v46.21Zm-47.364 0h-46.208v-46.21h46.208v46.21Zm-47.363 0h-46.209v-46.21h46.209v46.21Zm-47.364 0h-46.208v-46.21h46.208v46.21Zm-47.363 0h-46.209v-46.21h46.209v46.21Zm-47.364 0h-46.208v-46.21h46.208v46.21Zm-47.363 0h-46.209v-46.21h46.209v46.21Zm-47.364 0h-46.208v-46.21h46.208v46.21Zm-47.363 0h-46.209v-46.21h46.209v46.21Zm-47.364 0h-46.208v-46.21h46.208v46.21Zm-47.363 0H167.67v-46.21h46.209v46.21Zm-47.364 0h-46.208v-46.21h46.208v46.21Z"
        />
        <path fill="#0b0b0b" d="M119.151 1482.48H72.943v-46.21h46.208v46.21Z" />
        <path
          stroke="#0a0a0a"
          stroke-width="1.155"
          d="M71.21 1481.9H26.157v-45.05H71.21v45.05Zm-47.363 0h-45.053v-45.05h45.053v45.05Zm2131.363-47.36h-45.06v-45.06h45.06v45.06Zm-47.37 0h-45.05v-45.06h45.05v45.06Zm-47.36 0h-45.05v-45.06h45.05v45.06Zm-47.36 0h-45.06v-45.06h45.06v45.06Zm-47.37 0h-45.05v-45.06h45.05v45.06Zm-47.36 0h-45.05v-45.06h45.05v45.06Zm-47.37 0h-45.05v-45.06h45.05v45.06Zm-47.36 0h-45.05v-45.06h45.05v45.06Zm-47.36 0h-45.06v-45.06h45.06v45.06Zm-47.37 0h-45.05v-45.06h45.05v45.06Z"
        />
        <path fill="#0b0b0b" d="M1682.15 1435.11h-46.21v-46.2h46.21v46.2Z" />
        <path
          stroke="#0a0a0a"
          stroke-width="1.155"
          d="M1634.21 1434.54h-45.06v-45.06h45.06v45.06Zm-47.37 0h-45.05v-45.06h45.05v45.06Zm-47.36 0h-45.05v-45.06h45.05v45.06Zm-47.36 0h-45.06v-45.06h45.06v45.06Zm-47.37 0h-45.05v-45.06h45.05v45.06Zm-47.36 0h-45.05v-45.06h45.05v45.06Zm-47.36 0h-45.06v-45.06h45.06v45.06Z"
        />
        <path fill="#0b0b0b" d="M1303.24 1435.11h-46.21v-46.2h46.21v46.2Z" />

        <path
          stroke="#0a0a0a"
          stroke-width="2.31"
          d="M1255.88 1435.11h-46.21v-46.2h46.21v46.2Zm-47.37 0h-46.21v-46.2h46.21v46.2Zm-47.36 0h-46.21v-46.2h46.21v46.2Zm-47.36 0h-46.21v-46.2h46.21v46.2Zm-47.37 0h-46.21v-46.2h46.21v46.2Zm-47.36 0h-46.21v-46.2h46.21v46.2Zm-47.365 0h-46.208v-46.2h46.208v46.2Zm-47.363 0h-46.209v-46.2h46.209v46.2Zm-47.364 0H830.76v-46.2h46.208v46.2Zm-47.364 0h-46.208v-46.2h46.208v46.2Zm-47.363 0h-46.208v-46.2h46.208v46.2Zm-47.364 0h-46.208v-46.2h46.208v46.2Zm-47.363 0h-46.208v-46.2h46.208v46.2Zm-47.364 0h-46.208v-46.2h46.208v46.2Zm-47.363 0h-46.209v-46.2h46.209v46.2Zm-47.364 0h-46.208v-46.2h46.208v46.2Zm-47.363 0h-46.209v-46.2h46.209v46.2Zm-47.364 0h-46.208v-46.2h46.208v46.2Zm-47.363 0h-46.209v-46.2h46.209v46.2Zm-47.364 0h-46.208v-46.2h46.208v46.2Zm-47.363 0h-46.209v-46.2h46.209v46.2Zm-47.364 0h-46.208v-46.2h46.208v46.2Zm-47.364 0H167.67v-46.2h46.208v46.2Zm-47.363 0h-46.208v-46.2h46.208v46.2Zm-47.364 0H72.943v-46.2h46.208v46.2Zm-47.363 0H25.58v-46.2h46.208v46.2Zm-47.364 0h-46.208v-46.2h46.208v46.2Zm2131.356-47.36h-46.2v-46.21h46.2v46.21Zm-47.36 0h-46.21v-46.21h46.21v46.21Zm-47.36 0h-46.21v-46.21h46.21v46.21Zm-47.37 0h-46.21v-46.21h46.21v46.21Zm-47.36 0h-46.21v-46.21h46.21v46.21Z"
        />
        <path fill="#0b0b0b" d="M1918.97 1387.75h-46.21v-46.21h46.21v46.21Z" />

        <path
          stroke="#0a0a0a"
          stroke-width="2.31"
          d="M1871.6 1387.75h-46.21v-46.21h46.21v46.21Zm-47.36 0h-46.21v-46.21h46.21v46.21Zm-47.36 0h-46.21v-46.21h46.21v46.21Zm-47.37 0h-46.21v-46.21h46.21v46.21Zm-47.36 0h-46.21v-46.21h46.21v46.21Zm-47.37 0h-46.2v-46.21h46.2v46.21Zm-47.36 0h-46.21v-46.21h46.21v46.21Zm-47.36 0h-46.21v-46.21h46.21v46.21Zm-47.37 0h-46.2v-46.21h46.2v46.21Zm-47.36 0h-46.21v-46.21h46.21v46.21Zm-47.36 0h-46.21v-46.21h46.21v46.21Zm-47.37 0h-46.2v-46.21h46.2v46.21Zm-47.36 0h-46.21v-46.21h46.21v46.21Zm-47.36 0h-46.21v-46.21h46.21v46.21Zm-47.37 0h-46.21v-46.21h46.21v46.21Zm-47.36 0h-46.21v-46.21h46.21v46.21Zm-47.36 0h-46.21v-46.21h46.21v46.21Zm-47.37 0h-46.21v-46.21h46.21v46.21Zm-47.36 0h-46.21v-46.21h46.21v46.21Zm-47.365 0h-46.208v-46.21h46.208v46.21Zm-47.363 0h-46.209v-46.21h46.209v46.21Zm-47.364 0H830.76v-46.21h46.208v46.21Zm-47.363 0h-46.209v-46.21h46.209v46.21Zm-47.364 0h-46.208v-46.21h46.208v46.21Zm-47.363 0h-46.209v-46.21h46.209v46.21Zm-47.364 0h-46.208v-46.21h46.208v46.21Zm-47.364 0h-46.208v-46.21h46.208v46.21Zm-47.363 0h-46.208v-46.21h46.208v46.21Zm-47.364 0h-46.208v-46.21h46.208v46.21Z"
        />
        <path fill="#0b0b0b" d="M498.06 1387.75h-46.209v-46.21h46.209v46.21Z" />

        <path
          stroke="#0a0a0a"
          stroke-width="2.31"
          d="M450.696 1387.75h-46.208v-46.21h46.208v46.21Zm-47.363 0h-46.209v-46.21h46.209v46.21Zm-47.364 0h-46.208v-46.21h46.208v46.21Zm-47.363 0h-46.209v-46.21h46.209v46.21Zm-47.364 0h-46.208v-46.21h46.208v46.21Zm-47.364 0H167.67v-46.21h46.208v46.21Zm-47.363 0h-46.208v-46.21h46.208v46.21Zm-47.364 0H72.943v-46.21h46.208v46.21Zm-47.363 0H25.58v-46.21h46.208v46.21Zm-47.364 0h-46.208v-46.21h46.208v46.21Zm2131.356-47.36h-46.2v-46.21h46.2v46.21Zm-47.36 0h-46.21v-46.21h46.21v46.21Zm-47.36 0h-46.21v-46.21h46.21v46.21Zm-47.37 0h-46.21v-46.21h46.21v46.21Zm-47.36 0h-46.21v-46.21h46.21v46.21Zm-47.36 0h-46.21v-46.21h46.21v46.21Zm-47.37 0h-46.21v-46.21h46.21v46.21Zm-47.36 0h-46.21v-46.21h46.21v46.21Zm-47.36 0h-46.21v-46.21h46.21v46.21Zm-47.37 0h-46.21v-46.21h46.21v46.21Zm-47.36 0h-46.21v-46.21h46.21v46.21Zm-47.37 0h-46.2v-46.21h46.2v46.21Zm-47.36 0h-46.21v-46.21h46.21v46.21Zm-47.36 0h-46.21v-46.21h46.21v46.21Zm-47.37 0h-46.2v-46.21h46.2v46.21Zm-47.36 0h-46.21v-46.21h46.21v46.21Zm-47.36 0h-46.21v-46.21h46.21v46.21Zm-47.37 0h-46.2v-46.21h46.2v46.21Zm-47.36 0h-46.21v-46.21h46.21v46.21Zm-47.36 0h-46.21v-46.21h46.21v46.21Zm-47.37 0h-46.21v-46.21h46.21v46.21Zm-47.36 0h-46.21v-46.21h46.21v46.21Zm-47.36 0h-46.21v-46.21h46.21v46.21Zm-47.37 0h-46.21v-46.21h46.21v46.21Zm-47.36 0h-46.21v-46.21h46.21v46.21Zm-47.365 0h-46.208v-46.21h46.208v46.21Zm-47.363 0h-46.209v-46.21h46.209v46.21Zm-47.364 0H830.76v-46.21h46.208v46.21Z"
        />
        <path
          fill="#0b0b0b"
          d="M829.604 1340.39h-46.208v-46.21h46.208v46.21Z"
        />

        <path
          stroke="#0a0a0a"
          stroke-width="2.31"
          d="M782.241 1340.39h-46.208v-46.21h46.208v46.21Zm-47.364 0h-46.208v-46.21h46.208v46.21Zm-47.363 0h-46.208v-46.21h46.208v46.21Zm-47.364 0h-46.208v-46.21h46.208v46.21Zm-47.363 0h-46.209v-46.21h46.209v46.21Zm-47.364 0h-46.208v-46.21h46.208v46.21Zm-47.363 0h-46.209v-46.21h46.209v46.21Zm-47.364 0h-46.208v-46.21h46.208v46.21Zm-47.363 0h-46.209v-46.21h46.209v46.21Zm-47.364 0h-46.208v-46.21h46.208v46.21Zm-47.363 0h-46.209v-46.21h46.209v46.21Zm-47.364 0h-46.208v-46.21h46.208v46.21Zm-47.364 0H167.67v-46.21h46.208v46.21Zm-47.363 0h-46.208v-46.21h46.208v46.21Zm-47.364 0H72.943v-46.21h46.208v46.21Zm-47.363 0H25.58v-46.21h46.208v46.21Zm-47.364 0h-46.208v-46.21h46.208v46.21Zm2131.356-47.37h-46.2v-46.2h46.2v46.2Zm-47.36 0h-46.21v-46.2h46.21v46.2Zm-47.36 0h-46.21v-46.2h46.21v46.2Zm-47.37 0h-46.21v-46.2h46.21v46.2Zm-47.36 0h-46.21v-46.2h46.21v46.2Zm-47.36 0h-46.21v-46.2h46.21v46.2Zm-47.37 0h-46.21v-46.2h46.21v46.2Zm-47.36 0h-46.21v-46.2h46.21v46.2Zm-47.36 0h-46.21v-46.2h46.21v46.2Zm-47.37 0h-46.21v-46.2h46.21v46.2Zm-47.36 0h-46.21v-46.2h46.21v46.2Zm-47.37 0h-46.2v-46.2h46.2v46.2Zm-47.36 0h-46.21v-46.2h46.21v46.2Zm-47.36 0h-46.21v-46.2h46.21v46.2Zm-47.37 0h-46.2v-46.2h46.2v46.2Zm-47.36 0h-46.21v-46.2h46.21v46.2Zm-47.36 0h-46.21v-46.2h46.21v46.2Zm-47.37 0h-46.2v-46.2h46.2v46.2Zm-47.36 0h-46.21v-46.2h46.21v46.2Zm-47.36 0h-46.21v-46.2h46.21v46.2Zm-47.37 0h-46.21v-46.2h46.21v46.2Zm-47.36 0h-46.21v-46.2h46.21v46.2Zm-47.36 0h-46.21v-46.2h46.21v46.2Z"
        />
        <path fill="#0b0b0b" d="M1066.42 1293.02h-46.21v-46.2h46.21v46.2Z" />
        <path
          stroke="#0a0a0a"
          stroke-width="1.155"
          d="M1018.48 1292.45h-45.052v-45.06h45.052v45.06Zm-47.363 0h-45.053v-45.06h45.053v45.06Zm-47.363 0h-45.053v-45.06h45.053v45.06Zm-47.364 0h-45.053v-45.06h45.053v45.06Zm-47.363 0h-45.053v-45.06h45.053v45.06Zm-47.364 0H736.61v-45.06h45.053v45.06Zm-47.363 0h-45.053v-45.06H734.3v45.06Zm-47.364 0h-45.053v-45.06h45.053v45.06Zm-47.363 0H594.52v-45.06h45.053v45.06Zm-47.364 0h-45.053v-45.06h45.053v45.06Zm-47.363 0h-45.054v-45.06h45.054v45.06Zm-47.364 0h-45.053v-45.06h45.053v45.06Zm-47.363 0h-45.054v-45.06h45.054v45.06Zm-47.364 0h-45.053v-45.06h45.053v45.06Zm-47.364 0h-45.053v-45.06h45.053v45.06Z"
        />
        <path fill="#0b0b0b" d="M308.605 1293.02h-46.208v-46.2h46.208v46.2Z" />
        <path
          stroke="#0a0a0a"
          stroke-width="1.155"
          d="M260.664 1292.45h-45.053v-45.06h45.053v45.06Zm-47.363 0h-45.053v-45.06h45.053v45.06Zm-47.364 0h-45.053v-45.06h45.053v45.06Zm-47.363 0H73.521v-45.06h45.053v45.06Zm-47.364 0H26.157v-45.06H71.21v45.06Zm-47.363 0h-45.053v-45.06h45.053v45.06Zm2131.363-47.37h-45.06v-45.05h45.06v45.05Zm-47.37 0h-45.05v-45.05h45.05v45.05Zm-47.36 0h-45.05v-45.05h45.05v45.05Zm-47.36 0h-45.06v-45.05h45.06v45.05Zm-47.37 0h-45.05v-45.05h45.05v45.05Zm-47.36 0h-45.05v-45.05h45.05v45.05Zm-47.37 0h-45.05v-45.05h45.05v45.05Zm-47.36 0h-45.05v-45.05h45.05v45.05Zm-47.36 0h-45.06v-45.05h45.06v45.05Zm-47.37 0h-45.05v-45.05h45.05v45.05Zm-47.36 0h-45.05v-45.05h45.05v45.05Zm-47.36 0h-45.06v-45.05h45.06v45.05Zm-47.37 0h-45.05v-45.05h45.05v45.05Zm-47.36 0h-45.05v-45.05h45.05v45.05Z"
        />
        <path fill="#0b0b0b" d="M1492.69 1245.66h-46.2v-46.21h46.2v46.21Z" />

        <path
          stroke="#0a0a0a"
          stroke-width="2.31"
          d="M1445.33 1245.66h-46.21v-46.21h46.21v46.21Zm-47.36 0h-46.21v-46.21h46.21v46.21Zm-47.37 0h-46.2v-46.21h46.2v46.21Zm-47.36 0h-46.21v-46.21h46.21v46.21Zm-47.36 0h-46.21v-46.21h46.21v46.21Zm-47.37 0h-46.21v-46.21h46.21v46.21Zm-47.36 0h-46.21v-46.21h46.21v46.21Zm-47.36 0h-46.21v-46.21h46.21v46.21Zm-47.37 0h-46.21v-46.21h46.21v46.21Zm-47.36 0h-46.21v-46.21h46.21v46.21Zm-47.365 0h-46.208v-46.21h46.208v46.21Zm-47.363 0h-46.209v-46.21h46.209v46.21Zm-47.364 0H830.76v-46.21h46.208v46.21Zm-47.364 0h-46.208v-46.21h46.208v46.21Zm-47.363 0h-46.208v-46.21h46.208v46.21Zm-47.364 0h-46.208v-46.21h46.208v46.21Zm-47.363 0h-46.208v-46.21h46.208v46.21Zm-47.364 0h-46.208v-46.21h46.208v46.21Zm-47.363 0h-46.209v-46.21h46.209v46.21Zm-47.364 0h-46.208v-46.21h46.208v46.21Zm-47.363 0h-46.209v-46.21h46.209v46.21Zm-47.364 0h-46.208v-46.21h46.208v46.21Zm-47.363 0h-46.209v-46.21h46.209v46.21Zm-47.364 0h-46.208v-46.21h46.208v46.21Zm-47.363 0h-46.209v-46.21h46.209v46.21Zm-47.364 0h-46.208v-46.21h46.208v46.21Zm-47.364 0H167.67v-46.21h46.208v46.21Zm-47.363 0h-46.208v-46.21h46.208v46.21Zm-47.364 0H72.943v-46.21h46.208v46.21Zm-47.363 0H25.58v-46.21h46.208v46.21Zm-47.364 0h-46.208v-46.21h46.208v46.21Zm2131.356-47.36h-46.2v-46.21h46.2v46.21Zm-47.36 0h-46.21v-46.21h46.21v46.21Zm-47.36 0h-46.21v-46.21h46.21v46.21Zm-47.37 0h-46.21v-46.21h46.21v46.21Zm-47.36 0h-46.21v-46.21h46.21v46.21Zm-47.36 0h-46.21v-46.21h46.21v46.21Zm-47.37 0h-46.21v-46.21h46.21v46.21Zm-47.36 0h-46.21v-46.21h46.21v46.21Zm-47.36 0h-46.21v-46.21h46.21v46.21Zm-47.37 0h-46.21v-46.21h46.21v46.21Zm-47.36 0h-46.21v-46.21h46.21v46.21Zm-47.37 0h-46.2v-46.21h46.2v46.21Zm-47.36 0h-46.21v-46.21h46.21v46.21Zm-47.36 0h-46.21v-46.21h46.21v46.21Zm-47.37 0h-46.2v-46.21h46.2v46.21Zm-47.36 0h-46.21v-46.21h46.21v46.21Zm-47.36 0h-46.21v-46.21h46.21v46.21Zm-47.37 0h-46.2v-46.21h46.2v46.21Zm-47.36 0h-46.21v-46.21h46.21v46.21Zm-47.36 0h-46.21v-46.21h46.21v46.21Zm-47.37 0h-46.21v-46.21h46.21v46.21Zm-47.36 0h-46.21v-46.21h46.21v46.21Zm-47.36 0h-46.21v-46.21h46.21v46.21Zm-47.37 0h-46.21v-46.21h46.21v46.21Zm-47.36 0h-46.21v-46.21h46.21v46.21Zm-47.365 0h-46.208v-46.21h46.208v46.21Zm-47.363 0h-46.209v-46.21h46.209v46.21Zm-47.364 0H830.76v-46.21h46.208v46.21Zm-47.364 0h-46.208v-46.21h46.208v46.21Zm-47.363 0h-46.208v-46.21h46.208v46.21Zm-47.364 0h-46.208v-46.21h46.208v46.21Zm-47.363 0h-46.208v-46.21h46.208v46.21Zm-47.364 0h-46.208v-46.21h46.208v46.21Zm-47.363 0h-46.209v-46.21h46.209v46.21Zm-47.364 0h-46.208v-46.21h46.208v46.21Zm-47.363 0h-46.209v-46.21h46.209v46.21Zm-47.364 0h-46.208v-46.21h46.208v46.21Zm-47.363 0h-46.209v-46.21h46.209v46.21Zm-47.364 0h-46.208v-46.21h46.208v46.21Zm-47.363 0h-46.209v-46.21h46.209v46.21Zm-47.364 0h-46.208v-46.21h46.208v46.21Zm-47.364 0H167.67v-46.21h46.208v46.21Zm-47.363 0h-46.208v-46.21h46.208v46.21Zm-47.364 0H72.943v-46.21h46.208v46.21Zm-47.363 0H25.58v-46.21h46.208v46.21Zm-47.364 0h-46.208v-46.21h46.208v46.21Zm2131.356-47.37h-46.2v-46.21h46.2v46.21Zm-47.36 0h-46.21v-46.21h46.21v46.21Zm-47.36 0h-46.21v-46.21h46.21v46.21Zm-47.37 0h-46.21v-46.21h46.21v46.21Zm-47.36 0h-46.21v-46.21h46.21v46.21Zm-47.36 0h-46.21v-46.21h46.21v46.21Z"
        />
        <path fill="#0b0b0b" d="M1871.6 1150.93h-46.21v-46.2h46.21v46.2Z" />
        <path
          stroke="#0a0a0a"
          stroke-width="1.155"
          d="M1823.66 1150.36h-45.05v-45.06h45.05v45.06Zm-47.36 0h-45.06v-45.06h45.06v45.06Zm-47.37 0h-45.05v-45.06h45.05v45.06Zm-47.36 0h-45.05v-45.06h45.05v45.06Zm-47.36 0h-45.06v-45.06h45.06v45.06Zm-47.37 0h-45.05v-45.06h45.05v45.06Zm-47.36 0h-45.05v-45.06h45.05v45.06Zm-47.36 0h-45.06v-45.06h45.06v45.06Zm-47.37 0h-45.05v-45.06h45.05v45.06Zm-47.36 0h-45.05v-45.06h45.05v45.06Zm-47.36 0h-45.06v-45.06h45.06v45.06Zm-47.37 0h-45.05v-45.06h45.05v45.06Zm-47.36 0h-45.05v-45.06h45.05v45.06Zm-47.36 0h-45.06v-45.06h45.06v45.06Zm-47.37 0h-45.05v-45.06h45.05v45.06Zm-47.36 0h-45.05v-45.06h45.05v45.06Zm-47.36 0h-45.06v-45.06h45.06v45.06Zm-47.37 0h-45.052v-45.06h45.052v45.06Zm-47.362 0h-45.053v-45.06h45.053v45.06Zm-47.364 0h-45.053v-45.06h45.053v45.06Zm-47.363 0h-45.053v-45.06h45.053v45.06Zm-47.364 0h-45.053v-45.06h45.053v45.06Zm-47.363 0h-45.053v-45.06h45.053v45.06Z"
        />
        <path fill="#0b0b0b" d="M734.877 1150.93h-46.208v-46.2h46.208v46.2Z" />

        <path
          stroke="#0a0a0a"
          stroke-width="2.31"
          d="M687.514 1150.93h-46.208v-46.2h46.208v46.2Zm-47.364 0h-46.208v-46.2h46.208v46.2Zm-47.363 0h-46.209v-46.2h46.209v46.2Zm-47.364 0h-46.208v-46.2h46.208v46.2Zm-47.363 0h-46.209v-46.2h46.209v46.2Zm-47.364 0h-46.208v-46.2h46.208v46.2Zm-47.363 0h-46.209v-46.2h46.209v46.2Zm-47.364 0h-46.208v-46.2h46.208v46.2Zm-47.363 0h-46.209v-46.2h46.209v46.2Zm-47.364 0h-46.208v-46.2h46.208v46.2Zm-47.364 0H167.67v-46.2h46.208v46.2Zm-47.363 0h-46.208v-46.2h46.208v46.2Zm-47.364 0H72.943v-46.2h46.208v46.2Zm-47.363 0H25.58v-46.2h46.208v46.2Zm-47.364 0h-46.208v-46.2h46.208v46.2Zm2131.356-47.36h-46.2v-46.21h46.2v46.21Zm-47.36 0h-46.21v-46.21h46.21v46.21Zm-47.36 0h-46.21v-46.21h46.21v46.21Zm-47.37 0h-46.21v-46.21h46.21v46.21Zm-47.36 0h-46.21v-46.21h46.21v46.21Zm-47.36 0h-46.21v-46.21h46.21v46.21Zm-47.37 0h-46.21v-46.21h46.21v46.21Zm-47.36 0h-46.21v-46.21h46.21v46.21Zm-47.36 0h-46.21v-46.21h46.21v46.21Zm-47.37 0h-46.21v-46.21h46.21v46.21Zm-47.36 0h-46.21v-46.21h46.21v46.21Zm-47.37 0h-46.2v-46.21h46.2v46.21Zm-47.36 0h-46.21v-46.21h46.21v46.21Zm-47.36 0h-46.21v-46.21h46.21v46.21Zm-47.37 0h-46.2v-46.21h46.2v46.21Zm-47.36 0h-46.21v-46.21h46.21v46.21Zm-47.36 0h-46.21v-46.21h46.21v46.21Zm-47.37 0h-46.2v-46.21h46.2v46.21Zm-47.36 0h-46.21v-46.21h46.21v46.21Zm-47.36 0h-46.21v-46.21h46.21v46.21Zm-47.37 0h-46.21v-46.21h46.21v46.21Zm-47.36 0h-46.21v-46.21h46.21v46.21Zm-47.36 0h-46.21v-46.21h46.21v46.21Zm-47.37 0h-46.21v-46.21h46.21v46.21Zm-47.36 0h-46.21v-46.21h46.21v46.21Zm-47.365 0h-46.208v-46.21h46.208v46.21Zm-47.363 0h-46.209v-46.21h46.209v46.21Zm-47.364 0H830.76v-46.21h46.208v46.21Zm-47.364 0h-46.208v-46.21h46.208v46.21Zm-47.363 0h-46.208v-46.21h46.208v46.21Zm-47.364 0h-46.208v-46.21h46.208v46.21Zm-47.363 0h-46.208v-46.21h46.208v46.21Zm-47.364 0h-46.208v-46.21h46.208v46.21Zm-47.363 0h-46.209v-46.21h46.209v46.21Zm-47.364 0h-46.208v-46.21h46.208v46.21Zm-47.363 0h-46.209v-46.21h46.209v46.21Zm-47.364 0h-46.208v-46.21h46.208v46.21Zm-47.363 0h-46.209v-46.21h46.209v46.21Zm-47.364 0h-46.208v-46.21h46.208v46.21Zm-47.363 0h-46.209v-46.21h46.209v46.21Zm-47.364 0h-46.208v-46.21h46.208v46.21Zm-47.364 0H167.67v-46.21h46.208v46.21Zm-47.363 0h-46.208v-46.21h46.208v46.21Zm-47.364 0H72.943v-46.21h46.208v46.21Zm-47.363 0H25.58v-46.21h46.208v46.21Zm-47.364 0h-46.208v-46.21h46.208v46.21Zm2131.356-47.36h-46.2V1010h46.2v46.21Zm-47.36 0h-46.21V1010h46.21v46.21Zm-47.36 0h-46.21V1010h46.21v46.21Zm-47.37 0h-46.21V1010h46.21v46.21Zm-47.36 0h-46.21V1010h46.21v46.21Zm-47.36 0h-46.21V1010h46.21v46.21Zm-47.37 0h-46.21V1010h46.21v46.21Zm-47.36 0h-46.21V1010h46.21v46.21Zm-47.36 0h-46.21V1010h46.21v46.21Zm-47.37 0h-46.21V1010h46.21v46.21Z"
        />
        <path fill="#0b0b0b" d="M1682.15 1056.21h-46.21V1010h46.21v46.21Z" />
        <path
          stroke="#0a0a0a"
          stroke-width="1.155"
          d="M1634.21 1055.63h-45.06v-45.05h45.06v45.05Zm-47.37 0h-45.05v-45.05h45.05v45.05Zm-47.36 0h-45.05v-45.05h45.05v45.05Zm-47.36 0h-45.06v-45.05h45.06v45.05Zm-47.37 0h-45.05v-45.05h45.05v45.05Zm-47.36 0h-45.05v-45.05h45.05v45.05Zm-47.36 0h-45.06v-45.05h45.06v45.05Zm-47.37 0h-45.05v-45.05h45.05v45.05Zm-47.36 0h-45.05v-45.05h45.05v45.05Zm-47.36 0h-45.06v-45.05h45.06v45.05Zm-47.37 0h-45.05v-45.05h45.05v45.05Zm-47.36 0h-45.05v-45.05h45.05v45.05Zm-47.36 0h-45.06v-45.05h45.06v45.05Zm-47.37 0h-45.052v-45.05h45.052v45.05Zm-47.362 0h-45.053v-45.05h45.053v45.05Zm-47.364 0h-45.053v-45.05h45.053v45.05Z"
        />
        <path fill="#0b0b0b" d="M876.968 1056.21H830.76V1010h46.208v46.21Z" />
        <path
          stroke="#0a0a0a"
          stroke-width="1.155"
          d="M829.027 1055.63h-45.053v-45.05h45.053v45.05Zm-47.364 0H736.61v-45.05h45.053v45.05Zm-47.363 0h-45.053v-45.05H734.3v45.05Zm-47.364 0h-45.053v-45.05h45.053v45.05Zm-47.363 0H594.52v-45.05h45.053v45.05Zm-47.364 0h-45.053v-45.05h45.053v45.05Z"
        />
        <path fill="#0b0b0b" d="M545.424 1056.21h-46.209V1010h46.209v46.21Z" />
        <path
          stroke="#0a0a0a"
          stroke-width="1.155"
          d="M497.482 1055.63h-45.053v-45.05h45.053v45.05Zm-47.364 0h-45.053v-45.05h45.053v45.05Zm-47.363 0h-45.053v-45.05h45.053v45.05Zm-47.364 0h-45.053v-45.05h45.053v45.05Zm-47.363 0h-45.053v-45.05h45.053v45.05Zm-47.364 0h-45.053v-45.05h45.053v45.05Zm-47.363 0h-45.053v-45.05h45.053v45.05Z"
        />
        <path fill="#0b0b0b" d="M166.516 1056.21h-46.209V1010h46.209v46.21Z" />
        <path
          stroke="#0a0a0a"
          stroke-width="1.155"
          d="M118.574 1055.63H73.521v-45.05h45.053v45.05Zm-47.364 0H26.157v-45.05H71.21v45.05Zm-47.363 0h-45.053v-45.05h45.053v45.05Zm2131.363-47.37h-45.06v-45.048h45.06v45.048Zm-47.37 0h-45.05v-45.048h45.05v45.048Z"
        />
        <path
          fill="#0b0b0b"
          d="M2061.06 1008.84h-46.21v-46.206h46.21v46.206Z"
        />
        <path
          stroke="#0a0a0a"
          stroke-width="1.155"
          d="M2013.12 1008.27h-45.06v-45.058h45.06v45.058Zm-47.37 0h-45.05v-45.058h45.05v45.058Zm-47.36 0h-45.05v-45.058h45.05v45.058Zm-47.36 0h-45.06v-45.058h45.06v45.058Zm-47.37 0h-45.05v-45.058h45.05v45.058Zm-47.36 0h-45.06v-45.058h45.06v45.058Zm-47.37 0h-45.05v-45.058h45.05v45.058Zm-47.36 0h-45.05v-45.058h45.05v45.058Zm-47.36 0h-45.06v-45.058h45.06v45.058Zm-47.37 0h-45.05v-45.058h45.05v45.058Zm-47.36 0h-45.05v-45.058h45.05v45.058Zm-47.36 0h-45.06v-45.058h45.06v45.058Zm-47.37 0h-45.05v-45.058h45.05v45.058Zm-47.36 0h-45.05v-45.058h45.05v45.058Zm-47.36 0h-45.06v-45.058h45.06v45.058Zm-47.37 0h-45.05v-45.058h45.05v45.058Z"
        />
        <path
          fill="#0b0b0b"
          d="M1255.88 1008.84h-46.21v-46.206h46.21v46.206Z"
        />

        <path
          stroke="#0a0a0a"
          stroke-width="2.31"
          d="M1208.51 1008.84h-46.21v-46.206h46.21v46.206Zm-47.36 0h-46.21v-46.206h46.21v46.206Zm-47.36 0h-46.21v-46.206h46.21v46.206Zm-47.37 0h-46.21v-46.206h46.21v46.206Zm-47.36 0h-46.21v-46.206h46.21v46.206Zm-47.365 0h-46.208v-46.206h46.208v46.206Zm-47.363 0h-46.209v-46.206h46.209v46.206Zm-47.364 0H830.76v-46.206h46.208v46.206Zm-47.364 0h-46.208v-46.206h46.208v46.206Zm-47.363 0h-46.208v-46.206h46.208v46.206Zm-47.364 0h-46.208v-46.206h46.208v46.206Zm-47.363 0h-46.208v-46.206h46.208v46.206Zm-47.364 0h-46.208v-46.206h46.208v46.206Zm-47.363 0h-46.209v-46.206h46.209v46.206Zm-47.364 0h-46.208v-46.206h46.208v46.206Zm-47.363 0h-46.209v-46.206h46.209v46.206Zm-47.364 0h-46.208v-46.206h46.208v46.206Zm-47.363 0h-46.209v-46.206h46.209v46.206Zm-47.364 0h-46.208v-46.206h46.208v46.206Zm-47.363 0h-46.209v-46.206h46.209v46.206Zm-47.364 0h-46.208v-46.206h46.208v46.206Zm-47.364 0H167.67v-46.206h46.208v46.206Zm-47.363 0h-46.208v-46.206h46.208v46.206Zm-47.364 0H72.943v-46.206h46.208v46.206Zm-47.363 0H25.58v-46.206h46.208v46.206Zm-47.364 0h-46.208v-46.206h46.208v46.206Zm2131.356-47.361h-46.2v-46.208h46.2v46.208Zm-47.36 0h-46.21v-46.208h46.21v46.208Zm-47.36 0h-46.21v-46.208h46.21v46.208Zm-47.37 0h-46.21v-46.208h46.21v46.208Zm-47.36 0h-46.21v-46.208h46.21v46.208Zm-47.36 0h-46.21v-46.208h46.21v46.208Zm-47.37 0h-46.21v-46.208h46.21v46.208Zm-47.36 0h-46.21v-46.208h46.21v46.208Zm-47.36 0h-46.21v-46.208h46.21v46.208Zm-47.37 0h-46.21v-46.208h46.21v46.208Zm-47.36 0h-46.21v-46.208h46.21v46.208Zm-47.37 0h-46.2v-46.208h46.2v46.208Zm-47.36 0h-46.21v-46.208h46.21v46.208Zm-47.36 0h-46.21v-46.208h46.21v46.208Zm-47.37 0h-46.2v-46.208h46.2v46.208Zm-47.36 0h-46.21v-46.208h46.21v46.208Zm-47.36 0h-46.21v-46.208h46.21v46.208Zm-47.37 0h-46.2v-46.208h46.2v46.208Zm-47.36 0h-46.21v-46.208h46.21v46.208Zm-47.36 0h-46.21v-46.208h46.21v46.208Zm-47.37 0h-46.21v-46.208h46.21v46.208Zm-47.36 0h-46.21v-46.208h46.21v46.208Zm-47.36 0h-46.21v-46.208h46.21v46.208Zm-47.37 0h-46.21v-46.208h46.21v46.208Zm-47.36 0h-46.21v-46.208h46.21v46.208Zm-47.365 0h-46.208v-46.208h46.208v46.208Zm-47.363 0h-46.209v-46.208h46.209v46.208Zm-47.364 0H830.76v-46.208h46.208v46.208Zm-47.364 0h-46.208v-46.208h46.208v46.208Zm-47.363 0h-46.208v-46.208h46.208v46.208Zm-47.364 0h-46.208v-46.208h46.208v46.208Zm-47.363 0h-46.208v-46.208h46.208v46.208Zm-47.364 0h-46.208v-46.208h46.208v46.208Zm-47.363 0h-46.209v-46.208h46.209v46.208Zm-47.364 0h-46.208v-46.208h46.208v46.208Zm-47.363 0h-46.209v-46.208h46.209v46.208Zm-47.364 0h-46.208v-46.208h46.208v46.208Zm-47.363 0h-46.209v-46.208h46.209v46.208Zm-47.364 0h-46.208v-46.208h46.208v46.208Zm-47.363 0h-46.209v-46.208h46.209v46.208Zm-47.364 0h-46.208v-46.208h46.208v46.208Zm-47.364 0H167.67v-46.208h46.208v46.208Zm-47.363 0h-46.208v-46.208h46.208v46.208Zm-47.364 0H72.943v-46.208h46.208v46.208Zm-47.363 0H25.58v-46.208h46.208v46.208Zm-47.364 0h-46.208v-46.208h46.208v46.208Zm2131.356-47.363h-46.2v-46.209h46.2v46.209Zm-47.36 0h-46.21v-46.209h46.21v46.209Zm-47.36 0h-46.21v-46.209h46.21v46.209Zm-47.37 0h-46.21v-46.209h46.21v46.209Zm-47.36 0h-46.21v-46.209h46.21v46.209Zm-47.36 0h-46.21v-46.209h46.21v46.209Zm-47.37 0h-46.21v-46.209h46.21v46.209Zm-47.36 0h-46.21v-46.209h46.21v46.209Zm-47.36 0h-46.21v-46.209h46.21v46.209Zm-47.37 0h-46.21v-46.209h46.21v46.209Zm-47.36 0h-46.21v-46.209h46.21v46.209Zm-47.37 0h-46.2v-46.209h46.2v46.209Zm-47.36 0h-46.21v-46.209h46.21v46.209Zm-47.36 0h-46.21v-46.209h46.21v46.209Zm-47.37 0h-46.2v-46.209h46.2v46.209Zm-47.36 0h-46.21v-46.209h46.21v46.209Zm-47.36 0h-46.21v-46.209h46.21v46.209Zm-47.37 0h-46.2v-46.209h46.2v46.209Zm-47.36 0h-46.21v-46.209h46.21v46.209Zm-47.36 0h-46.21v-46.209h46.21v46.209Zm-47.37 0h-46.21v-46.209h46.21v46.209Zm-47.36 0h-46.21v-46.209h46.21v46.209Zm-47.36 0h-46.21v-46.209h46.21v46.209Zm-47.37 0h-46.21v-46.209h46.21v46.209Zm-47.36 0h-46.21v-46.209h46.21v46.209Zm-47.365 0h-46.208v-46.209h46.208v46.209Zm-47.363 0h-46.209v-46.209h46.209v46.209Zm-47.364 0H830.76v-46.209h46.208v46.209Zm-47.364 0h-46.208v-46.209h46.208v46.209Zm-47.363 0h-46.208v-46.209h46.208v46.209Zm-47.364 0h-46.208v-46.209h46.208v46.209Zm-47.363 0h-46.208v-46.209h46.208v46.209Zm-47.364 0h-46.208v-46.209h46.208v46.209Zm-47.363 0h-46.209v-46.209h46.209v46.209Zm-47.364 0h-46.208v-46.209h46.208v46.209Zm-47.363 0h-46.209v-46.209h46.209v46.209Zm-47.364 0h-46.208v-46.209h46.208v46.209Zm-47.363 0h-46.209v-46.209h46.209v46.209Zm-47.364 0h-46.208v-46.209h46.208v46.209Zm-47.363 0h-46.209v-46.209h46.209v46.209Zm-47.364 0h-46.208v-46.209h46.208v46.209Zm-47.364 0H167.67v-46.209h46.208v46.209Zm-47.363 0h-46.208v-46.209h46.208v46.209Zm-47.364 0H72.943v-46.209h46.208v46.209Zm-47.363 0H25.58v-46.209h46.208v46.209Zm-47.364 0h-46.208v-46.209h46.208v46.209Zm2131.356-47.364h-46.2v-46.208h46.2v46.208Zm-47.36 0h-46.21v-46.208h46.21v46.208Zm-47.36 0h-46.21v-46.208h46.21v46.208Zm-47.37 0h-46.21v-46.208h46.21v46.208Zm-47.36 0h-46.21v-46.208h46.21v46.208Zm-47.36 0h-46.21v-46.208h46.21v46.208Zm-47.37 0h-46.21v-46.208h46.21v46.208Zm-47.36 0h-46.21v-46.208h46.21v46.208Zm-47.36 0h-46.21v-46.208h46.21v46.208Zm-47.37 0h-46.21v-46.208h46.21v46.208Zm-47.36 0h-46.21v-46.208h46.21v46.208Zm-47.37 0h-46.2v-46.208h46.2v46.208Zm-47.36 0h-46.21v-46.208h46.21v46.208Zm-47.36 0h-46.21v-46.208h46.21v46.208Zm-47.37 0h-46.2v-46.208h46.2v46.208Zm-47.36 0h-46.21v-46.208h46.21v46.208Zm-47.36 0h-46.21v-46.208h46.21v46.208Zm-47.37 0h-46.2v-46.208h46.2v46.208Zm-47.36 0h-46.21v-46.208h46.21v46.208Zm-47.36 0h-46.21v-46.208h46.21v46.208Zm-47.37 0h-46.21v-46.208h46.21v46.208Zm-47.36 0h-46.21v-46.208h46.21v46.208Zm-47.36 0h-46.21v-46.208h46.21v46.208Zm-47.37 0h-46.21v-46.208h46.21v46.208Zm-47.36 0h-46.21v-46.208h46.21v46.208Zm-47.365 0h-46.208v-46.208h46.208v46.208Zm-47.363 0h-46.209v-46.208h46.209v46.208Zm-47.364 0H830.76v-46.208h46.208v46.208Zm-47.364 0h-46.208v-46.208h46.208v46.208Z"
        />
        <path
          fill="#0b0b0b"
          d="M782.241 866.752h-46.208v-46.208h46.208v46.208Z"
        />
        <path
          stroke="#0a0a0a"
          stroke-width="1.155"
          d="M734.3 866.174h-45.053v-45.053H734.3v45.053Zm-47.364 0h-45.053v-45.053h45.053v45.053Zm-47.363 0H594.52v-45.053h45.053v45.053Zm-47.364 0h-45.053v-45.053h45.053v45.053Zm-47.363 0h-45.053v-45.053h45.053v45.053Zm-47.364 0h-45.053v-45.053h45.053v45.053Zm-47.363 0h-45.054v-45.053h45.054v45.053Zm-47.364 0h-45.053v-45.053h45.053v45.053Zm-47.364 0h-45.053v-45.053h45.053v45.053Zm-47.363 0h-45.053v-45.053h45.053v45.053Zm-47.364 0h-45.053v-45.053h45.053v45.053Zm-47.363 0h-45.053v-45.053h45.053v45.053Zm-47.364 0h-45.053v-45.053h45.053v45.053Zm-47.363 0H73.521v-45.053h45.053v45.053Zm-47.364 0H26.157v-45.053H71.21v45.053Zm-47.363 0h-45.053v-45.053h45.053v45.053Zm2131.363-47.363h-45.06v-45.053h45.06v45.053Zm-47.37 0h-45.05v-45.053h45.05v45.053Zm-47.36 0h-45.05v-45.053h45.05v45.053Zm-47.36 0h-45.06v-45.053h45.06v45.053Zm-47.37 0h-45.05v-45.053h45.05v45.053Zm-47.36 0h-45.05v-45.053h45.05v45.053Zm-47.37 0h-45.05v-45.053h45.05v45.053Z"
        />
        <path fill="#0b0b0b" d="M1824.24 819.388h-46.21V773.18h46.21v46.208Z" />
        <path
          stroke="#0a0a0a"
          stroke-width="1.155"
          d="M1776.3 818.811h-45.06v-45.053h45.06v45.053Zm-47.37 0h-45.05v-45.053h45.05v45.053Zm-47.36 0h-45.05v-45.053h45.05v45.053Zm-47.36 0h-45.06v-45.053h45.06v45.053Zm-47.37 0h-45.05v-45.053h45.05v45.053Zm-47.36 0h-45.05v-45.053h45.05v45.053Zm-47.36 0h-45.06v-45.053h45.06v45.053Zm-47.37 0h-45.05v-45.053h45.05v45.053Zm-47.36 0h-45.05v-45.053h45.05v45.053Z"
        />
        <path fill="#0b0b0b" d="M1350.6 819.388h-46.2V773.18h46.2v46.208Z" />

        <path
          stroke="#0a0a0a"
          stroke-width="2.31"
          d="M1303.24 819.388h-46.21V773.18h46.21v46.208Zm-47.36 0h-46.21V773.18h46.21v46.208Zm-47.37 0h-46.21V773.18h46.21v46.208Zm-47.36 0h-46.21V773.18h46.21v46.208Zm-47.36 0h-46.21V773.18h46.21v46.208Zm-47.37 0h-46.21V773.18h46.21v46.208Zm-47.36 0h-46.21V773.18h46.21v46.208Zm-47.365 0h-46.208V773.18h46.208v46.208Zm-47.363 0h-46.209V773.18h46.209v46.208Zm-47.364 0H830.76V773.18h46.208v46.208Zm-47.364 0h-46.208V773.18h46.208v46.208Zm-47.363 0h-46.208V773.18h46.208v46.208Zm-47.364 0h-46.208V773.18h46.208v46.208Zm-47.363 0h-46.208V773.18h46.208v46.208Zm-47.364 0h-46.208V773.18h46.208v46.208Zm-47.363 0h-46.209V773.18h46.209v46.208Zm-47.364 0h-46.208V773.18h46.208v46.208Zm-47.363 0h-46.209V773.18h46.209v46.208Zm-47.364 0h-46.208V773.18h46.208v46.208Zm-47.363 0h-46.209V773.18h46.209v46.208Zm-47.364 0h-46.208V773.18h46.208v46.208Zm-47.363 0h-46.209V773.18h46.209v46.208Zm-47.364 0h-46.208V773.18h46.208v46.208Zm-47.364 0H167.67V773.18h46.208v46.208Zm-47.363 0h-46.208V773.18h46.208v46.208Zm-47.364 0H72.943V773.18h46.208v46.208Zm-47.363 0H25.58V773.18h46.208v46.208Zm-47.364 0h-46.208V773.18h46.208v46.208Zm2131.356-47.363h-46.2v-46.208h46.2v46.208Zm-47.36 0h-46.21v-46.208h46.21v46.208Zm-47.36 0h-46.21v-46.208h46.21v46.208Zm-47.37 0h-46.21v-46.208h46.21v46.208Zm-47.36 0h-46.21v-46.208h46.21v46.208Zm-47.36 0h-46.21v-46.208h46.21v46.208Zm-47.37 0h-46.21v-46.208h46.21v46.208Zm-47.36 0h-46.21v-46.208h46.21v46.208Zm-47.36 0h-46.21v-46.208h46.21v46.208Zm-47.37 0h-46.21v-46.208h46.21v46.208Zm-47.36 0h-46.21v-46.208h46.21v46.208Zm-47.37 0h-46.2v-46.208h46.2v46.208Zm-47.36 0h-46.21v-46.208h46.21v46.208Zm-47.36 0h-46.21v-46.208h46.21v46.208Zm-47.37 0h-46.2v-46.208h46.2v46.208Zm-47.36 0h-46.21v-46.208h46.21v46.208Zm-47.36 0h-46.21v-46.208h46.21v46.208Zm-47.37 0h-46.2v-46.208h46.2v46.208Zm-47.36 0h-46.21v-46.208h46.21v46.208Zm-47.36 0h-46.21v-46.208h46.21v46.208Zm-47.37 0h-46.21v-46.208h46.21v46.208Zm-47.36 0h-46.21v-46.208h46.21v46.208Z"
        />
        <path
          fill="#0b0b0b"
          d="M1113.79 772.025h-46.21v-46.208h46.21v46.208Z"
        />
        <path
          stroke="#0a0a0a"
          stroke-width="1.155"
          d="M1065.84 771.447h-45.05v-45.053h45.05v45.053Zm-47.36 0h-45.052v-45.053h45.052v45.053Zm-47.362 0h-45.053v-45.053h45.053v45.053Zm-47.364 0h-45.053v-45.053h45.053v45.053Zm-47.363 0h-45.054v-45.053h45.054v45.053Zm-47.364 0h-45.053v-45.053h45.053v45.053Zm-47.363 0H736.61v-45.053h45.054v45.053Zm-47.364 0h-45.053v-45.053H734.3v45.053Zm-47.364 0h-45.053v-45.053h45.053v45.053Zm-47.363 0H594.52v-45.053h45.053v45.053Zm-47.364 0h-45.053v-45.053h45.053v45.053Z"
        />
        <path
          fill="#0b0b0b"
          d="M545.424 772.025h-46.209v-46.208h46.209v46.208Z"
        />
        <path
          stroke="#0a0a0a"
          stroke-width="1.155"
          d="M497.482 771.447h-45.053v-45.053h45.053v45.053Zm-47.364 0h-45.053v-45.053h45.053v45.053Zm-47.363 0h-45.053v-45.053h45.053v45.053Zm-47.364 0h-45.053v-45.053h45.053v45.053Zm-47.363 0h-45.053v-45.053h45.053v45.053Z"
        />
        <path
          fill="#0b0b0b"
          d="M261.242 772.025h-46.208v-46.208h46.208v46.208Z"
        />
        <path
          stroke="#0a0a0a"
          stroke-width="1.155"
          d="M213.301 771.447h-45.053v-45.053h45.053v45.053Zm-47.364 0h-45.053v-45.053h45.053v45.053Zm-47.363 0H73.521v-45.053h45.053v45.053Zm-47.364 0H26.157v-45.053H71.21v45.053Zm-47.363 0h-45.053v-45.053h45.053v45.053Zm2131.363-47.363h-45.06v-45.053h45.06v45.053Zm-47.37 0h-45.05v-45.053h45.05v45.053Zm-47.36 0h-45.05v-45.053h45.05v45.053Zm-47.36 0h-45.06v-45.053h45.06v45.053Zm-47.37 0h-45.05v-45.053h45.05v45.053Zm-47.36 0h-45.05v-45.053h45.05v45.053Zm-47.37 0h-45.05v-45.053h45.05v45.053Zm-47.36 0h-45.05v-45.053h45.05v45.053Zm-47.36 0h-45.06v-45.053h45.06v45.053Zm-47.37 0h-45.05v-45.053h45.05v45.053Zm-47.36 0h-45.05v-45.053h45.05v45.053Zm-47.36 0h-45.06v-45.053h45.06v45.053Zm-47.37 0h-45.05v-45.053h45.05v45.053Z"
        />
        <path
          fill="#0b0b0b"
          d="M1540.06 724.661h-46.21v-46.208h46.21v46.208Z"
        />

        <path
          stroke="#0a0a0a"
          stroke-width="2.31"
          d="M1492.69 724.661h-46.2v-46.208h46.2v46.208Zm-47.36 0h-46.21v-46.208h46.21v46.208Zm-47.36 0h-46.21v-46.208h46.21v46.208Zm-47.37 0h-46.2v-46.208h46.2v46.208Zm-47.36 0h-46.21v-46.208h46.21v46.208Zm-47.36 0h-46.21v-46.208h46.21v46.208Zm-47.37 0h-46.21v-46.208h46.21v46.208Zm-47.36 0h-46.21v-46.208h46.21v46.208Zm-47.36 0h-46.21v-46.208h46.21v46.208Zm-47.37 0h-46.21v-46.208h46.21v46.208Zm-47.36 0h-46.21v-46.208h46.21v46.208Zm-47.365 0h-46.208v-46.208h46.208v46.208Zm-47.363 0h-46.209v-46.208h46.209v46.208Zm-47.364 0H830.76v-46.208h46.208v46.208Zm-47.364 0h-46.208v-46.208h46.208v46.208Zm-47.363 0h-46.208v-46.208h46.208v46.208Zm-47.364 0h-46.208v-46.208h46.208v46.208Zm-47.363 0h-46.208v-46.208h46.208v46.208Zm-47.364 0h-46.208v-46.208h46.208v46.208Zm-47.363 0h-46.209v-46.208h46.209v46.208Zm-47.364 0h-46.208v-46.208h46.208v46.208Zm-47.363 0h-46.209v-46.208h46.209v46.208Zm-47.364 0h-46.208v-46.208h46.208v46.208Zm-47.363 0h-46.209v-46.208h46.209v46.208Zm-47.364 0h-46.208v-46.208h46.208v46.208Zm-47.363 0h-46.209v-46.208h46.209v46.208Zm-47.364 0h-46.208v-46.208h46.208v46.208Zm-47.364 0H167.67v-46.208h46.208v46.208Zm-47.363 0h-46.208v-46.208h46.208v46.208Zm-47.364 0H72.943v-46.208h46.208v46.208Zm-47.363 0H25.58v-46.208h46.208v46.208Zm-47.364 0h-46.208v-46.208h46.208v46.208Zm2131.356-47.363h-46.2V631.09h46.2v46.208Zm-47.36 0h-46.21V631.09h46.21v46.208Z"
        />
        <path fill="#0b0b0b" d="M2061.06 677.298h-46.21V631.09h46.21v46.208Z" />

        <path
          stroke="#0a0a0a"
          stroke-width="2.31"
          d="M2013.69 677.298h-46.2V631.09h46.2v46.208Zm-47.36 0h-46.21V631.09h46.21v46.208Zm-47.36 0h-46.21V631.09h46.21v46.208Zm-47.37 0h-46.21V631.09h46.21v46.208Zm-47.36 0h-46.21V631.09h46.21v46.208Zm-47.36 0h-46.21V631.09h46.21v46.208Zm-47.37 0h-46.21V631.09h46.21v46.208Zm-47.36 0h-46.21V631.09h46.21v46.208Zm-47.36 0h-46.21V631.09h46.21v46.208Zm-47.37 0h-46.21V631.09h46.21v46.208Zm-47.36 0h-46.21V631.09h46.21v46.208Zm-47.37 0h-46.2V631.09h46.2v46.208Zm-47.36 0h-46.21V631.09h46.21v46.208Zm-47.36 0h-46.21V631.09h46.21v46.208Zm-47.37 0h-46.2V631.09h46.2v46.208Zm-47.36 0h-46.21V631.09h46.21v46.208Zm-47.36 0h-46.21V631.09h46.21v46.208Zm-47.37 0h-46.21V631.09h46.21v46.208Zm-47.36 0h-46.21V631.09h46.21v46.208Zm-47.36 0h-46.21V631.09h46.21v46.208Zm-47.37 0h-46.21V631.09h46.21v46.208Zm-47.36 0h-46.209V631.09h46.209v46.208Zm-47.365 0h-46.208V631.09h46.208v46.208Zm-47.363 0h-46.208V631.09h46.208v46.208Zm-47.364 0H830.76V631.09h46.208v46.208Zm-47.363 0h-46.209V631.09h46.209v46.208Zm-47.364 0h-46.208V631.09h46.208v46.208Zm-47.363 0h-46.209V631.09h46.209v46.208Zm-47.364 0h-46.208V631.09h46.208v46.208Z"
        />
        <path
          fill="#0b0b0b"
          d="M640.15 677.298h-46.208V631.09h46.208v46.208Z"
        />

        <path
          stroke="#0a0a0a"
          stroke-width="2.31"
          d="M592.787 677.298h-46.209V631.09h46.209v46.208Zm-47.364 0h-46.208V631.09h46.208v46.208Zm-47.363 0h-46.209V631.09h46.209v46.208Zm-47.364 0h-46.208V631.09h46.208v46.208Zm-47.363 0h-46.209V631.09h46.209v46.208Zm-47.364 0h-46.208V631.09h46.208v46.208Zm-47.363 0h-46.209V631.09h46.209v46.208Zm-47.364 0h-46.208V631.09h46.208v46.208Zm-47.364 0H167.67V631.09h46.208v46.208Zm-47.363 0h-46.208V631.09h46.208v46.208Zm-47.364 0H72.943V631.09h46.208v46.208Zm-47.363 0H25.58V631.09h46.208v46.208Zm-47.364 0h-46.208V631.09h46.208v46.208Zm2131.356-47.364h-46.2v-46.208h46.2v46.208Zm-47.36 0h-46.21v-46.208h46.21v46.208Zm-47.36 0h-46.21v-46.208h46.21v46.208Zm-47.37 0h-46.21v-46.208h46.21v46.208Zm-47.36 0h-46.21v-46.208h46.21v46.208Zm-47.36 0h-46.21v-46.208h46.21v46.208Zm-47.37 0h-46.21v-46.208h46.21v46.208Zm-47.36 0h-46.21v-46.208h46.21v46.208Zm-47.36 0h-46.21v-46.208h46.21v46.208Zm-47.37 0h-46.21v-46.208h46.21v46.208Zm-47.36 0h-46.21v-46.208h46.21v46.208Zm-47.37 0h-46.2v-46.208h46.2v46.208Zm-47.36 0h-46.21v-46.208h46.21v46.208Zm-47.36 0h-46.21v-46.208h46.21v46.208Zm-47.37 0h-46.2v-46.208h46.2v46.208Zm-47.36 0h-46.21v-46.208h46.21v46.208Zm-47.36 0h-46.21v-46.208h46.21v46.208Zm-47.37 0h-46.2v-46.208h46.2v46.208Zm-47.36 0h-46.21v-46.208h46.21v46.208Zm-47.36 0h-46.21v-46.208h46.21v46.208Zm-47.37 0h-46.21v-46.208h46.21v46.208Zm-47.36 0h-46.21v-46.208h46.21v46.208Zm-47.36 0h-46.21v-46.208h46.21v46.208Zm-47.37 0h-46.21v-46.208h46.21v46.208Zm-47.36 0h-46.21v-46.208h46.21v46.208Zm-47.365 0h-46.208v-46.208h46.208v46.208Zm-47.363 0h-46.209v-46.208h46.209v46.208Zm-47.364 0H830.76v-46.208h46.208v46.208Zm-47.364 0h-46.208v-46.208h46.208v46.208Zm-47.363 0h-46.208v-46.208h46.208v46.208Zm-47.364 0h-46.208v-46.208h46.208v46.208Zm-47.363 0h-46.208v-46.208h46.208v46.208Zm-47.364 0h-46.208v-46.208h46.208v46.208Zm-47.363 0h-46.209v-46.208h46.209v46.208Zm-47.364 0h-46.208v-46.208h46.208v46.208Zm-47.363 0h-46.209v-46.208h46.209v46.208Zm-47.364 0h-46.208v-46.208h46.208v46.208Zm-47.363 0h-46.209v-46.208h46.209v46.208Zm-47.364 0h-46.208v-46.208h46.208v46.208Zm-47.363 0h-46.209v-46.208h46.209v46.208Zm-47.364 0h-46.208v-46.208h46.208v46.208Zm-47.364 0H167.67v-46.208h46.208v46.208Zm-47.363 0h-46.208v-46.208h46.208v46.208Zm-47.364 0H72.943v-46.208h46.208v46.208Zm-47.363 0H25.58v-46.208h46.208v46.208Zm-47.364 0h-46.208v-46.208h46.208v46.208Zm2131.356-47.363h-46.2v-46.209h46.2v46.209Zm-47.36 0h-46.21v-46.209h46.21v46.209Zm-47.36 0h-46.21v-46.209h46.21v46.209Zm-47.37 0h-46.21v-46.209h46.21v46.209Zm-47.36 0h-46.21v-46.209h46.21v46.209Z"
        />
        <path
          fill="#0b0b0b"
          d="M1918.97 582.571h-46.21v-46.209h46.21v46.209Z"
        />

        <path
          stroke="#0a0a0a"
          stroke-width="2.31"
          d="M1871.6 582.571h-46.21v-46.209h46.21v46.209Zm-47.36 0h-46.21v-46.209h46.21v46.209Zm-47.36 0h-46.21v-46.209h46.21v46.209Zm-47.37 0h-46.21v-46.209h46.21v46.209Zm-47.36 0h-46.21v-46.209h46.21v46.209Zm-47.37 0h-46.2v-46.209h46.2v46.209Zm-47.36 0h-46.21v-46.209h46.21v46.209Zm-47.36 0h-46.21v-46.209h46.21v46.209Zm-47.37 0h-46.2v-46.209h46.2v46.209Zm-47.36 0h-46.21v-46.209h46.21v46.209Zm-47.36 0h-46.21v-46.209h46.21v46.209Zm-47.37 0h-46.2v-46.209h46.2v46.209Zm-47.36 0h-46.21v-46.209h46.21v46.209Zm-47.36 0h-46.21v-46.209h46.21v46.209Zm-47.37 0h-46.21v-46.209h46.21v46.209Zm-47.36 0h-46.21v-46.209h46.21v46.209Zm-47.36 0h-46.21v-46.209h46.21v46.209Zm-47.37 0h-46.21v-46.209h46.21v46.209Zm-47.36 0h-46.21v-46.209h46.21v46.209Zm-47.365 0h-46.208v-46.209h46.208v46.209Zm-47.363 0h-46.209v-46.209h46.209v46.209Zm-47.364 0H830.76v-46.209h46.208v46.209Zm-47.364 0h-46.208v-46.209h46.208v46.209Zm-47.363 0h-46.208v-46.209h46.208v46.209Zm-47.364 0h-46.208v-46.209h46.208v46.209Zm-47.363 0h-46.208v-46.209h46.208v46.209Zm-47.364 0h-46.208v-46.209h46.208v46.209Zm-47.363 0h-46.209v-46.209h46.209v46.209Zm-47.364 0h-46.208v-46.209h46.208v46.209Zm-47.363 0h-46.209v-46.209h46.209v46.209Zm-47.364 0h-46.208v-46.209h46.208v46.209Zm-47.363 0h-46.209v-46.209h46.209v46.209Zm-47.364 0h-46.208v-46.209h46.208v46.209Zm-47.363 0h-46.209v-46.209h46.209v46.209Zm-47.364 0h-46.208v-46.209h46.208v46.209Zm-47.364 0H167.67v-46.209h46.208v46.209Zm-47.363 0h-46.208v-46.209h46.208v46.209Zm-47.364 0H72.943v-46.209h46.208v46.209Zm-47.363 0H25.58v-46.209h46.208v46.209Zm-47.364 0h-46.208v-46.209h46.208v46.209Zm2131.356-47.364h-46.2v-46.208h46.2v46.208Zm-47.36 0h-46.21v-46.208h46.21v46.208Zm-47.36 0h-46.21v-46.208h46.21v46.208Zm-47.37 0h-46.21v-46.208h46.21v46.208Zm-47.36 0h-46.21v-46.208h46.21v46.208Zm-47.36 0h-46.21v-46.208h46.21v46.208Zm-47.37 0h-46.21v-46.208h46.21v46.208Zm-47.36 0h-46.21v-46.208h46.21v46.208Zm-47.36 0h-46.21v-46.208h46.21v46.208Zm-47.37 0h-46.21v-46.208h46.21v46.208Zm-47.36 0h-46.21v-46.208h46.21v46.208Zm-47.37 0h-46.2v-46.208h46.2v46.208Zm-47.36 0h-46.21v-46.208h46.21v46.208Zm-47.36 0h-46.21v-46.208h46.21v46.208Zm-47.37 0h-46.2v-46.208h46.2v46.208Z"
        />
        <path
          fill="#0b0b0b"
          d="M1445.33 535.207h-46.21v-46.208h46.21v46.208Z"
        />
        <path
          stroke="#0a0a0a"
          stroke-width="1.155"
          d="M1397.39 534.63h-45.05v-45.053h45.05v45.053Zm-47.36 0h-45.06v-45.053h45.06v45.053Zm-47.37 0h-45.05v-45.053h45.05v45.053Zm-47.36 0h-45.05v-45.053h45.05v45.053Zm-47.36 0h-45.06v-45.053h45.06v45.053Zm-47.37 0h-45.05v-45.053h45.05v45.053Zm-47.36 0h-45.05v-45.053h45.05v45.053Zm-47.37 0h-45.05v-45.053h45.05v45.053Zm-47.36 0h-45.052v-45.053h45.052v45.053Zm-47.362 0h-45.053v-45.053h45.053v45.053Z"
        />
        <path
          fill="#0b0b0b"
          d="M924.332 535.207h-46.208v-46.208h46.208v46.208Z"
        />

        <path
          stroke="#0a0a0a"
          stroke-width="2.31"
          d="M876.968 535.207H830.76v-46.208h46.208v46.208Zm-47.364 0h-46.208v-46.208h46.208v46.208Zm-47.363 0h-46.208v-46.208h46.208v46.208Zm-47.364 0h-46.208v-46.208h46.208v46.208Zm-47.363 0h-46.208v-46.208h46.208v46.208Zm-47.364 0h-46.208v-46.208h46.208v46.208Zm-47.363 0h-46.209v-46.208h46.209v46.208Zm-47.364 0h-46.208v-46.208h46.208v46.208Zm-47.363 0h-46.209v-46.208h46.209v46.208Zm-47.364 0h-46.208v-46.208h46.208v46.208Zm-47.363 0h-46.209v-46.208h46.209v46.208Zm-47.364 0h-46.208v-46.208h46.208v46.208Zm-47.363 0h-46.209v-46.208h46.209v46.208Zm-47.364 0h-46.208v-46.208h46.208v46.208Zm-47.364 0H167.67v-46.208h46.208v46.208Zm-47.363 0h-46.208v-46.208h46.208v46.208Zm-47.364 0H72.943v-46.208h46.208v46.208Zm-47.363 0H25.58v-46.208h46.208v46.208Zm-47.364 0h-46.208v-46.208h46.208v46.208Zm2131.356-47.363h-46.2v-46.209h46.2v46.209Zm-47.36 0h-46.21v-46.209h46.21v46.209Zm-47.36 0h-46.21v-46.209h46.21v46.209Zm-47.37 0h-46.21v-46.209h46.21v46.209Zm-47.36 0h-46.21v-46.209h46.21v46.209Zm-47.36 0h-46.21v-46.209h46.21v46.209Zm-47.37 0h-46.21v-46.209h46.21v46.209Zm-47.36 0h-46.21v-46.209h46.21v46.209Zm-47.36 0h-46.21v-46.209h46.21v46.209Zm-47.37 0h-46.21v-46.209h46.21v46.209Z"
        />
        <path
          fill="#0b0b0b"
          d="M1682.15 487.844h-46.21v-46.209h46.21v46.209Z"
        />

        <path
          stroke="#0a0a0a"
          stroke-width="2.31"
          d="M1634.79 487.844h-46.21v-46.209h46.21v46.209Zm-47.37 0h-46.21v-46.209h46.21v46.209Zm-47.36 0h-46.21v-46.209h46.21v46.209Zm-47.37 0h-46.2v-46.209h46.2v46.209Zm-47.36 0h-46.21v-46.209h46.21v46.209Zm-47.36 0h-46.21v-46.209h46.21v46.209Zm-47.37 0h-46.2v-46.209h46.2v46.209Zm-47.36 0h-46.21v-46.209h46.21v46.209Zm-47.36 0h-46.21v-46.209h46.21v46.209Zm-47.37 0h-46.21v-46.209h46.21v46.209Zm-47.36 0h-46.21v-46.209h46.21v46.209Zm-47.36 0h-46.21v-46.209h46.21v46.209Zm-47.37 0h-46.21v-46.209h46.21v46.209Zm-47.36 0h-46.209v-46.209h46.209v46.209Zm-47.364 0h-46.209v-46.209h46.209v46.209Zm-47.364 0h-46.208v-46.209h46.208v46.209Zm-47.363 0H830.76v-46.209h46.209v46.209Zm-47.364 0h-46.208v-46.209h46.208v46.209Zm-47.364 0h-46.208v-46.209h46.208v46.209Zm-47.363 0h-46.209v-46.209h46.209v46.209Zm-47.364 0h-46.208v-46.209h46.208v46.209Zm-47.363 0h-46.209v-46.209h46.209v46.209Zm-47.364 0h-46.208v-46.209h46.208v46.209Zm-47.363 0h-46.209v-46.209h46.209v46.209Zm-47.364 0h-46.208v-46.209h46.208v46.209Zm-47.363 0h-46.209v-46.209h46.209v46.209Zm-47.364 0h-46.208v-46.209h46.208v46.209Z"
        />
        <path
          fill="#0b0b0b"
          d="M355.969 487.844H309.76v-46.209h46.209v46.209Z"
        />

        <path
          stroke="#0a0a0a"
          stroke-width="2.31"
          d="M308.606 487.844h-46.209v-46.209h46.209v46.209Zm-47.364 0h-46.208v-46.209h46.208v46.209Zm-47.364 0H167.67v-46.209h46.208v46.209Zm-47.363 0h-46.208v-46.209h46.208v46.209Zm-47.364 0H72.943v-46.209h46.208v46.209Zm-47.363 0H25.58v-46.209h46.208v46.209Zm-47.364 0h-46.208v-46.209h46.208v46.209ZM2155.78 440.48h-46.2v-46.208h46.2v46.208Zm-47.36 0h-46.21v-46.208h46.21v46.208Zm-47.36 0h-46.21v-46.208h46.21v46.208Zm-47.37 0h-46.21v-46.208h46.21v46.208Zm-47.36 0h-46.21v-46.208h46.21v46.208Zm-47.36 0h-46.21v-46.208h46.21v46.208Zm-47.37 0h-46.21v-46.208h46.21v46.208Zm-47.36 0h-46.21v-46.208h46.21v46.208Zm-47.36 0h-46.21v-46.208h46.21v46.208Zm-47.37 0h-46.21v-46.208h46.21v46.208Zm-47.36 0h-46.21v-46.208h46.21v46.208Zm-47.37 0h-46.2v-46.208h46.2v46.208Zm-47.36 0h-46.21v-46.208h46.21v46.208Zm-47.36 0h-46.21v-46.208h46.21v46.208Zm-47.37 0h-46.2v-46.208h46.2v46.208Zm-47.36 0h-46.21v-46.208h46.21v46.208Zm-47.36 0h-46.21v-46.208h46.21v46.208Zm-47.37 0h-46.2v-46.208h46.2v46.208Zm-47.36 0h-46.21v-46.208h46.21v46.208Zm-47.36 0h-46.21v-46.208h46.21v46.208Zm-47.37 0h-46.21v-46.208h46.21v46.208Zm-47.36 0h-46.21v-46.208h46.21v46.208Z"
        />
        <path fill="#0b0b0b" d="M1113.79 440.48h-46.21v-46.208h46.21v46.208Z" />
        <path
          stroke="#0a0a0a"
          stroke-width="1.155"
          d="M1065.84 439.902h-45.05v-45.053h45.05v45.053Zm-47.36 0h-45.052v-45.053h45.052v45.053Zm-47.362 0h-45.053v-45.053h45.053v45.053Zm-47.364 0h-45.053v-45.053h45.053v45.053Zm-47.363 0h-45.054v-45.053h45.054v45.053Zm-47.364 0h-45.053v-45.053h45.053v45.053Zm-47.363 0H736.61v-45.053h45.054v45.053Zm-47.364 0h-45.053v-45.053H734.3v45.053Zm-47.364 0h-45.053v-45.053h45.053v45.053Zm-47.363 0H594.52v-45.053h45.053v45.053Zm-47.364 0h-45.053v-45.053h45.053v45.053Zm-47.363 0h-45.053v-45.053h45.053v45.053Zm-47.364 0h-45.053v-45.053h45.053v45.053Zm-47.363 0h-45.053v-45.053h45.053v45.053Zm-47.364 0h-45.053v-45.053h45.053v45.053Zm-47.363 0h-45.054v-45.053h45.054v45.053Zm-47.364 0h-45.053v-45.053h45.053v45.053Zm-47.363 0h-45.054v-45.053h45.054v45.053Zm-47.364 0h-45.053v-45.053h45.053v45.053Zm-47.363 0h-45.054v-45.053h45.054v45.053Z"
        />
        <path
          fill="#0b0b0b"
          d="M119.151 440.48H72.943v-46.208h46.208v46.208Z"
        />

        <path
          stroke="#0a0a0a"
          stroke-width="2.31"
          d="M71.788 440.48H25.58v-46.208h46.208v46.208Zm-47.364 0h-46.208v-46.208h46.208v46.208Zm2131.356-47.364h-46.2v-46.208h46.2v46.208Zm-47.36 0h-46.21v-46.208h46.21v46.208Zm-47.36 0h-46.21v-46.208h46.21v46.208Zm-47.37 0h-46.21v-46.208h46.21v46.208Zm-47.36 0h-46.21v-46.208h46.21v46.208Zm-47.36 0h-46.21v-46.208h46.21v46.208Zm-47.37 0h-46.21v-46.208h46.21v46.208Zm-47.36 0h-46.21v-46.208h46.21v46.208Zm-47.36 0h-46.21v-46.208h46.21v46.208Zm-47.37 0h-46.21v-46.208h46.21v46.208Zm-47.36 0h-46.21v-46.208h46.21v46.208Zm-47.37 0h-46.2v-46.208h46.2v46.208Zm-47.36 0h-46.21v-46.208h46.21v46.208Zm-47.36 0h-46.21v-46.208h46.21v46.208Zm-47.37 0h-46.2v-46.208h46.2v46.208Zm-47.36 0h-46.21v-46.208h46.21v46.208Zm-47.36 0h-46.21v-46.208h46.21v46.208Zm-47.37 0h-46.2v-46.208h46.2v46.208Zm-47.36 0h-46.21v-46.208h46.21v46.208Zm-47.36 0h-46.21v-46.208h46.21v46.208Zm-47.37 0h-46.21v-46.208h46.21v46.208Zm-47.36 0h-46.21v-46.208h46.21v46.208Zm-47.36 0h-46.21v-46.208h46.21v46.208Zm-47.37 0h-46.21v-46.208h46.21v46.208Zm-47.36 0h-46.21v-46.208h46.21v46.208Zm-47.365 0h-46.208v-46.208h46.208v46.208Zm-47.363 0h-46.209v-46.208h46.209v46.208Zm-47.364 0H830.76v-46.208h46.208v46.208Zm-47.364 0h-46.208v-46.208h46.208v46.208Zm-47.363 0h-46.208v-46.208h46.208v46.208Zm-47.364 0h-46.208v-46.208h46.208v46.208Zm-47.363 0h-46.208v-46.208h46.208v46.208Zm-47.364 0h-46.208v-46.208h46.208v46.208Zm-47.363 0h-46.209v-46.208h46.209v46.208Zm-47.364 0h-46.208v-46.208h46.208v46.208Z"
        />
        <path
          fill="#0b0b0b"
          d="M498.06 393.117h-46.209v-46.209h46.209v46.209Z"
        />

        <path
          stroke="#0a0a0a"
          stroke-width="2.31"
          d="M450.696 393.117h-46.208v-46.209h46.208v46.209Zm-47.363 0h-46.209v-46.209h46.209v46.209Zm-47.364 0h-46.208v-46.209h46.208v46.209Zm-47.363 0h-46.209v-46.209h46.209v46.209Zm-47.364 0h-46.208v-46.209h46.208v46.209Zm-47.364 0H167.67v-46.209h46.208v46.209Zm-47.363 0h-46.208v-46.209h46.208v46.209Zm-47.364 0H72.943v-46.209h46.208v46.209Zm-47.363 0H25.58v-46.209h46.208v46.209Zm-47.364 0h-46.208v-46.209h46.208v46.209Zm2131.356-47.364h-46.2v-46.208h46.2v46.208Zm-47.36 0h-46.21v-46.208h46.21v46.208Zm-47.36 0h-46.21v-46.208h46.21v46.208Zm-47.37 0h-46.21v-46.208h46.21v46.208Zm-47.36 0h-46.21v-46.208h46.21v46.208Zm-47.36 0h-46.21v-46.208h46.21v46.208Zm-47.37 0h-46.21v-46.208h46.21v46.208Zm-47.36 0h-46.21v-46.208h46.21v46.208Zm-47.36 0h-46.21v-46.208h46.21v46.208Zm-47.37 0h-46.21v-46.208h46.21v46.208Zm-47.36 0h-46.21v-46.208h46.21v46.208Zm-47.37 0h-46.2v-46.208h46.2v46.208Zm-47.36 0h-46.21v-46.208h46.21v46.208Zm-47.36 0h-46.21v-46.208h46.21v46.208Zm-47.37 0h-46.2v-46.208h46.2v46.208Zm-47.36 0h-46.21v-46.208h46.21v46.208Zm-47.36 0h-46.21v-46.208h46.21v46.208Zm-47.37 0h-46.2v-46.208h46.2v46.208Zm-47.36 0h-46.21v-46.208h46.21v46.208Zm-47.36 0h-46.21v-46.208h46.21v46.208Zm-47.37 0h-46.21v-46.208h46.21v46.208Zm-47.36 0h-46.21v-46.208h46.21v46.208Zm-47.36 0h-46.21v-46.208h46.21v46.208Zm-47.37 0h-46.21v-46.208h46.21v46.208Zm-47.36 0h-46.21v-46.208h46.21v46.208Zm-47.365 0h-46.208v-46.208h46.208v46.208Zm-47.363 0h-46.209v-46.208h46.209v46.208Zm-47.364 0H830.76v-46.208h46.208v46.208Zm-47.364 0h-46.208v-46.208h46.208v46.208Zm-47.363 0h-46.208v-46.208h46.208v46.208Zm-47.364 0h-46.208v-46.208h46.208v46.208Zm-47.363 0h-46.208v-46.208h46.208v46.208Zm-47.364 0h-46.208v-46.208h46.208v46.208Zm-47.363 0h-46.209v-46.208h46.209v46.208Zm-47.364 0h-46.208v-46.208h46.208v46.208Zm-47.363 0h-46.209v-46.208h46.209v46.208Zm-47.364 0h-46.208v-46.208h46.208v46.208Zm-47.363 0h-46.209v-46.208h46.209v46.208Zm-47.364 0h-46.208v-46.208h46.208v46.208Zm-47.363 0h-46.209v-46.208h46.209v46.208Zm-47.364 0h-46.208v-46.208h46.208v46.208Zm-47.364 0H167.67v-46.208h46.208v46.208Zm-47.363 0h-46.208v-46.208h46.208v46.208Zm-47.364 0H72.943v-46.208h46.208v46.208Zm-47.363 0H25.58v-46.208h46.208v46.208Zm-47.364 0h-46.208v-46.208h46.208v46.208ZM2155.78 298.39h-46.2v-46.209h46.2v46.209Zm-47.36 0h-46.21v-46.209h46.21v46.209Zm-47.36 0h-46.21v-46.209h46.21v46.209Z"
        />
        <path fill="#0b0b0b" d="M2013.69 298.39h-46.2v-46.209h46.2v46.209Z" />
        <path
          stroke="#0a0a0a"
          stroke-width="1.155"
          d="M1965.75 297.812h-45.05v-45.053h45.05v45.053Zm-47.36 0h-45.05v-45.053h45.05v45.053Zm-47.37 0h-45.05v-45.053h45.05v45.053Zm-47.36 0h-45.05v-45.053h45.05v45.053Zm-47.36 0h-45.06v-45.053h45.06v45.053Zm-47.37 0h-45.05v-45.053h45.05v45.053Zm-47.36 0h-45.05v-45.053h45.05v45.053Zm-47.36 0h-45.06v-45.053h45.06v45.053Zm-47.37 0h-45.05v-45.053h45.05v45.053Zm-47.36 0h-45.05v-45.053h45.05v45.053Zm-47.36 0h-45.06v-45.053h45.06v45.053Z"
        />
        <path fill="#0b0b0b" d="M1445.33 298.39h-46.21v-46.209h46.21v46.209Z" />
        <path
          stroke="#0a0a0a"
          stroke-width="1.155"
          d="M1397.39 297.812h-45.05v-45.053h45.05v45.053Zm-47.36 0h-45.06v-45.053h45.06v45.053Zm-47.37 0h-45.05v-45.053h45.05v45.053Zm-47.36 0h-45.05v-45.053h45.05v45.053Zm-47.36 0h-45.06v-45.053h45.06v45.053Zm-47.37 0h-45.05v-45.053h45.05v45.053Zm-47.36 0h-45.05v-45.053h45.05v45.053Zm-47.37 0h-45.05v-45.053h45.05v45.053Zm-47.36 0h-45.052v-45.053h45.052v45.053Z"
        />
        <path
          fill="#0b0b0b"
          d="M971.695 298.39h-46.208v-46.209h46.208v46.209Z"
        />

        <path
          stroke="#0a0a0a"
          stroke-width="2.31"
          d="M924.332 298.39h-46.209v-46.209h46.209v46.209Zm-47.364 0H830.76v-46.209h46.208v46.209Zm-47.364 0h-46.208v-46.209h46.208v46.209Zm-47.363 0h-46.208v-46.209h46.208v46.209Zm-47.364 0h-46.208v-46.209h46.208v46.209Zm-47.363 0h-46.208v-46.209h46.208v46.209Zm-47.364 0h-46.208v-46.209h46.208v46.209Zm-47.363 0h-46.209v-46.209h46.209v46.209Zm-47.364 0h-46.208v-46.209h46.208v46.209Zm-47.363 0h-46.209v-46.209h46.209v46.209Zm-47.364 0h-46.208v-46.209h46.208v46.209Zm-47.363 0h-46.209v-46.209h46.209v46.209Zm-47.364 0h-46.208v-46.209h46.208v46.209Zm-47.363 0h-46.209v-46.209h46.209v46.209Zm-47.364 0h-46.208v-46.209h46.208v46.209Zm-47.364 0H167.67v-46.209h46.208v46.209Zm-47.363 0h-46.208v-46.209h46.208v46.209Zm-47.364 0H72.943v-46.209h46.208v46.209Zm-47.363 0H25.58v-46.209h46.208v46.209Zm-47.364 0h-46.208v-46.209h46.208v46.209Zm2131.356-47.364h-46.2v-46.208h46.2v46.208Zm-47.36 0h-46.21v-46.208h46.21v46.208Zm-47.36 0h-46.21v-46.208h46.21v46.208Zm-47.37 0h-46.21v-46.208h46.21v46.208Zm-47.36 0h-46.21v-46.208h46.21v46.208Zm-47.36 0h-46.21v-46.208h46.21v46.208Zm-47.37 0h-46.21v-46.208h46.21v46.208Zm-47.36 0h-46.21v-46.208h46.21v46.208Zm-47.36 0h-46.21v-46.208h46.21v46.208Z"
        />
        <path
          fill="#0b0b0b"
          d="M1729.51 251.026h-46.21v-46.208h46.21v46.208Z"
        />
        <path
          stroke="#0a0a0a"
          stroke-width="1.155"
          d="M1681.57 250.448h-45.05v-45.053h45.05v45.053Zm-47.36 0h-45.06v-45.053h45.06v45.053Zm-47.37 0h-45.05v-45.053h45.05v45.053Zm-47.36 0h-45.05v-45.053h45.05v45.053Zm-47.36 0h-45.06v-45.053h45.06v45.053Zm-47.37 0h-45.05v-45.053h45.05v45.053Zm-47.36 0h-45.05v-45.053h45.05v45.053Zm-47.36 0h-45.06v-45.053h45.06v45.053Zm-47.37 0h-45.05v-45.053h45.05v45.053Zm-47.36 0h-45.05v-45.053h45.05v45.053Zm-47.36 0h-45.06v-45.053h45.06v45.053Zm-47.37 0h-45.05v-45.053h45.05v45.053Zm-47.36 0h-45.05v-45.053h45.05v45.053Zm-47.37 0h-45.05v-45.053h45.05v45.053Zm-47.36 0h-45.052v-45.053h45.052v45.053Zm-47.362 0h-45.053v-45.053h45.053v45.053Zm-47.364 0h-45.053v-45.053h45.053v45.053Zm-47.363 0h-45.054v-45.053h45.054v45.053Zm-47.364 0h-45.053v-45.053h45.053v45.053Zm-47.363 0H736.61v-45.053h45.054v45.053Z"
        />
        <path
          fill="#0b0b0b"
          d="M734.877 251.026h-46.208v-46.208h46.208v46.208Z"
        />

        <path
          stroke="#0a0a0a"
          stroke-width="2.31"
          d="M687.514 251.026h-46.208v-46.208h46.208v46.208Zm-47.364 0h-46.208v-46.208h46.208v46.208Zm-47.363 0h-46.209v-46.208h46.209v46.208Zm-47.364 0h-46.208v-46.208h46.208v46.208Zm-47.363 0h-46.209v-46.208h46.209v46.208Zm-47.364 0h-46.208v-46.208h46.208v46.208Zm-47.363 0h-46.209v-46.208h46.209v46.208Zm-47.364 0h-46.208v-46.208h46.208v46.208Zm-47.363 0h-46.209v-46.208h46.209v46.208Zm-47.364 0h-46.208v-46.208h46.208v46.208Zm-47.364 0H167.67v-46.208h46.208v46.208Zm-47.363 0h-46.208v-46.208h46.208v46.208Zm-47.364 0H72.943v-46.208h46.208v46.208Zm-47.363 0H25.58v-46.208h46.208v46.208Zm-47.364 0h-46.208v-46.208h46.208v46.208Zm2131.356-47.364h-46.2v-46.208h46.2v46.208Zm-47.36 0h-46.21v-46.208h46.21v46.208Zm-47.36 0h-46.21v-46.208h46.21v46.208Zm-47.37 0h-46.21v-46.208h46.21v46.208Zm-47.36 0h-46.21v-46.208h46.21v46.208Zm-47.36 0h-46.21v-46.208h46.21v46.208Zm-47.37 0h-46.21v-46.208h46.21v46.208Zm-47.36 0h-46.21v-46.208h46.21v46.208Zm-47.36 0h-46.21v-46.208h46.21v46.208Zm-47.37 0h-46.21v-46.208h46.21v46.208Zm-47.36 0h-46.21v-46.208h46.21v46.208Zm-47.37 0h-46.2v-46.208h46.2v46.208Zm-47.36 0h-46.21v-46.208h46.21v46.208Zm-47.36 0h-46.21v-46.208h46.21v46.208Zm-47.37 0h-46.2v-46.208h46.2v46.208Zm-47.36 0h-46.21v-46.208h46.21v46.208Zm-47.36 0h-46.21v-46.208h46.21v46.208Zm-47.37 0h-46.2v-46.208h46.2v46.208Zm-47.36 0h-46.21v-46.208h46.21v46.208Zm-47.36 0h-46.21v-46.208h46.21v46.208Zm-47.37 0h-46.21v-46.208h46.21v46.208Zm-47.36 0h-46.21v-46.208h46.21v46.208Zm-47.36 0h-46.21v-46.208h46.21v46.208Zm-47.37 0h-46.21v-46.208h46.21v46.208Zm-47.36 0h-46.21v-46.208h46.21v46.208Zm-47.365 0h-46.208v-46.208h46.208v46.208Zm-47.363 0h-46.209v-46.208h46.209v46.208Zm-47.364 0H830.76v-46.208h46.208v46.208Zm-47.364 0h-46.208v-46.208h46.208v46.208Zm-47.363 0h-46.208v-46.208h46.208v46.208Zm-47.364 0h-46.208v-46.208h46.208v46.208Zm-47.363 0h-46.208v-46.208h46.208v46.208Zm-47.364 0h-46.208v-46.208h46.208v46.208Zm-47.363 0h-46.209v-46.208h46.209v46.208Zm-47.364 0h-46.208v-46.208h46.208v46.208Zm-47.363 0h-46.209v-46.208h46.209v46.208Zm-47.364 0h-46.208v-46.208h46.208v46.208Zm-47.363 0h-46.209v-46.208h46.209v46.208Zm-47.364 0h-46.208v-46.208h46.208v46.208Zm-47.363 0h-46.209v-46.208h46.209v46.208Zm-47.364 0h-46.208v-46.208h46.208v46.208Zm-47.364 0H167.67v-46.208h46.208v46.208Zm-47.363 0h-46.208v-46.208h46.208v46.208Zm-47.364 0H72.943v-46.208h46.208v46.208Zm-47.363 0H25.58v-46.208h46.208v46.208Zm-47.364 0h-46.208v-46.208h46.208v46.208Zm2131.356-47.363h-46.2V110.09h46.2v46.209Zm-47.36 0h-46.21V110.09h46.21v46.209Zm-47.36 0h-46.21V110.09h46.21v46.209Zm-47.37 0h-46.21V110.09h46.21v46.209Zm-47.36 0h-46.21V110.09h46.21v46.209Zm-47.36 0h-46.21V110.09h46.21v46.209Zm-47.37 0h-46.21V110.09h46.21v46.209Zm-47.36 0h-46.21V110.09h46.21v46.209Zm-47.36 0h-46.21V110.09h46.21v46.209Zm-47.37 0h-46.21V110.09h46.21v46.209Zm-47.36 0h-46.21V110.09h46.21v46.209Zm-47.37 0h-46.2V110.09h46.2v46.209Zm-47.36 0h-46.21V110.09h46.21v46.209Zm-47.36 0h-46.21V110.09h46.21v46.209Zm-47.37 0h-46.2V110.09h46.2v46.209Zm-47.36 0h-46.21V110.09h46.21v46.209Zm-47.36 0h-46.21V110.09h46.21v46.209Zm-47.37 0h-46.2V110.09h46.2v46.209Zm-47.36 0h-46.21V110.09h46.21v46.209Zm-47.36 0h-46.21V110.09h46.21v46.209Zm-47.37 0h-46.21V110.09h46.21v46.209Zm-47.36 0h-46.21V110.09h46.21v46.209Zm-47.36 0h-46.21V110.09h46.21v46.209Zm-47.37 0h-46.21V110.09h46.21v46.209Zm-47.36 0h-46.21V110.09h46.21v46.209Zm-47.365 0h-46.208V110.09h46.208v46.209Zm-47.363 0h-46.209V110.09h46.209v46.209Zm-47.364 0H830.76V110.09h46.208v46.209Zm-47.364 0h-46.208V110.09h46.208v46.209Zm-47.363 0h-46.208V110.09h46.208v46.209Zm-47.364 0h-46.208V110.09h46.208v46.209Zm-47.363 0h-46.208V110.09h46.208v46.209Zm-47.364 0h-46.208V110.09h46.208v46.209Zm-47.363 0h-46.209V110.09h46.209v46.209Zm-47.364 0h-46.208V110.09h46.208v46.209Z"
        />
        <path
          fill="#0b0b0b"
          d="M498.06 156.299h-46.209V110.09h46.209v46.209Z"
        />
        <path
          stroke="#0a0a0a"
          stroke-width="1.155"
          d="M450.119 155.721h-45.054v-45.053h45.054v45.053Zm-47.364 0h-45.053v-45.053h45.053v45.053Zm-47.364 0h-45.053v-45.053h45.053v45.053Zm-47.363 0h-45.053v-45.053h45.053v45.053Zm-47.364 0h-45.053v-45.053h45.053v45.053Zm-47.363 0h-45.053v-45.053h45.053v45.053Zm-47.364 0h-45.053v-45.053h45.053v45.053Zm-47.363 0H73.521v-45.053h45.053v45.053Zm-47.364 0H26.157v-45.053H71.21v45.053Zm-47.363 0h-45.053v-45.053h45.053v45.053Zm2131.363-47.363h-45.06V63.305h45.06v45.053Zm-47.37 0h-45.05V63.305h45.05v45.053Z"
        />
        <path fill="#0b0b0b" d="M2061.06 108.935h-46.21V62.727h46.21v46.208Z" />
        <path
          stroke="#0a0a0a"
          stroke-width="1.155"
          d="M2013.12 108.358h-45.06V63.305h45.06v45.053Zm-47.37 0h-45.05V63.305h45.05v45.053Zm-47.36 0h-45.05V63.305h45.05v45.053Zm-47.36 0h-45.06V63.305h45.06v45.053Zm-47.37 0h-45.05V63.305h45.05v45.053Zm-47.36 0h-45.06V63.305h45.06v45.053Zm-47.37 0h-45.05V63.305h45.05v45.053Zm-47.36 0h-45.05V63.305h45.05v45.053Zm-47.36 0h-45.06V63.305h45.06v45.053Zm-47.37 0h-45.05V63.305h45.05v45.053Zm-47.36 0h-45.05V63.305h45.05v45.053Zm-47.36 0h-45.06V63.305h45.06v45.053Zm-47.37 0h-45.05V63.305h45.05v45.053Zm-47.36 0h-45.05V63.305h45.05v45.053Z"
        />
        <path fill="#0b0b0b" d="M1350.6 108.935h-46.2V62.727h46.2v46.208Z" />

        <path
          stroke="#0a0a0a"
          stroke-width="2.31"
          d="M1303.24 108.935h-46.21V62.727h46.21v46.208Zm-47.36 0h-46.21V62.727h46.21v46.208Zm-47.37 0h-46.21V62.727h46.21v46.208Zm-47.36 0h-46.21V62.727h46.21v46.208Zm-47.36 0h-46.21V62.727h46.21v46.208Zm-47.37 0h-46.21V62.727h46.21v46.208Zm-47.36 0h-46.21V62.727h46.21v46.208Zm-47.365 0h-46.208V62.727h46.208v46.208Zm-47.363 0h-46.209V62.727h46.209v46.208Zm-47.364 0H830.76V62.727h46.208v46.208Zm-47.364 0h-46.208V62.727h46.208v46.208Zm-47.363 0h-46.208V62.727h46.208v46.208Zm-47.364 0h-46.208V62.727h46.208v46.208Zm-47.363 0h-46.208V62.727h46.208v46.208Zm-47.364 0h-46.208V62.727h46.208v46.208Zm-47.363 0h-46.209V62.727h46.209v46.208Zm-47.364 0h-46.208V62.727h46.208v46.208Zm-47.363 0h-46.209V62.727h46.209v46.208Zm-47.364 0h-46.208V62.727h46.208v46.208Zm-47.363 0h-46.209V62.727h46.209v46.208Zm-47.364 0h-46.208V62.727h46.208v46.208Zm-47.363 0h-46.209V62.727h46.209v46.208Zm-47.364 0h-46.208V62.727h46.208v46.208Zm-47.364 0H167.67V62.727h46.208v46.208Zm-47.363 0h-46.208V62.727h46.208v46.208Zm-47.364 0H72.943V62.727h46.208v46.208Zm-47.363 0H25.58V62.727h46.208v46.208Zm-47.364 0h-46.208V62.727h46.208v46.208ZM2155.78 61.572h-46.2V15.363h46.2v46.209Zm-47.36 0h-46.21V15.363h46.21v46.209Zm-47.36 0h-46.21V15.363h46.21v46.209Zm-47.37 0h-46.21V15.363h46.21v46.209Zm-47.36 0h-46.21V15.363h46.21v46.209Zm-47.36 0h-46.21V15.363h46.21v46.209Zm-47.37 0h-46.21V15.363h46.21v46.209Zm-47.36 0h-46.21V15.363h46.21v46.209Zm-47.36 0h-46.21V15.363h46.21v46.209Zm-47.37 0h-46.21V15.363h46.21v46.209Zm-47.36 0h-46.21V15.363h46.21v46.209Zm-47.37 0h-46.2V15.363h46.2v46.209Zm-47.36 0h-46.21V15.363h46.21v46.209Zm-47.36 0h-46.21V15.363h46.21v46.209Zm-47.37 0h-46.2V15.363h46.2v46.209Zm-47.36 0h-46.21V15.363h46.21v46.209Zm-47.36 0h-46.21V15.363h46.21v46.209Zm-47.37 0h-46.2V15.363h46.2v46.209Zm-47.36 0h-46.21V15.363h46.21v46.209Zm-47.36 0h-46.21V15.363h46.21v46.209Zm-47.37 0h-46.21V15.363h46.21v46.209Zm-47.36 0h-46.21V15.363h46.21v46.209Zm-47.36 0h-46.21V15.363h46.21v46.209Zm-47.37 0h-46.21V15.363h46.21v46.209Zm-47.36 0h-46.21V15.363h46.21v46.209Z"
        />
        <path
          fill="#0b0b0b"
          d="M971.695 61.572h-46.208V15.363h46.208v46.209Z"
        />
        <path
          stroke="#0a0a0a"
          stroke-width="1.155"
          d="M923.754 60.994h-45.053V15.941h45.053v45.053Zm-47.363 0h-45.053V15.941h45.053v45.053Zm-47.364 0h-45.053V15.941h45.053v45.053Zm-47.363 0h-45.053V15.941h45.053v45.053Zm-47.364 0h-45.053V15.941H734.3v45.053Zm-47.363 0h-45.053V15.941h45.053v45.053Zm-47.364 0H594.52V15.941h45.053v45.053Zm-47.363 0h-45.054V15.941h45.054v45.053Zm-47.364 0h-45.053V15.941h45.053v45.053Zm-47.363 0h-45.054V15.941h45.054v45.053Zm-47.364 0h-45.053V15.941h45.053v45.053Zm-47.364 0h-45.053V15.941h45.053v45.053Zm-47.363 0h-45.053V15.941h45.053v45.053Z"
        />
        <path
          fill="#0b0b0b"
          d="M308.605 61.572h-46.208V15.363h46.208v46.209Z"
        />
        <path
          stroke="#0a0a0a"
          stroke-width="1.155"
          d="M260.664 60.994h-45.053V15.941h45.053v45.053Zm-47.363 0h-45.053V15.941h45.053v45.053Zm-47.364 0h-45.053V15.941h45.053v45.053Zm-47.363 0H73.521V15.941h45.053v45.053Zm-47.364 0H26.157V15.941H71.21v45.053Zm-47.363 0h-45.053V15.941h45.053v45.053ZM2155.21 13.631h-45.06v-45.053h45.06V13.63Zm-47.37 0h-45.05v-45.053h45.05V13.63Zm-47.36 0h-45.05v-45.053h45.05V13.63Zm-47.36 0h-45.06v-45.053h45.06V13.63Zm-47.37 0h-45.05v-45.053h45.05V13.63Zm-47.36 0h-45.05v-45.053h45.05V13.63Zm-47.37 0h-45.05v-45.053h45.05V13.63Zm-47.36 0h-45.05v-45.053h45.05V13.63Zm-47.36 0h-45.06v-45.053h45.06V13.63Z"
        />
        <path fill="#0b0b0b" d="M1729.51 14.208h-46.21V-32h46.21v46.208Z" />

        <path
          stroke="#0a0a0a"
          stroke-width="2.31"
          d="M1682.15 14.208h-46.21V-32h46.21v46.208Zm-47.37 0h-46.2V-32h46.2v46.208Zm-47.36 0h-46.21V-32h46.21v46.208Zm-47.36 0h-46.21V-32h46.21v46.208Zm-47.37 0h-46.2V-32h46.2v46.208Zm-47.36 0h-46.21V-32h46.21v46.208Zm-47.36 0h-46.21V-32h46.21v46.208Zm-47.37 0h-46.2V-32h46.2v46.208Zm-47.36 0h-46.21V-32h46.21v46.208Zm-47.36 0h-46.21V-32h46.21v46.208Zm-47.37 0h-46.21V-32h46.21v46.208Zm-47.36 0h-46.21V-32h46.21v46.208Zm-47.36 0h-46.21V-32h46.21v46.208Zm-47.37 0h-46.21V-32h46.21v46.208Zm-47.36 0h-46.209V-32h46.209v46.208Zm-47.365 0h-46.208V-32h46.208v46.208Zm-47.363 0h-46.209V-32h46.209v46.208Zm-47.364 0H830.76V-32h46.208v46.208Zm-47.363 0h-46.209V-32h46.209v46.208Zm-47.364 0h-46.208V-32h46.208v46.208Zm-47.363 0h-46.209V-32h46.209v46.208Zm-47.364 0h-46.208V-32h46.208v46.208Zm-47.363 0h-46.209V-32h46.209v46.208Zm-47.364 0h-46.208V-32h46.208v46.208Zm-47.364 0h-46.208V-32h46.208v46.208Zm-47.363 0h-46.208V-32h46.208v46.208Zm-47.364 0h-46.208V-32h46.208v46.208Zm-47.363 0h-46.208V-32h46.208v46.208Zm-47.364 0h-46.208V-32h46.208v46.208Zm-47.363 0h-46.209V-32h46.209v46.208Zm-47.364 0h-46.208V-32h46.208v46.208Zm-47.363 0H167.67V-32h46.209v46.208Zm-47.364 0h-46.208V-32h46.208v46.208Z"
        />
        <path fill="#0b0b0b" d="M119.151 14.208H72.943V-32h46.208v46.208Z" />
        <path
          stroke="#0a0a0a"
          stroke-width="1.155"
          d="M71.21 13.63H26.157v-45.053H71.21v45.054Zm-47.363 0h-45.053v-45.053h45.053v45.054Z"
        />
      </g>
      <g filter="url(#z)" opacity="0.56">
        <rect
          width="853"
          height="853"
          fill="url(#A)"
          rx="426.5"
          transform="matrix(-1 0 0 1 1470 -363)"
        />
      </g>
      <path
        fill="url(#B)"
        d="M0 0h2133v1042H0z"
        transform="matrix(-1 0 0 1 2133 505)"
      />
    </g>
    <defs>
      <clipPath id="a">
        <path fill="rgb(24,26,27)" d="M2133 0H0v1547h2133z" />
      </clipPath>
      <clipPath id="b">
        <path fill="rgb(24,26,27)" d="M2176 1577.21H-42V-32h2218z" />
      </clipPath>
      <radialGradient
        id="A"
        cx="0"
        cy="0"
        r="1"
        gradientTransform="translate(426.5 426.5) scale(426.5)"
        gradientUnits="userSpaceOnUse"
      >
        <stop stop-color="#414141" stop-opacity="0.8" />
        <stop offset="1" stop-color="#414141" stop-opacity="0" />
      </radialGradient>
      <filter
        id="z"
        width="1443.21"
        height="1443.21"
        x="321.896"
        y="-658.104"
        color-interpolation-filters="sRGB"
        filterUnits="userSpaceOnUse"
      >
        <feFlood flood-opacity="0" result="BackgroundImageFix" />
        <feBlend in="SourceGraphic" in2="BackgroundImageFix" result="shape" />
        <feGaussianBlur
          result="effect1_foregroundBlur_91_461"
          stdDeviation="147.552"
        />
      </filter>
    </defs>
  </svg>